<svg xmlns="http://www.w3.org/2000/svg" width="80" height="77.336" viewBox="0 0 80 77.336">
  <g id="idea-genial" transform="translate(0 -8.527)">
    <g id="Grupo_136778" data-name="Grupo 136778" transform="translate(54.348 56.439)">
      <g id="Grupo_136777" data-name="Grupo 136777">
        <path id="Trazado_195559" data-name="Trazado 195559" d="M365.879,331.482a9,9,0,1,0-10.444,0,12.842,12.842,0,0,0-7.6,11.712,1.395,1.395,0,1,0,2.79,0,10.036,10.036,0,0,1,20.072,0,1.395,1.395,0,0,0,2.79,0A12.845,12.845,0,0,0,365.879,331.482Zm-5.223-1.112a6.206,6.206,0,1,1,6.206-6.206A6.213,6.213,0,0,1,360.656,330.369Z" transform="translate(-347.83 -315.167)" fill="#b13e8d"/>
      </g>
    </g>
    <g id="Grupo_136780" data-name="Grupo 136780" transform="translate(27.325 8.527)">
      <g id="Grupo_136779" data-name="Grupo 136779" transform="translate(0 0)">
        <path id="Trazado_195560" data-name="Trazado 195560" d="M196.456,12.176a12.674,12.674,0,0,0-18,17.844,8.278,8.278,0,0,1,2.385,5.773v1.618a5.924,5.924,0,0,0,5.917,5.917h1.6a5.924,5.924,0,0,0,5.917-5.917V35.793a8.251,8.251,0,0,1,2.376-5.764,12.673,12.673,0,0,0-.195-17.854Zm-4.971,25.235a3.131,3.131,0,0,1-3.128,3.128h-1.6a3.131,3.131,0,0,1-3.128-3.128v-.223h7.856v.223Zm3.164-9.325a11.075,11.075,0,0,0-3.072,6.312h-2.626V26.357l4.128-4.128a1.395,1.395,0,0,0-1.972-1.972l-3.55,3.55-3.55-3.55a1.395,1.395,0,0,0-1.972,1.972l4.128,4.128V34.4h-2.626a11.118,11.118,0,0,0-3.079-6.32,9.885,9.885,0,0,1,6.957-16.762h.143a9.884,9.884,0,0,1,7.092,16.77Z" transform="translate(-174.883 -8.527)" fill="#b13e8d"/>
      </g>
    </g>
    <g id="Grupo_136782" data-name="Grupo 136782" transform="translate(15.992 43.329)">
      <g id="Grupo_136781" data-name="Grupo 136781">
        <path id="Trazado_195561" data-name="Trazado 195561" d="M113.1,231.668a1.4,1.4,0,0,0-1.972,0l-8.368,8.368a1.395,1.395,0,1,0,1.972,1.973l8.368-8.368A1.4,1.4,0,0,0,113.1,231.668Z" transform="translate(-102.352 -231.259)" fill="#b13e8d"/>
      </g>
    </g>
    <g id="Grupo_136784" data-name="Grupo 136784" transform="translate(52.85 43.329)">
      <g id="Grupo_136783" data-name="Grupo 136783">
        <path id="Trazado_195562" data-name="Trazado 195562" d="M348.988,240.036l-8.368-8.368a1.395,1.395,0,0,0-1.972,1.972l8.368,8.368a1.395,1.395,0,1,0,1.972-1.972Z" transform="translate(-338.239 -231.26)" fill="#b13e8d"/>
      </g>
    </g>
    <g id="Grupo_136786" data-name="Grupo 136786" transform="translate(38.605 46.652)">
      <g id="Grupo_136785" data-name="Grupo 136785">
        <path id="Trazado_195563" data-name="Trazado 195563" d="M248.468,252.528a1.4,1.4,0,0,0-1.395,1.395v5.324a1.395,1.395,0,0,0,2.79,0v-5.324A1.4,1.4,0,0,0,248.468,252.528Z" transform="translate(-247.073 -252.528)" fill="#b13e8d"/>
      </g>
    </g>
    <g id="Grupo_136788" data-name="Grupo 136788" transform="translate(62.596 60.913)">
      <g id="Grupo_136787" data-name="Grupo 136787">
        <circle id="Elipse_6057" data-name="Elipse 6057" cx="1.395" cy="1.395" r="1.395" fill="#b13e8d"/>
      </g>
    </g>
    <g id="Grupo_136790" data-name="Grupo 136790" transform="translate(67.711 60.913)">
      <g id="Grupo_136789" data-name="Grupo 136789">
        <circle id="Elipse_6058" data-name="Elipse 6058" cx="1.395" cy="1.395" r="1.395" fill="#b13e8d"/>
      </g>
    </g>
    <g id="Grupo_136792" data-name="Grupo 136792" transform="translate(27.174 56.439)">
      <g id="Grupo_136791" data-name="Grupo 136791">
        <path id="Trazado_195564" data-name="Trazado 195564" d="M191.964,331.482a9,9,0,1,0-10.444,0,12.842,12.842,0,0,0-7.6,11.712,1.395,1.395,0,0,0,2.79,0,10.036,10.036,0,0,1,20.072,0,1.395,1.395,0,1,0,2.79,0A12.845,12.845,0,0,0,191.964,331.482Zm-5.223-1.112a6.206,6.206,0,1,1,6.206-6.207A6.213,6.213,0,0,1,186.741,330.369Z" transform="translate(-173.915 -315.167)" fill="#b13e8d"/>
      </g>
    </g>
    <g id="Grupo_136794" data-name="Grupo 136794" transform="translate(36.049 60.913)">
      <g id="Grupo_136793" data-name="Grupo 136793">
        <circle id="Elipse_6059" data-name="Elipse 6059" cx="1.395" cy="1.395" r="1.395" fill="#b13e8d"/>
      </g>
    </g>
    <g id="Grupo_136796" data-name="Grupo 136796" transform="translate(41.163 60.913)">
      <g id="Grupo_136795" data-name="Grupo 136795">
        <circle id="Elipse_6060" data-name="Elipse 6060" cx="1.395" cy="1.395" r="1.395" fill="#b13e8d"/>
      </g>
    </g>
    <g id="Grupo_136798" data-name="Grupo 136798" transform="translate(0 56.439)">
      <g id="Grupo_136797" data-name="Grupo 136797">
        <path id="Trazado_195565" data-name="Trazado 195565" d="M18.047,331.482a9,9,0,1,0-10.444,0A12.844,12.844,0,0,0,0,343.194a1.395,1.395,0,0,0,2.79,0,10.036,10.036,0,1,1,20.072,0,1.395,1.395,0,0,0,2.79,0A12.843,12.843,0,0,0,18.047,331.482Zm-5.221-1.114a6.206,6.206,0,1,1,6.206-6.206A6.213,6.213,0,0,1,12.826,330.369Z" transform="translate(0 -315.166)" fill="#b13e8d"/>
      </g>
    </g>
    <g id="Grupo_136800" data-name="Grupo 136800" transform="translate(14.614 60.913)">
      <g id="Grupo_136799" data-name="Grupo 136799">
        <circle id="Elipse_6061" data-name="Elipse 6061" cx="1.395" cy="1.395" r="1.395" fill="#b13e8d"/>
      </g>
    </g>
    <g id="Grupo_136802" data-name="Grupo 136802" transform="translate(9.499 60.913)">
      <g id="Grupo_136801" data-name="Grupo 136801">
        <circle id="Elipse_6062" data-name="Elipse 6062" cx="1.395" cy="1.395" r="1.395" fill="#b13e8d"/>
      </g>
    </g>
  </g>
</svg>
