<svg xmlns="http://www.w3.org/2000/svg" width="80" height="80" viewBox="0 0 80 80">
  <g id="Outline" transform="translate(-2 -2)">
    <g id="Grupo_136803" data-name="Grupo 136803" transform="translate(2 2)">
      <path id="Trazado_195581" data-name="Trazado 195581" d="M33,39.345a1.333,1.333,0,0,0,0,2.667h5.334a1.333,1.333,0,0,0,1.333-1.333V34.011a5.334,5.334,0,0,0-4.147-5.187,6.667,6.667,0,1,0-10.374,0A5.334,5.334,0,0,0,21,34.011v6.667a1.333,1.333,0,1,0,2.667,0V34.011a2.667,2.667,0,0,1,2.667-2.667h8A2.667,2.667,0,0,1,37,34.011v5.334ZM30.334,20.677a4,4,0,1,1-4,4,4,4,0,0,1,4-4Z" transform="translate(4.334 3.324)" fill="#b13e8d"/>
      <circle id="Elipse_6063" data-name="Elipse 6063" cx="1.333" cy="1.333" r="1.333" transform="translate(5.334 5.334)" fill="#b13e8d"/>
      <circle id="Elipse_6064" data-name="Elipse 6064" cx="1.333" cy="1.333" r="1.333" transform="translate(10.667 5.334)" fill="#b13e8d"/>
      <circle id="Elipse_6065" data-name="Elipse 6065" cx="1.333" cy="1.333" r="1.333" transform="translate(16.001 5.334)" fill="#b13e8d"/>
      <path id="Trazado_195582" data-name="Trazado 195582" d="M23.333,6a1.333,1.333,0,0,0,0,2.667H42A1.333,1.333,0,0,0,42,6Z" transform="translate(4.668 -0.666)" fill="#b13e8d"/>
      <path id="Trazado_195583" data-name="Trazado 195583" d="M42.333,6a1.333,1.333,0,1,0,0,2.667H53A1.333,1.333,0,0,0,53,6Z" transform="translate(11.002 -0.666)" fill="#b13e8d"/>
      <path id="Trazado_195584" data-name="Trazado 195584" d="M12.333,46a1.333,1.333,0,1,0,0,2.667H25.667a1.333,1.333,0,1,0,0-2.667Z" transform="translate(1.001 12.669)" fill="#b13e8d"/>
      <path id="Trazado_195585" data-name="Trazado 195585" d="M25.667,50H12.333a1.333,1.333,0,0,0,0,2.667H25.667a1.333,1.333,0,0,0,0-2.667Z" transform="translate(1.001 14.003)" fill="#b13e8d"/>
      <path id="Trazado_195586" data-name="Trazado 195586" d="M56,15.333A1.333,1.333,0,0,0,54.667,14H49.333A1.333,1.333,0,0,0,48,15.333v5.334A1.333,1.333,0,0,0,49.333,22h5.334A1.333,1.333,0,0,0,56,20.667Zm-2.667,4H50.667V16.667h2.667Z" transform="translate(13.336 2.001)" fill="#b13e8d"/>
      <path id="Trazado_195587" data-name="Trazado 195587" d="M54.667,22H49.333a1.333,1.333,0,1,0,0,2.667h5.334a1.333,1.333,0,0,0,0-2.667Z" transform="translate(13.336 4.668)" fill="#b13e8d"/>
      <path id="Trazado_195588" data-name="Trazado 195588" d="M54,26H51.333a1.333,1.333,0,0,0,0,2.667H54A1.333,1.333,0,0,0,54,26Z" transform="translate(14.003 6.001)" fill="#b13e8d"/>
      <path id="Trazado_195589" data-name="Trazado 195589" d="M80.83,71.4,68.576,59.149a4,4,0,0,0-4.547-.773l-6.48-6.48a23.908,23.908,0,0,0-.573-28.561h2.36a1.333,1.333,0,1,0,0-2.667h-4.76a24,24,0,0,0-8.707-5.334H70a1.333,1.333,0,0,0,0-2.667H26v-8H74V61.123a1.333,1.333,0,1,0,2.667,0V3.333A1.333,1.333,0,0,0,75.337,2h-72A1.333,1.333,0,0,0,2,3.333v28a1.333,1.333,0,1,0,2.667,0v-16H30.188a24,24,0,0,0-7.04,3.827A1.334,1.334,0,0,0,24.8,21.254a21.334,21.334,0,0,1,27.508.947l-1.44,2.293a18.667,18.667,0,1,0,4.787,19.534,1.337,1.337,0,0,0-2.533-.853A15.894,15.894,0,0,1,38,54H36.668V48.669a1.333,1.333,0,1,0-2.667,0v4.814A15.867,15.867,0,0,1,22.521,42h.813a1.333,1.333,0,1,0,0-2.667H22.068c0-.44-.067-.88-.067-1.333A16,16,0,0,1,49.322,26.681l.107.133L46.2,31.961a1.336,1.336,0,1,0,2.267,1.413l2.747-4.387a16,16,0,0,1,2.773,9.334,1.333,1.333,0,1,0,2.667,0,18.587,18.587,0,0,0-3.92-11.827l1.48-2.387a21.334,21.334,0,1,1-32.961.64,1.334,1.334,0,0,0-2.093-1.653A24,24,0,0,0,14,39.335H8.667a1.333,1.333,0,0,0-1.333,1.333V71.336H4.667V36.668a1.333,1.333,0,1,0-2.667,0v36A1.333,1.333,0,0,0,3.333,74H58.456a1.333,1.333,0,0,0,0-2.667H36.668V62H38A23.828,23.828,0,0,0,51.9,57.549l6.48,6.48a4,4,0,0,0,.773,4.547L71.4,80.83a4,4,0,0,0,5.654,0l3.774-3.773a4,4,0,0,0,0-5.654ZM4.667,12.667v-8H23.334v8ZM34,71.336H10V42h4.36a24,24,0,0,0,2.867,8H15.334a1.333,1.333,0,0,0,0,2.667h3.693a27.228,27.228,0,0,0,2,2.307l.4.36H15.334a1.333,1.333,0,0,0,0,2.667h9.334A23.414,23.414,0,0,0,34,61.656ZM54.976,54.976c.32-.32.6-.667.893-.987L62,60.1,60.1,62,54,55.869C54.309,55.576,54.656,55.336,54.976,54.976Zm24,20.2L75.2,78.95a1.333,1.333,0,0,1-1.893,0L61.056,66.683a1.333,1.333,0,0,1,0-1.88l3.773-3.773a1.336,1.336,0,0,1,1.88,0L78.977,73.3a1.3,1.3,0,0,1-.027,1.88Z" transform="translate(-2 -2)" fill="#b13e8d"/>
    </g>
  </g>
</svg>
