<svg xmlns="http://www.w3.org/2000/svg" width="80" height="80" viewBox="0 0 80 80">
  <g id="roles" transform="translate(-2 -2)">
    <path id="Trazado_194448" data-name="Trazado 194448" d="M61.655,54.08a6.924,6.924,0,1,0-9.154,0A11.085,11.085,0,0,0,46,64.157v4.154A1.384,1.384,0,0,0,47.385,69.7H66.772a1.384,1.384,0,0,0,1.385-1.385V64.157A11.085,11.085,0,0,0,61.655,54.08Zm-8.731-5.156a4.154,4.154,0,1,1,4.154,4.154A4.16,4.16,0,0,1,52.924,48.924Zm12.463,18H48.77v-2.77a8.309,8.309,0,1,1,16.618,0Z" transform="translate(13.843 12.304)" fill="#b13e8d"/>
    <path id="Trazado_194449" data-name="Trazado 194449" d="M3.385,69.7H22.772a1.384,1.384,0,0,0,1.385-1.385V64.157a11.085,11.085,0,0,0-6.5-10.077,6.924,6.924,0,1,0-9.154,0A11.085,11.085,0,0,0,2,64.157v4.154A1.384,1.384,0,0,0,3.385,69.7ZM8.924,48.924a4.154,4.154,0,1,1,4.154,4.154A4.16,4.16,0,0,1,8.924,48.924ZM4.77,64.157a8.309,8.309,0,1,1,16.618,0v2.77H4.77Z" transform="translate(0 12.304)" fill="#b13e8d"/>
    <path id="Trazado_194450" data-name="Trazado 194450" d="M24,64.157v4.154A1.384,1.384,0,0,0,25.385,69.7H44.772a1.384,1.384,0,0,0,1.385-1.385V64.157a11.085,11.085,0,0,0-6.5-10.077,6.924,6.924,0,1,0-9.154,0A11.085,11.085,0,0,0,24,64.157Zm6.924-15.233a4.154,4.154,0,1,1,4.154,4.154A4.16,4.16,0,0,1,30.924,48.924Zm4.154,6.924a8.317,8.317,0,0,1,8.309,8.309v2.77H26.77v-2.77A8.317,8.317,0,0,1,35.079,55.848Z" transform="translate(6.921 12.304)" fill="#b13e8d"/>
    <path id="Trazado_194451" data-name="Trazado 194451" d="M35.463,8A12.463,12.463,0,1,0,47.927,20.463,12.478,12.478,0,0,0,35.463,8Zm0,22.157a9.694,9.694,0,1,1,9.694-9.694A9.705,9.705,0,0,1,35.463,30.157Z" transform="translate(6.537 2.309)" fill="#b13e8d"/>
    <path id="Trazado_194452" data-name="Trazado 194452" d="M54.174,28.311a1.336,1.336,0,0,0,1.282-1.385V18.618a1.336,1.336,0,0,0-1.282-1.385L52.057,17.2a18.517,18.517,0,0,0-1-2.6l1.492-1.611a1.464,1.464,0,0,0,0-1.958L47.106,5.148a1.214,1.214,0,0,0-1.813,0l-1.52,1.59a15.39,15.39,0,0,0-2.418-1.073V3.385A1.336,1.336,0,0,0,40.073,2H32.382A1.336,1.336,0,0,0,31.1,3.385l-.033,2.286a15.561,15.561,0,0,0-2.412,1.086L27.164,5.146a1.214,1.214,0,0,0-1.813,0l-5.439,5.874a1.464,1.464,0,0,0,0,1.958l1.472,1.644a18.421,18.421,0,0,0-.992,2.61h-2.11A1.336,1.336,0,0,0,17,18.618v8.309a1.336,1.336,0,0,0,1.282,1.385l2.116.037a18.386,18.386,0,0,0,1,2.6l-1.492,1.611a1.464,1.464,0,0,0,0,1.958L25.35,40.4a1.214,1.214,0,0,0,1.813,0l1.52-1.59A15.37,15.37,0,0,0,31.1,39.879V42.16a1.336,1.336,0,0,0,1.282,1.385h7.691a1.336,1.336,0,0,0,1.282-1.385l.033-2.286A15.494,15.494,0,0,0,43.8,38.788L45.29,40.4a1.214,1.214,0,0,0,1.813,0l5.439-5.874a1.464,1.464,0,0,0,0-1.958L51.07,30.92a18.061,18.061,0,0,0,.992-2.609Zm-4.556-.82a15.993,15.993,0,0,1-.832,2.174,2.958,2.958,0,0,0,.454,3.246l.585.631L46.2,37.46l-.586-.631a2.433,2.433,0,0,0-3.006-.489,13.265,13.265,0,0,1-2.013.9,2.776,2.776,0,0,0-1.8,2.642v.895H33.664V39.88a2.773,2.773,0,0,0-1.806-2.641,13.543,13.543,0,0,1-2.01-.9,2.43,2.43,0,0,0-3,.489l-.586.631-3.625-3.916.585-.631a2.962,2.962,0,0,0,.452-3.247,15.905,15.905,0,0,1-.832-2.173,2.612,2.612,0,0,0-2.446-1.953h-.828V20h.828a2.613,2.613,0,0,0,2.446-1.95,16.063,16.063,0,0,1,.832-2.174,2.955,2.955,0,0,0-.452-3.246L22.632,12l3.625-3.916.585.631a2.436,2.436,0,0,0,3.006.489,13.266,13.266,0,0,1,2.013-.9,2.776,2.776,0,0,0,1.8-2.642V4.77h5.127v.895A2.773,2.773,0,0,0,40.6,8.305a13.543,13.543,0,0,1,2.01.9,2.435,2.435,0,0,0,3.006-.489l.585-.631L49.823,12l-.585.634a2.958,2.958,0,0,0-.454,3.246,15.729,15.729,0,0,1,.832,2.174A2.615,2.615,0,0,0,52.064,20h.828v5.539h-.828a2.613,2.613,0,0,0-2.446,1.95Z" transform="translate(5.772 0)" fill="#b13e8d"/>
    <path id="Trazado_194453" data-name="Trazado 194453" d="M39.462,17.772l-8.309-5.539A1.385,1.385,0,0,0,29,13.385V24.463a1.385,1.385,0,0,0,2.153,1.152l8.309-5.539a1.385,1.385,0,0,0,0-2.3Zm-7.693,4.1v-5.9L36.2,18.924Z" transform="translate(8.786 3.23)" fill="#b13e8d"/>
    <path id="Trazado_194454" data-name="Trazado 194454" d="M31,38h2.77v2.77H31Z" transform="translate(9.615 11.936)" fill="#b13e8d"/>
    <path id="Trazado_194455" data-name="Trazado 194455" d="M31,34h2.77v2.77H31Z" transform="translate(9.615 10.61)" fill="#b13e8d"/>
    <path id="Trazado_194456" data-name="Trazado 194456" d="M13,16h2.77v2.77H13Z" transform="translate(3.647 4.642)" fill="#b13e8d"/>
    <path id="Trazado_194457" data-name="Trazado 194457" d="M9,16h2.77v2.77H9Z" transform="translate(2.694 4.642)" fill="#b13e8d"/>
    <path id="Trazado_194458" data-name="Trazado 194458" d="M9,20h2.77v2.77H9Z" transform="translate(2.694 5.968)" fill="#b13e8d"/>
    <path id="Trazado_194459" data-name="Trazado 194459" d="M9,24h2.77v2.77H9Z" transform="translate(2.694 7.294)" fill="#b13e8d"/>
    <path id="Trazado_194460" data-name="Trazado 194460" d="M9,28h2.77v2.77H9Z" transform="translate(2.694 8.621)" fill="#b13e8d"/>
    <path id="Trazado_194461" data-name="Trazado 194461" d="M9,32h2.77v2.77H9Z" transform="translate(2.694 9.947)" fill="#b13e8d"/>
    <path id="Trazado_194462" data-name="Trazado 194462" d="M9,36h2.77v2.77H9Z" transform="translate(2.694 11.273)" fill="#b13e8d"/>
    <path id="Trazado_194463" data-name="Trazado 194463" d="M49,16h2.77v2.77H49Z" transform="translate(15.583 4.642)" fill="#b13e8d"/>
    <path id="Trazado_194464" data-name="Trazado 194464" d="M53,16h2.77v2.77H53Z" transform="translate(16.537 4.642)" fill="#b13e8d"/>
    <path id="Trazado_194465" data-name="Trazado 194465" d="M53,20h2.77v2.77H53Z" transform="translate(16.537 5.968)" fill="#b13e8d"/>
    <path id="Trazado_194466" data-name="Trazado 194466" d="M53,24h2.77v2.77H53Z" transform="translate(16.537 7.294)" fill="#b13e8d"/>
    <path id="Trazado_194467" data-name="Trazado 194467" d="M53,28h2.77v2.77H53Z" transform="translate(16.537 8.621)" fill="#b13e8d"/>
    <path id="Trazado_194468" data-name="Trazado 194468" d="M53,32h2.77v2.77H53Z" transform="translate(16.537 9.947)" fill="#b13e8d"/>
    <path id="Trazado_194469" data-name="Trazado 194469" d="M53,36h2.77v2.77H53Z" transform="translate(16.537 11.273)" fill="#b13e8d"/>
  </g>
</svg>
