<svg xmlns="http://www.w3.org/2000/svg" xmlns:xlink="http://www.w3.org/1999/xlink" width="88" height="88" viewBox="0 0 88 88">
  <defs>
    <filter id="Trazado_188616" x="0" y="0" width="88" height="88" filterUnits="userSpaceOnUse">
      <feOffset dy="3" input="SourceAlpha"/>
      <feGaussianBlur stdDeviation="3" result="blur"/>
      <feFlood flood-opacity="0.161"/>
      <feComposite operator="in" in2="blur"/>
      <feComposite in="SourceGraphic"/>
    </filter>
  </defs>
  <g id="Grupo_128476" data-name="Grupo 128476" transform="translate(-1221.333 -118)">
    <g transform="matrix(1, 0, 0, 1, 1221.33, 118)" filter="url(#Trazado_188616)">
      <path id="Trazado_188616-2" data-name="Trazado 188616" d="M7.778,0H62.222A7.778,7.778,0,0,1,70,7.778V70H7.778A7.778,7.778,0,0,1,0,62.222V7.778A7.778,7.778,0,0,1,7.778,0Z" transform="translate(9 6)" fill="#f7ca18"/>
    </g>
    <g id="induccion_1_" data-name="induccion (1)" transform="translate(1237.943 131.935)">
      <path id="Trazado_195379" data-name="Trazado 195379" d="M220.076,185.922a3.614,3.614,0,1,0-5.057,0,4.557,4.557,0,0,0-2.03,3.791v3.5a1.9,1.9,0,0,0,1.9,1.9H220.2a1.9,1.9,0,0,0,1.9-1.9v-3.5a4.528,4.528,0,0,0-1.336-3.224A4.606,4.606,0,0,0,220.076,185.922Zm-2.53-4.077a1.5,1.5,0,1,1-1.5,1.5A1.5,1.5,0,0,1,217.546,181.846ZM219.988,193H215.1v-3.289a2.445,2.445,0,0,1,2.441-2.442h0a2.442,2.442,0,0,1,2.442,2.442V193Z" transform="translate(-190.146 -160.728)" fill="#6836bf"/>
      <path id="Trazado_195380" data-name="Trazado 195380" d="M52.843,43.925a5.4,5.4,0,0,0-1.083-.837,4.2,4.2,0,0,0-1.639-7.278V30.6a4.3,4.3,0,0,0-4.3-4.3H40.211c-.014-.215-.033-.429-.058-.644l2.749-1.1a1.058,1.058,0,0,0,.59-1.375l-1.7-4.258a1.058,1.058,0,0,0-1.375-.59l-2.749,1.1a12.645,12.645,0,0,0-2.3-2.361l1.168-2.722a1.058,1.058,0,0,0-.555-1.389L31.762,11.16a1.058,1.058,0,0,0-1.389.555l-1.168,2.723a12.689,12.689,0,0,0-3.3-.043l-1.1-2.749a1.058,1.058,0,0,0-1.375-.59l-4.258,1.7a1.058,1.058,0,0,0-.59,1.375l1.1,2.749a12.682,12.682,0,0,0-2.361,2.3L14.6,18.017a1.058,1.058,0,0,0-1.389.555l-1.808,4.214a1.058,1.058,0,0,0,.555,1.389l2.722,1.168c-.036.25-.063.5-.084.75H8.967a2.182,2.182,0,0,1-2.179-2.179V18.461H9a2.1,2.1,0,0,0,2.1-2.1V12.051a5.333,5.333,0,0,0-1.573-3.8,5.4,5.4,0,0,0-1.083-.837,4.206,4.206,0,1,0-5.421,0A5.37,5.37,0,0,0,.362,12.051v4.312a2.1,2.1,0,0,0,2.1,2.1H4.672v5.453a4.3,4.3,0,0,0,4.3,4.3H14.6q.018.216.043.431l-2.749,1.1a1.058,1.058,0,0,0-.59,1.375L13,35.371a1.058,1.058,0,0,0,1.375.59l2.749-1.1a12.648,12.648,0,0,0,2.3,2.361l-1.168,2.722a1.058,1.058,0,0,0,.555,1.389l4.213,1.808a1.058,1.058,0,0,0,1.389-.555l1.168-2.723a12.689,12.689,0,0,0,3.3.043l1.1,2.749a1.057,1.057,0,0,0,1.375.59l4.258-1.7a1.058,1.058,0,0,0,.59-1.375l-1.1-2.749a12.682,12.682,0,0,0,2.361-2.3l2.721,1.168a1.058,1.058,0,0,0,1.389-.555l1.808-4.214a1.058,1.058,0,0,0-.555-1.389l-2.722-1.168c.026-.179.046-.358.064-.537h5.651a2.182,2.182,0,0,1,2.179,2.18v5.2a4.2,4.2,0,0,0-1.666,7.289,5.37,5.37,0,0,0-2.659,4.631v.308a1.058,1.058,0,0,0,2.116,0v-.308a3.256,3.256,0,0,1,3.251-3.252h0A3.252,3.252,0,0,1,52.3,47.721v4.294H49.823a1.058,1.058,0,1,0,0,2.115h2.5a2.1,2.1,0,0,0,2.1-2.1V47.721a5.333,5.333,0,0,0-1.573-3.8ZM5.73,2.116a2.09,2.09,0,1,1-2.09,2.09A2.093,2.093,0,0,1,5.73,2.116ZM2.478,12.051A3.256,3.256,0,0,1,5.728,8.8h0a3.252,3.252,0,0,1,3.252,3.252v4.294h-6.5Zm38.549,19.6-.974,2.27-2.52-1.081a1.057,1.057,0,0,0-1.29.375,10.613,10.613,0,0,1-3,2.929,1.058,1.058,0,0,0-.407,1.28l1.018,2.546-2.293.916L30.54,38.342a1.057,1.057,0,0,0-1.178-.647,10.615,10.615,0,0,1-4.195-.053,1.057,1.057,0,0,0-1.193.618l-1.082,2.521-2.269-.974,1.082-2.522A1.058,1.058,0,0,0,21.331,36a10.576,10.576,0,0,1-2.928-3,1.058,1.058,0,0,0-1.281-.408L14.576,33.6l-.917-2.293,2.546-1.018a1.058,1.058,0,0,0,.647-1.177,10.6,10.6,0,0,1,.053-4.192,1.058,1.058,0,0,0-.617-1.193l-2.521-1.082.974-2.27,2.52,1.081a1.057,1.057,0,0,0,1.29-.375,10.614,10.614,0,0,1,3-2.929,1.058,1.058,0,0,0,.407-1.28L20.943,14.33l2.293-.916,1.018,2.546a1.058,1.058,0,0,0,1.178.647,10.613,10.613,0,0,1,4.195.053,1.057,1.057,0,0,0,1.193-.618L31.9,13.521l2.269.974-1.082,2.522a1.058,1.058,0,0,0,.375,1.29,10.578,10.578,0,0,1,2.928,3,1.058,1.058,0,0,0,1.281.408L40.218,20.7l.917,2.293-2.546,1.018a1.058,1.058,0,0,0-.647,1.177,10.6,10.6,0,0,1-.053,4.192,1.058,1.058,0,0,0,.617,1.193Zm8.022,6.132a2.09,2.09,0,1,1-2.09,2.09A2.093,2.093,0,0,1,49.049,37.786Z" transform="translate(0 0)" fill="#6836bf"/>
      <circle id="Elipse_5417" data-name="Elipse 5417" cx="1.056" cy="1.056" r="1.056" transform="translate(43.998 52.017)" fill="#6836bf"/>
    </g>
  </g>
</svg>
