<svg xmlns="http://www.w3.org/2000/svg" xmlns:xlink="http://www.w3.org/1999/xlink" width="88" height="88" viewBox="0 0 88 88">
  <defs>
    <filter id="Rect치ngulo_40821" x="0" y="0" width="88" height="88" filterUnits="userSpaceOnUse">
      <feOffset dy="3" input="SourceAlpha"/>
      <feGaussianBlur stdDeviation="3" result="blur"/>
      <feFlood flood-opacity="0.161"/>
      <feComposite operator="in" in2="blur"/>
      <feComposite in="SourceGraphic"/>
    </filter>
  </defs>
  <g id="Grupo_128460" data-name="Grupo 128460" transform="translate(-906.333 -236)">
    <g id="Grupo_135807" data-name="Grupo 135807">
      <g transform="matrix(1, 0, 0, 1, 906.33, 236)" filter="url(#Rect치ngulo_40821)">
        <path id="Rect치ngulo_40821-2" data-name="Rect치ngulo 40821" d="M10,0H60A10,10,0,0,1,70,10V70a0,0,0,0,1,0,0H10A10,10,0,0,1,0,60V10A10,10,0,0,1,10,0Z" transform="translate(9 6)" fill="#7fc733"/>
      </g>
      <g id="capacitacion" transform="translate(926.952 247.386)">
        <g id="Grupo_136605" data-name="Grupo 136605" transform="translate(0 4.129)">
          <path id="Trazado_195362" data-name="Trazado 195362" d="M66.065,202.323h1.627v7.323H66.065Z" transform="translate(-59.556 -182.795)" fill="#12263f"/>
          <path id="Trazado_195363" data-name="Trazado 195363" d="M78.515,5.756H47a5.135,5.135,0,0,0-3.749-1.627H38.917A5.144,5.144,0,0,0,34.3,11.567a2.428,2.428,0,0,0,1.9,3.954h.814a3.235,3.235,0,0,0,.953,2.3,3.277,3.277,0,0,0,.675.5V19.7l-.812.116a5.721,5.721,0,0,0-4.893,5.652l.009,5.518,1.627,0-.009-5.518a4.085,4.085,0,0,1,3.494-4.037l1.109-.158,1.915,1.915,1.906-1.906,2.926.487A4.042,4.042,0,0,1,48.126,22.9L49.7,24.471h3.592V26.1h-2.17a7.366,7.366,0,0,1-4.394-1.465l-.759-.569V22.844H44.341V30.98h1.627v-4.9a9,9,0,0,0,5.153,1.641h4.592a2.439,2.439,0,0,0,2.019-3.81l2.828-3.888a4.012,4.012,0,0,0,1.681.374,4.106,4.106,0,1,0-2.993-1.336l-2.831,3.893a2.43,2.43,0,0,0-.7-.116h-5.34l-1.1-1.1a5.667,5.667,0,0,0-3.09-1.591l-2.659-.443V18.326a3.274,3.274,0,0,0,.675-.5,3.234,3.234,0,0,0,.953-2.3h.814a2.427,2.427,0,0,0,1.9-3.953,5.077,5.077,0,0,0,.349-.929H76.888V31.794h1.627V10.638a1.629,1.629,0,0,0,1.627-1.627V7.384a1.629,1.629,0,0,0-1.627-1.627ZM62.242,13.893A2.441,2.441,0,1,1,59.8,16.334,2.444,2.444,0,0,1,62.242,13.893ZM56.528,25.284a.815.815,0,0,1-.814.814h-.795V24.471h.795a.815.815,0,0,1,.814.814ZM35.391,13.079a.815.815,0,0,1,.814-.814h.814v1.627H36.2a.815.815,0,0,1-.814-.814ZM41.9,17.148H40.273a1.627,1.627,0,0,1-1.627-1.627V12.2a4.707,4.707,0,0,0,2.441-1.224,4.7,4.7,0,0,0,2.44,1.224V15.52A1.629,1.629,0,0,1,41.9,17.148Zm-1.627,2.918v-1.29H41.9v1.29l-.814.814ZM42.139,9.726,41.087,8.674,40.034,9.726a3.1,3.1,0,0,1-2.2.912H36.2a2.407,2.407,0,0,0-.512.056,3.513,3.513,0,0,1,3.224-4.938h4.339a3.513,3.513,0,0,1,3.225,4.937,2.466,2.466,0,0,0-.512-.055H44.34a3.093,3.093,0,0,1-2.2-.912Zm3.83,4.167h-.814V12.266h.814a.814.814,0,0,1,0,1.627ZM78.515,9.011H48.4a5.109,5.109,0,0,0-.353-1.627H78.515Z" transform="translate(-29.695 -4.129)" fill="#12263f"/>
          <path id="Trazado_195364" data-name="Trazado 195364" d="M354.161,433.548a7.331,7.331,0,0,0-7.323,7.323h1.627a5.7,5.7,0,0,1,11.391,0h1.627A7.332,7.332,0,0,0,354.161,433.548Z" transform="translate(-312.664 -391.237)" fill="#12263f"/>
          <path id="Trazado_195365" data-name="Trazado 195365" d="M189,433.548a7.331,7.331,0,0,0-7.323,7.323H183.3a5.7,5.7,0,0,1,11.391,0h1.627A7.332,7.332,0,0,0,189,433.548Z" transform="translate(-163.776 -391.237)" fill="#12263f"/>
          <path id="Trazado_195366" data-name="Trazado 195366" d="M23.839,433.548a7.331,7.331,0,0,0-7.323,7.323h1.627a5.7,5.7,0,0,1,11.391,0h1.627A7.332,7.332,0,0,0,23.839,433.548Z" transform="translate(-14.889 -391.237)" fill="#12263f"/>
          <path id="Trazado_195367" data-name="Trazado 195367" d="M5.7,360.853a4.073,4.073,0,0,1,4.068,4.068h1.627a5.7,5.7,0,0,0-11.391,0H1.627A4.074,4.074,0,0,1,5.7,360.853Z" transform="translate(0 -324.238)" fill="#12263f"/>
          <path id="Trazado_195368" data-name="Trazado 195368" d="M132.129,364.922h1.627a4.068,4.068,0,0,1,8.137,0h1.627a5.7,5.7,0,0,0-11.391,0Z" transform="translate(-119.11 -324.238)" fill="#12263f"/>
          <path id="Trazado_195369" data-name="Trazado 195369" d="M264.258,364.922h1.627a4.068,4.068,0,1,1,8.137,0h1.627a5.7,5.7,0,1,0-11.391,0Z" transform="translate(-238.221 -324.238)" fill="#12263f"/>
          <path id="Trazado_195370" data-name="Trazado 195370" d="M402.084,359.226a5.7,5.7,0,0,0-5.7,5.7h1.627a4.068,4.068,0,1,1,8.137,0h1.627A5.7,5.7,0,0,0,402.084,359.226Z" transform="translate(-357.332 -324.238)" fill="#12263f"/>
          <path id="Trazado_195371" data-name="Trazado 195371" d="M67.692,290.6a4.068,4.068,0,1,1,8.137,0h1.627a5.7,5.7,0,1,0-11.391,0Z" transform="translate(-59.556 -257.239)" fill="#12263f"/>
          <path id="Trazado_195372" data-name="Trazado 195372" d="M203.89,284.9a5.7,5.7,0,0,0-5.7,5.7h1.627a4.068,4.068,0,0,1,8.137,0h1.627A5.7,5.7,0,0,0,203.89,284.9Z" transform="translate(-178.666 -257.238)" fill="#12263f"/>
          <path id="Trazado_195373" data-name="Trazado 195373" d="M331.95,290.6a4.068,4.068,0,1,1,8.137,0h1.627a5.7,5.7,0,1,0-11.391,0Z" transform="translate(-297.776 -257.239)" fill="#12263f"/>
          <path id="Trazado_195374" data-name="Trazado 195374" d="M445.935,251.871h1.627V253.5h-1.627Z" transform="translate(-401.997 -227.461)" fill="#12263f"/>
          <path id="Trazado_195375" data-name="Trazado 195375" d="M346.839,251.871h8.137V253.5h-8.137Z" transform="translate(-312.665 -227.461)" fill="#12263f"/>
          <path id="Trazado_195376" data-name="Trazado 195376" d="M346.839,218.839H358.23v1.627H346.839Z" transform="translate(-312.665 -197.684)" fill="#12263f"/>
          <path id="Trazado_195377" data-name="Trazado 195377" d="M346.839,185.806H358.23v1.627H346.839Z" transform="translate(-312.665 -167.905)" fill="#12263f"/>
          <path id="Trazado_195378" data-name="Trazado 195378" d="M379.871,152.774h8.137V154.4h-8.137Z" transform="translate(-342.442 -138.128)" fill="#12263f"/>
        </g>
      </g>
    </g>
  </g>
</svg>
