<svg xmlns="http://www.w3.org/2000/svg" xmlns:xlink="http://www.w3.org/1999/xlink" width="88" height="88" viewBox="0 0 88 88">
  <defs>
    <filter id="Rect치ngulo_40719" x="0" y="0" width="88" height="88" filterUnits="userSpaceOnUse">
      <feOffset dy="3" input="SourceAlpha"/>
      <feGaussianBlur stdDeviation="3" result="blur"/>
      <feFlood flood-opacity="0.161"/>
      <feComposite operator="in" in2="blur"/>
      <feComposite in="SourceGraphic"/>
    </filter>
    <clipPath id="clip-path">
      <path id="path4315" d="M0-682.665H53.587v53.587H0Z" transform="translate(0 682.665)"/>
    </clipPath>
  </defs>
  <g id="Grupo_128459" data-name="Grupo 128459" transform="translate(-225 -909)">
    <g transform="matrix(1, 0, 0, 1, 225, 909)" filter="url(#Rect치ngulo_40719)">
      <path id="Rect치ngulo_40719-2" data-name="Rect치ngulo 40719" d="M10,0H60A10,10,0,0,1,70,10V70a0,0,0,0,1,0,0H10A10,10,0,0,1,0,60V10A10,10,0,0,1,10,0Z" transform="translate(9 6)" fill="#b13e8d"/>
    </g>
    <g id="g4257" transform="translate(243.715 1607.204)">
      <g id="g4259" transform="translate(13.42 -676.653)">
        <path id="path4261" d="M-239.369-43.362h-15.75m-4.64-3.694h25.03" transform="translate(259.759 47.056)" fill="rgba(0,0,0,0)" stroke="#fff" stroke-linecap="round" stroke-linejoin="round" stroke-miterlimit="10" stroke-width="2"/>
      </g>
      <g id="g4263" transform="translate(13.419 -668.63)">
        <path id="path4265" d="M0-32.286l1.964,1.664,3.7-4.415" transform="translate(0 35.036)" fill="rgba(0,0,0,0)" stroke="#fff" stroke-linecap="round" stroke-linejoin="round" stroke-miterlimit="10" stroke-width="2"/>
      </g>
      <g id="g4267" transform="translate(13.419 -661.139)">
        <path id="path4269" d="M0-32.286l1.964,1.664,3.7-4.415" transform="translate(0 35.036)" fill="rgba(0,0,0,0)" stroke="#fff" stroke-linecap="round" stroke-linejoin="round" stroke-miterlimit="10" stroke-width="2"/>
      </g>
      <g id="g4271" transform="translate(13.419 -653.648)">
        <path id="path4273" d="M0-32.286l1.964,1.664,3.7-4.415" transform="translate(0 35.036)" fill="rgba(0,0,0,0)" stroke="#fff" stroke-linecap="round" stroke-linejoin="round" stroke-miterlimit="10" stroke-width="2"/>
      </g>
      <g id="g4275" transform="translate(13.419 -646.16)">
        <path id="path4277" d="M0-32.286l1.964,1.667,3.7-4.418" transform="translate(0 35.036)" fill="rgba(0,0,0,0)" stroke="#fff" stroke-linecap="round" stroke-linejoin="round" stroke-miterlimit="10" stroke-width="2"/>
      </g>
      <g id="g4279" transform="translate(23.124 -664.575)">
        <path id="path4281" d="M-104.97,0h-8.942" transform="translate(113.912)" fill="rgba(0,0,0,0)" stroke="#fff" stroke-linecap="round" stroke-linejoin="round" stroke-miterlimit="10" stroke-width="2"/>
      </g>
      <g id="g4283" transform="translate(23.124 -668.271)">
        <path id="path4285" d="M-70.142,0h9.283M-76.117,0h2.264" transform="translate(76.117)" fill="rgba(0,0,0,0)" stroke="#fff" stroke-linecap="round" stroke-linejoin="round" stroke-miterlimit="10" stroke-width="2"/>
      </g>
      <g id="g4287" transform="translate(23.124 -657.083)">
        <path id="path4289" d="M-104.97,0h-8.942" transform="translate(113.912)" fill="rgba(0,0,0,0)" stroke="#fff" stroke-linecap="round" stroke-linejoin="round" stroke-miterlimit="10" stroke-width="2"/>
      </g>
      <g id="g4291" transform="translate(23.124 -653.289)">
        <path id="path4293" d="M0,0H15.258" fill="rgba(0,0,0,0)" stroke="#fff" stroke-linecap="round" stroke-linejoin="round" stroke-miterlimit="10" stroke-width="2"/>
      </g>
      <g id="g4295" transform="translate(23.124 -642.101)">
        <path id="path4297" d="M-82.472,0H-89.5" transform="translate(89.497)" fill="rgba(0,0,0,0)" stroke="#fff" stroke-linecap="round" stroke-linejoin="round" stroke-miterlimit="10" stroke-width="2"/>
      </g>
      <g id="g4299" transform="translate(23.124 -660.78)">
        <path id="path4301" d="M-109.01,0H-118.3m15.258,0H-105.3" transform="translate(118.296)" fill="rgba(0,0,0,0)" stroke="#fff" stroke-linecap="round" stroke-linejoin="round" stroke-miterlimit="10" stroke-width="2"/>
      </g>
      <g id="g4303" transform="translate(23.124 -649.592)">
        <path id="path4305" d="M-21.94,0h-1.869m8.942,0h-4.29" transform="translate(23.809)" fill="rgba(0,0,0,0)" stroke="#fff" stroke-linecap="round" stroke-linejoin="round" stroke-miterlimit="10" stroke-width="2"/>
      </g>
      <g id="g4307" transform="translate(23.124 -645.798)">
        <path id="path4309" d="M-120.468,0H-130.73" transform="translate(130.73)" fill="rgba(0,0,0,0)" stroke="#fff" stroke-linecap="round" stroke-linejoin="round" stroke-miterlimit="10" stroke-width="2"/>
      </g>
      <g id="g4311" transform="translate(0 -682.665)">
        <g id="g4313" clip-path="url(#clip-path)">
          <g id="g4319" transform="translate(8.548 0.785)">
            <path id="path4321" d="M-408.214-239.515v17.157m-8.823,7.806h-24.855a1.1,1.1,0,0,1-1.095-1.1v-43.173a1.1,1.1,0,0,1,1.095-1.095h32.584a1.1,1.1,0,0,1,1.095,1.095v15.685" transform="translate(442.987 259.918)" fill="rgba(0,0,0,0)" stroke="#fff" stroke-linecap="round" stroke-linejoin="round" stroke-miterlimit="10" stroke-width="2"/>
          </g>
          <g id="g4323" transform="translate(4.499 4.835)">
            <path id="path4325" d="M0-278.453v-22.625a1.1,1.1,0,0,1,1.095-1.095H4.05m27.229,45.365H1.095A1.1,1.1,0,0,1,0-257.9v-16.923" transform="translate(0 302.173)" fill="rgba(0,0,0,0)" stroke="#fff" stroke-linecap="round" stroke-linejoin="round" stroke-miterlimit="10" stroke-width="2"/>
          </g>
          <g id="g4327" transform="translate(39.488 43.574)">
            <path id="path4329" d="M0-26.853l1.572,1.388L4.533-29.14" transform="translate(0 29.14)" fill="rgba(0,0,0,0)" stroke="#fff" stroke-linecap="round" stroke-linejoin="round" stroke-miterlimit="10" stroke-width="2"/>
          </g>
          <g id="g4331" transform="translate(34.468 38.182)">
            <path id="path4333" d="M-171.63-85.818a7.315,7.315,0,0,0-5.767-7.147,7.332,7.332,0,0,0-1.543-.163,7.309,7.309,0,0,0-7.31,7.31c0,.223.009.442.03.659a7.274,7.274,0,0,0,1.688,4.05,7.3,7.3,0,0,0,5.592,2.6A7.31,7.31,0,0,0-171.63-85.818Z" transform="translate(186.25 93.128)" fill="rgba(0,0,0,0)" stroke="#fff" stroke-linecap="round" stroke-linejoin="round" stroke-miterlimit="10" stroke-width="2"/>
          </g>
        </g>
      </g>
    </g>
  </g>
</svg>
