<svg xmlns="http://www.w3.org/2000/svg" xmlns:xlink="http://www.w3.org/1999/xlink" width="190" height="112" viewBox="0 0 190 112">
  <defs>
    <linearGradient id="linear-gradient" x1="0.5" x2="0.5" y2="1" gradientUnits="objectBoundingBox">
      <stop offset="0" stop-color="#f7ca2e" stop-opacity="0"/>
      <stop offset="0.091" stop-color="#f7ca2e" stop-opacity="0.129"/>
      <stop offset="0.283" stop-color="#f7ca2e" stop-opacity="0.388"/>
      <stop offset="0.465" stop-color="#f7ca2e" stop-opacity="0.612"/>
      <stop offset="0.633" stop-color="#f7ca2e" stop-opacity="0.78"/>
      <stop offset="0.784" stop-color="#f7ca2e" stop-opacity="0.902"/>
      <stop offset="0.911" stop-color="#f7ca2e" stop-opacity="0.969"/>
      <stop offset="1" stop-color="#f7ca2e"/>
    </linearGradient>
    <linearGradient id="linear-gradient-2" x1="0.5" x2="0.5" y2="1" gradientUnits="objectBoundingBox">
      <stop offset="0" stop-color="#b13e8d" stop-opacity="0"/>
      <stop offset="0.091" stop-color="#b13e8d" stop-opacity="0.129"/>
      <stop offset="0.283" stop-color="#b13e8d" stop-opacity="0.388"/>
      <stop offset="0.465" stop-color="#b13e8d" stop-opacity="0.612"/>
      <stop offset="0.633" stop-color="#b13e8d" stop-opacity="0.78"/>
      <stop offset="0.784" stop-color="#b13e8d"/>
      <stop offset="0.911" stop-color="#b13e8d" stop-opacity="0.969"/>
      <stop offset="1" stop-color="#b13e8d"/>
    </linearGradient>
    <filter id="Rectángulo_40720" x="41" y="4" width="108" height="108" filterUnits="userSpaceOnUse">
      <feOffset dy="3" input="SourceAlpha"/>
      <feGaussianBlur stdDeviation="3" result="blur"/>
      <feFlood flood-opacity="0.161"/>
      <feComposite operator="in" in2="blur"/>
      <feComposite in="SourceGraphic"/>
    </filter>
    <clipPath id="clip-path">
      <path id="path5757" d="M0-682.665H62.86v62.86H0Z" transform="translate(0 682.665)"/>
    </clipPath>
  </defs>
  <g id="Grupo_136182" data-name="Grupo 136182" transform="translate(-180 -1627)">
    <g id="Grupo_128321" data-name="Grupo 128321" transform="translate(0 1228)">
      <rect id="Rectángulo_40586" data-name="Rectángulo 40586" width="190" height="20" transform="translate(180 444)" fill="none"/>
      <g id="Grupo_108405" data-name="Grupo 108405" transform="translate(209.5 463)">
        <path id="Rectángulo_5242" data-name="Rectángulo 5242" d="M0,0H12a0,0,0,0,1,0,0V43.333a3,3,0,0,1-3,3H3a3,3,0,0,1-3-3V0A0,0,0,0,1,0,0Z" transform="translate(0 0)" fill="url(#linear-gradient)"/>
      </g>
      <g id="Grupo_108406" data-name="Grupo 108406" transform="translate(340 451) rotate(180)">
        <path id="Rectángulo_5242-2" data-name="Rectángulo 5242" d="M0,0H12a0,0,0,0,1,0,0V49a3,3,0,0,1-3,3H3a3,3,0,0,1-3-3V0A0,0,0,0,1,0,0Z" transform="translate(0 0)" fill="url(#linear-gradient-2)"/>
      </g>
      <g transform="matrix(1, 0, 0, 1, 180, 399)" filter="url(#Rectángulo_40720)">
        <path id="Rectángulo_40720-2" data-name="Rectángulo 40720" d="M10,0H80A10,10,0,0,1,90,10V90a0,0,0,0,1,0,0H10A10,10,0,0,1,0,80V10A10,10,0,0,1,10,0Z" transform="translate(50 10)" fill="#f6f6f6"/>
      </g>
    </g>
    <g id="g5751" transform="translate(243.57 2333.402)">
      <g id="g5753" transform="translate(0 -682.665)">
        <g id="g5755" clip-path="url(#clip-path)">
          <g id="g5761" transform="translate(6.667 40.042)">
            <path id="path5763" d="M-45.368-103.917h0a4.6,4.6,0,0,1-4.6-4.6v-1.337a4.6,4.6,0,0,1,4.6-4.6,4.6,4.6,0,0,1,4.6,4.6v1.337A4.6,4.6,0,0,1-45.368-103.917Z" transform="translate(49.969 114.456)" fill="rgba(0,0,0,0)" stroke="#683cbc" stroke-linecap="round" stroke-linejoin="round" stroke-miterlimit="10" stroke-width="2"/>
          </g>
          <g id="g5765" transform="translate(1.212 50.581)">
            <path id="path5767" d="M-135.738,0h-7.421A6.346,6.346,0,0,0-149.5,6.346v4.706h20.112V6.346A6.346,6.346,0,0,0-135.738,0Z" transform="translate(149.505)" fill="rgba(0,0,0,0)" stroke="#683cbc" stroke-linecap="round" stroke-linejoin="round" stroke-miterlimit="10" stroke-width="2"/>
          </g>
          <g id="g5769" transform="translate(26.779 40.042)">
            <path id="path5771" d="M-45.368-103.917h0a4.6,4.6,0,0,1-4.6-4.6v-1.337a4.6,4.6,0,0,1,4.6-4.6,4.6,4.6,0,0,1,4.6,4.6v1.337A4.6,4.6,0,0,1-45.368-103.917Z" transform="translate(49.969 114.456)" fill="rgba(0,0,0,0)" stroke="#683cbc" stroke-linecap="round" stroke-linejoin="round" stroke-miterlimit="10" stroke-width="2"/>
          </g>
          <g id="g5773" transform="translate(21.324 50.581)">
            <path id="path5775" d="M-154.118-108.966h4.482v-4.706a6.346,6.346,0,0,0-6.346-6.346H-163.4a6.346,6.346,0,0,0-6.346,6.346v4.706h4.581" transform="translate(169.749 120.017)" fill="rgba(0,0,0,0)" stroke="#683cbc" stroke-linecap="round" stroke-linejoin="round" stroke-miterlimit="10" stroke-width="2"/>
          </g>
          <g id="g5777" transform="translate(46.891 40.042)">
            <path id="path5779" d="M-45.368-103.917h0a4.6,4.6,0,0,1-4.6-4.6v-1.337a4.6,4.6,0,0,1,4.6-4.6,4.6,4.6,0,0,1,4.6,4.6v1.337A4.6,4.6,0,0,1-45.368-103.917Z" transform="translate(49.969 114.456)" fill="rgba(0,0,0,0)" stroke="#683cbc" stroke-linecap="round" stroke-linejoin="round" stroke-miterlimit="10" stroke-width="2"/>
          </g>
          <g id="g5781" transform="translate(41.437 50.581)">
            <path id="path5783" d="M-135.738,0h-7.421A6.346,6.346,0,0,0-149.5,6.346v4.706h20.112V6.346A6.346,6.346,0,0,0-135.738,0Z" transform="translate(149.505)" fill="rgba(0,0,0,0)" stroke="#683cbc" stroke-linecap="round" stroke-linejoin="round" stroke-miterlimit="10" stroke-width="2"/>
          </g>
          <g id="g5785" transform="translate(5.32 1.228)">
            <path id="path5787" d="M-289.477-125.157a13.679,13.679,0,0,0-1.571-3.791l1.874-1.874-4.682-4.682-1.874,1.874a13.681,13.681,0,0,0-3.791-1.571v-2.65h-6.622v2.65a13.678,13.678,0,0,0-3.791,1.571l-1.874-1.874-4.682,4.682,1.874,1.874a13.675,13.675,0,0,0-1.571,3.791h-2.65v6.622h2.65a13.674,13.674,0,0,0,1.571,3.791l-1.874,1.874,4.682,4.682,1.874-1.874a13.662,13.662,0,0,0,3.791,1.571v2.65h6.622v-2.65a13.666,13.666,0,0,0,3.791-1.571l1.874,1.874,4.682-4.682-1.874-1.874a13.678,13.678,0,0,0,1.571-3.791" transform="translate(318.835 137.85)" fill="rgba(0,0,0,0)" stroke="#683cbc" stroke-linecap="round" stroke-linejoin="round" stroke-miterlimit="10" stroke-width="2"/>
          </g>
          <g id="g5789" transform="translate(14.273 10.181)">
            <path id="path5791" d="M-135.194-46.646a7.054,7.054,0,0,0-6.66-4.731,7.051,7.051,0,0,0-7.051,7.051,7.051,7.051,0,0,0,7.051,7.051,7.054,7.054,0,0,0,6.647-4.692" transform="translate(148.905 51.377)" fill="rgba(0,0,0,0)" stroke="#683cbc" stroke-linecap="round" stroke-linejoin="round" stroke-miterlimit="10" stroke-width="2"/>
          </g>
          <g id="g5793" transform="translate(44.232 1.448)">
            <path id="path5795" d="M-53.81-123.255h0a5.457,5.457,0,0,1-5.457-5.457V-130.3a5.457,5.457,0,0,1,5.457-5.457h0a5.457,5.457,0,0,1,5.457,5.457v1.586A5.457,5.457,0,0,1-53.81-123.255Z" transform="translate(59.268 135.756)" fill="rgba(0,0,0,0)" stroke="#683cbc" stroke-linecap="round" stroke-linejoin="round" stroke-miterlimit="10" stroke-width="2"/>
          </g>
          <g id="g5797" transform="translate(55.71 22.308)">
            <path id="path5799" d="M0-60.794V-66.96" transform="translate(0 66.96)" fill="rgba(0,0,0,0)" stroke="#683cbc" stroke-linecap="round" stroke-linejoin="round" stroke-miterlimit="10" stroke-width="2"/>
          </g>
          <g id="g5801" transform="translate(27.164 13.948)">
            <path id="path5803" d="M-265.5,0h-23.643a3.284,3.284,0,0,0-3.284,3.284,3.284,3.284,0,0,0,3.284,3.284H-277.6v8.054h19.63v-7.1A7.527,7.527,0,0,0-265.5,0Z" transform="translate(292.426)" fill="rgba(0,0,0,0)" stroke="#683cbc" stroke-linecap="round" stroke-linejoin="round" stroke-miterlimit="10" stroke-width="2"/>
          </g>
          <g id="g5805" transform="translate(31.43 61.633)">
            <path id="path5807" d="M0,0H0" fill="rgba(0,0,0,0)" stroke="#683cbc" stroke-linecap="round" stroke-linejoin="round" stroke-miterlimit="10" stroke-width="2"/>
          </g>
        </g>
      </g>
    </g>
  </g>
</svg>
