<svg xmlns="http://www.w3.org/2000/svg" xmlns:xlink="http://www.w3.org/1999/xlink" width="190" height="112" viewBox="0 0 190 112">
  <defs>
    <linearGradient id="linear-gradient" x1="0.5" x2="0.5" y2="1" gradientUnits="objectBoundingBox">
      <stop offset="0" stop-color="#f7ca2e" stop-opacity="0"/>
      <stop offset="0.091" stop-color="#f7ca2e" stop-opacity="0.129"/>
      <stop offset="0.283" stop-color="#f7ca2e" stop-opacity="0.388"/>
      <stop offset="0.465" stop-color="#f7ca2e" stop-opacity="0.612"/>
      <stop offset="0.633" stop-color="#f7ca2e" stop-opacity="0.78"/>
      <stop offset="0.784" stop-color="#f7ca2e" stop-opacity="0.902"/>
      <stop offset="0.911" stop-color="#f7ca2e" stop-opacity="0.969"/>
      <stop offset="1" stop-color="#f7ca2e"/>
    </linearGradient>
    <linearGradient id="linear-gradient-2" x1="0.5" x2="0.5" y2="1" gradientUnits="objectBoundingBox">
      <stop offset="0" stop-color="#b13e8d" stop-opacity="0"/>
      <stop offset="0.091" stop-color="#b13e8d" stop-opacity="0.129"/>
      <stop offset="0.283" stop-color="#b13e8d" stop-opacity="0.388"/>
      <stop offset="0.465" stop-color="#b13e8d" stop-opacity="0.612"/>
      <stop offset="0.633" stop-color="#b13e8d" stop-opacity="0.78"/>
      <stop offset="0.784" stop-color="#b13e8d"/>
      <stop offset="0.911" stop-color="#b13e8d" stop-opacity="0.969"/>
      <stop offset="1" stop-color="#b13e8d"/>
    </linearGradient>
    <filter id="Trazado_195394" x="41" y="4" width="108" height="108" filterUnits="userSpaceOnUse">
      <feOffset dy="3" input="SourceAlpha"/>
      <feGaussianBlur stdDeviation="3" result="blur"/>
      <feFlood flood-opacity="0.161"/>
      <feComposite operator="in" in2="blur"/>
      <feComposite in="SourceGraphic"/>
    </filter>
  </defs>
  <g id="Grupo_136642" data-name="Grupo 136642" transform="translate(-180 -1627)">
    <g id="Grupo_128321" data-name="Grupo 128321" transform="translate(0 1228)">
      <rect id="Rectángulo_40586" data-name="Rectángulo 40586" width="190" height="20" transform="translate(180 444)" fill="none"/>
      <g id="Grupo_108405" data-name="Grupo 108405" transform="translate(209.5 463)">
        <path id="Rectángulo_5242" data-name="Rectángulo 5242" d="M0,0H12a0,0,0,0,1,0,0V43.333a3,3,0,0,1-3,3H3a3,3,0,0,1-3-3V0A0,0,0,0,1,0,0Z" transform="translate(0 0)" fill="url(#linear-gradient)"/>
      </g>
      <g id="Grupo_108406" data-name="Grupo 108406" transform="translate(340 451) rotate(180)">
        <path id="Rectángulo_5242-2" data-name="Rectángulo 5242" d="M0,0H12a0,0,0,0,1,0,0V49a3,3,0,0,1-3,3H3a3,3,0,0,1-3-3V0A0,0,0,0,1,0,0Z" transform="translate(0 0)" fill="url(#linear-gradient-2)"/>
      </g>
      <g transform="matrix(1, 0, 0, 1, 180, 399)" filter="url(#Trazado_195394)">
        <path id="Trazado_195394-2" data-name="Trazado 195394" d="M10,0H80A10,10,0,0,1,90,10V90H10A10,10,0,0,1,0,80V10A10,10,0,0,1,10,0Z" transform="translate(50 10)" fill="#f6f6f6"/>
      </g>
      <g id="ajuste" transform="translate(224.294 403.294)">
        <path id="Trazado_195404" data-name="Trazado 195404" d="M27.6,177.915a22.957,22.957,0,0,0,4.242,12.238l1.885-1.341a20.656,20.656,0,0,1-3.811-10.9H32.2V175.6H29.916a20.656,20.656,0,0,1,3.81-10.9l-1.885-1.341A22.957,22.957,0,0,0,27.6,175.6H25.111a4.627,4.627,0,1,0,0,2.314Zm-6.969,1.157a2.313,2.313,0,1,1,2.314-2.313A2.313,2.313,0,0,1,20.631,179.071Z" transform="translate(0 -126.052)" fill="#6836bf"/>
        <path id="Trazado_195405" data-name="Trazado 195405" d="M386.523,172.131a4.635,4.635,0,0,0-4.481,3.47h-2.489a22.958,22.958,0,0,0-4.242-12.238l-1.885,1.341a20.656,20.656,0,0,1,3.811,10.9h-2.282v2.314h2.282a20.656,20.656,0,0,1-3.81,10.9l1.885,1.341a22.957,22.957,0,0,0,4.241-12.238h2.488a4.627,4.627,0,1,0,4.481-5.784Zm0,6.941a2.314,2.314,0,1,1,2.313-2.314A2.313,2.313,0,0,1,386.523,179.071Z" transform="translate(-305.742 -126.052)" fill="#6836bf"/>
        <path id="Trazado_195406" data-name="Trazado 195406" d="M81.534,86.16a4.629,4.629,0,0,0,2.351-.639L88.9,90.533,90.531,88.9,85.52,83.886a4.63,4.63,0,1,0-3.986,2.274ZM79.9,79.9a2.306,2.306,0,1,1-.681,1.636A2.313,2.313,0,0,1,79.9,79.9Z" transform="translate(-52.094 -52.096)" fill="#6836bf"/>
        <path id="Trazado_195407" data-name="Trazado 195407" d="M353.122,346.579a4.635,4.635,0,0,0-5.622-.714l-5.011-5.011-1.636,1.636,5.011,5.011a4.627,4.627,0,1,0,7.259-.921Zm-1.636,4.908a2.312,2.312,0,1,1,0-3.272A2.312,2.312,0,0,1,351.486,351.486Z" transform="translate(-277.878 -277.878)" fill="#6836bf"/>
        <path id="Trazado_195408" data-name="Trazado 195408" d="M90.572,342.489l-1.636-1.636-5.011,5.011a4.628,4.628,0,1,0,1.636,1.636Zm-7.361,9a2.313,2.313,0,1,1,0-3.272A2.313,2.313,0,0,1,83.211,351.486Z" transform="translate(-52.135 -277.878)" fill="#6836bf"/>
        <path id="Trazado_195409" data-name="Trazado 195409" d="M340.853,88.914l1.636,1.636,5.011-5.011a4.626,4.626,0,1,0-1.636-1.636Zm7.361-9a2.307,2.307,0,1,1-.681,1.636A2.314,2.314,0,0,1,348.214,79.916Z" transform="translate(-277.878 -52.113)" fill="#6836bf"/>
        <path id="Trazado_195410" data-name="Trazado 195410" d="M190.153,375.316l-1.341-1.885a20.656,20.656,0,0,1-10.9,3.81v-2.282H175.6v2.282a20.656,20.656,0,0,1-10.9-3.81l-1.341,1.885a22.957,22.957,0,0,0,12.238,4.241v2.488a4.627,4.627,0,1,0,2.314,0v-2.488A22.957,22.957,0,0,0,190.153,375.316Zm-11.081,11.211a2.313,2.313,0,1,1-2.313-2.314A2.313,2.313,0,0,1,179.071,386.527Z" transform="translate(-126.052 -305.745)" fill="#6836bf"/>
        <path id="Trazado_195411" data-name="Trazado 195411" d="M163.363,31.841l1.341,1.885a20.656,20.656,0,0,1,10.9-3.81V32.2h2.314V29.916a20.656,20.656,0,0,1,10.9,3.81l1.341-1.885A22.957,22.957,0,0,0,177.915,27.6V25.111a4.627,4.627,0,1,0-2.314,0V27.6A22.957,22.957,0,0,0,163.363,31.841Zm11.081-11.211a2.314,2.314,0,1,1,2.313,2.314A2.314,2.314,0,0,1,174.444,20.631Z" transform="translate(-126.052)" fill="#6836bf"/>
        <path id="Trazado_195412" data-name="Trazado 195412" d="M175.232,164.822a1.157,1.157,0,0,0,1.157-1.157v-6.94a1.157,1.157,0,0,0-1.157-1.157h-3.181q-.1-.244-.2-.485l2.25-2.25a1.157,1.157,0,0,0,0-1.636l-4.908-4.908a1.157,1.157,0,0,0-1.636,0l-2.25,2.25q-.24-.106-.485-.2v-3.181A1.157,1.157,0,0,0,163.665,144h-6.941a1.157,1.157,0,0,0-1.157,1.157v3.181q-.245.1-.485.2l-2.25-2.25a1.157,1.157,0,0,0-1.636,0l-4.908,4.908a1.157,1.157,0,0,0,0,1.636l2.25,2.25q-.105.24-.2.485h-3.182A1.157,1.157,0,0,0,144,156.724v6.94a1.157,1.157,0,0,0,1.157,1.157h3.181q.1.244.2.485l-2.25,2.25a1.157,1.157,0,0,0,0,1.636L151.2,174.1a1.157,1.157,0,0,0,1.636,0l2.25-2.25q.24.106.485.2v3.181a1.157,1.157,0,0,0,1.157,1.157h6.941a1.157,1.157,0,0,0,1.157-1.157v-3.18q.244-.1.485-.2l2.25,2.25a1.157,1.157,0,0,0,1.636,0l4.908-4.908a1.157,1.157,0,0,0,0-1.636l-2.25-2.25q.106-.24.2-.485Zm-5.6,1.542,2.011,2.011-3.272,3.272-2.011-2.011a1.157,1.157,0,0,0-1.354-.207,10.358,10.358,0,0,1-1.691.7,1.157,1.157,0,0,0-.81,1.1v2.843h-4.627v-2.843a1.157,1.157,0,0,0-.81-1.1,10.365,10.365,0,0,1-1.692-.7,1.157,1.157,0,0,0-1.354.207l-2.011,2.011-3.272-3.272,2.011-2.011a1.157,1.157,0,0,0,.207-1.354,10.354,10.354,0,0,1-.7-1.692,1.157,1.157,0,0,0-1.1-.81h-2.843v-4.627h2.843a1.157,1.157,0,0,0,1.1-.81,10.354,10.354,0,0,1,.7-1.692,1.157,1.157,0,0,0-.207-1.354l-2.011-2.011,3.272-3.272,2.011,2.011a1.157,1.157,0,0,0,1.354.207,10.364,10.364,0,0,1,1.692-.7,1.157,1.157,0,0,0,.81-1.1v-2.843h4.627v2.843a1.157,1.157,0,0,0,.81,1.1,10.354,10.354,0,0,1,1.691.7,1.157,1.157,0,0,0,1.354-.207l2.011-2.011,3.272,3.272-2.011,2.011a1.157,1.157,0,0,0-.207,1.354,10.357,10.357,0,0,1,.7,1.692,1.157,1.157,0,0,0,1.1.81h2.843v4.627h-2.843a1.157,1.157,0,0,0-1.1.81,10.361,10.361,0,0,1-.7,1.692,1.157,1.157,0,0,0,.207,1.353Z" transform="translate(-109.488 -109.488)" fill="#6836bf"/>
        <path id="Trazado_195413" data-name="Trazado 195413" d="M208.1,200a8.1,8.1,0,1,0,8.1,8.1A8.1,8.1,0,0,0,208.1,200Zm0,13.881a5.784,5.784,0,1,1,5.784-5.784A5.784,5.784,0,0,1,208.1,213.881Z" transform="translate(-157.391 -157.391)" fill="#6836bf"/>
        <path id="Trazado_195414" data-name="Trazado 195414" d="M229.474,238.152l-1.5-1.5-1.636,1.636,2.314,2.314a1.157,1.157,0,0,0,1.636,0l4.627-4.627-1.636-1.636Z" transform="translate(-179.925 -186.768)" fill="#6836bf"/>
      </g>
    </g>
  </g>
</svg>
