<svg xmlns="http://www.w3.org/2000/svg" width="120" height="120" viewBox="0 0 120 120">
  <g id="Grupo_136645" data-name="Grupo 136645" transform="translate(-315.814 -3939)">
    <circle id="Elipse_5419" data-name="Elipse 5419" cx="60" cy="60" r="60" transform="translate(315.814 3939)" fill="#b13e8d"/>
    <g id="obrero" transform="translate(338.042 3957.238)">
      <path id="Trazado_195440" data-name="Trazado 195440" d="M27.062,49.461H22.4a2.637,2.637,0,0,1-2.634-2.634v-2.6A.349.349,0,0,0,19.5,43.9a19.744,19.744,0,0,1-4.634-1.925.318.318,0,0,0-.387.038l-1.857,1.857a2.635,2.635,0,0,1-3.725,0l-3.3-3.3a2.634,2.634,0,0,1,0-3.725l1.856-1.857a.316.316,0,0,0,.038-.387,19.768,19.768,0,0,1-1.925-4.634.349.349,0,0,0-.331-.269h-2.6A2.638,2.638,0,0,1,0,27.062V22.4a2.638,2.638,0,0,1,2.634-2.634h2.6a.349.349,0,0,0,.331-.269,19.766,19.766,0,0,1,1.925-4.634.318.318,0,0,0-.038-.387L5.595,12.617a2.634,2.634,0,0,1,0-3.725l3.3-3.3a2.635,2.635,0,0,1,3.726,0l1.856,1.856a.318.318,0,0,0,.387.038,19.765,19.765,0,0,1,4.634-1.925.348.348,0,0,0,.27-.331v-2.6A2.638,2.638,0,0,1,22.4,0h4.663A2.638,2.638,0,0,1,29.7,2.634v2.6a.347.347,0,0,0,.269.33A19.778,19.778,0,0,1,34.6,7.489a.319.319,0,0,0,.388-.038l1.856-1.857a2.633,2.633,0,0,1,3.726,0l.349.349a1.165,1.165,0,0,1-1.647,1.647c-.215-.186-.49-.639-.78-.349L36.634,9.1a2.655,2.655,0,0,1-3.194.411,17.459,17.459,0,0,0-4.087-1.7,2.687,2.687,0,0,1-1.987-2.579v-2.6a.3.3,0,0,0-.3-.3H22.4a.3.3,0,0,0-.3.3v2.6a2.687,2.687,0,0,1-1.987,2.579,17.45,17.45,0,0,0-4.087,1.7A2.654,2.654,0,0,1,12.826,9.1L10.97,7.242a.3.3,0,0,0-.43,0l-3.3,3.3a.3.3,0,0,0,0,.43L9.1,12.827A2.654,2.654,0,0,1,9.51,16.02a17.463,17.463,0,0,0-1.7,4.087,2.686,2.686,0,0,1-2.578,1.986h-2.6a.305.305,0,0,0-.3.3v4.663a.3.3,0,0,0,.3.3h2.6a2.687,2.687,0,0,1,2.579,1.986,17.414,17.414,0,0,0,1.7,4.087A2.654,2.654,0,0,1,9.1,36.634L7.242,38.491a.3.3,0,0,0-.089.215.3.3,0,0,0,.089.215l3.3,3.3a.3.3,0,0,0,.431,0l1.856-1.856a2.655,2.655,0,0,1,3.194-.411,17.448,17.448,0,0,0,4.087,1.7,2.687,2.687,0,0,1,1.987,2.579v2.6a.3.3,0,0,0,.3.3h4.663a.3.3,0,0,0,.3-.3v-2.6a2.687,2.687,0,0,1,1.987-2.579,1.165,1.165,0,0,1,.613,2.247.349.349,0,0,0-.27.331v2.6A2.638,2.638,0,0,1,27.062,49.461Zm0,0" fill="#fff"/>
      <path id="Trazado_195441" data-name="Trazado 195441" d="M88.535,99.47a10.993,10.993,0,0,1,14.883-10.264,1.165,1.165,0,0,1-.83,2.178,8.65,8.65,0,1,0-2.557,16.721,1.165,1.165,0,0,1,.137,2.326A10.992,10.992,0,0,1,88.535,99.47Zm0,0" transform="translate(-74.784 -74.74)" fill="#fff"/>
      <path id="Trazado_195442" data-name="Trazado 195442" d="M143.346,104.8l-11.8-2.3V99.588a12.321,12.321,0,0,0,5.5-9.06,3.35,3.35,0,0,0,3.079-3.335V84.8a3.176,3.176,0,0,0-.541-6v-.924a15.043,15.043,0,0,0-15.042-15.043h-1.261a15.043,15.043,0,0,0-15.042,15.042V78.8a3.176,3.176,0,0,0-.541,6v2.394a3.35,3.35,0,0,0,3.079,3.335,12.288,12.288,0,0,0,4.132,8.007,15.311,15.311,0,0,0,1.368,1.053V102.5l-11.8,2.3c-6.227,1.211-11.081,4.722-11.081,11.2v11.849a4.747,4.747,0,0,0,4.747,4.747H149.68a4.747,4.747,0,0,0,4.747-4.747V116C154.427,109.542,149.6,106.016,143.346,104.8Zm-9.7.488c-.846,1.23-2.139,3.107-3.535,5.129a1.7,1.7,0,0,1-1.989.69l-1.84-1.1c1.795-1.06,4.278-2.88,5.032-5.169Zm-9.743,3.357c-1.769-.891-5.3-3.091-5.306-5.171v-2.6a13.377,13.377,0,0,0,10.612,0v2.59C129.213,105.547,125.678,107.753,123.907,108.644ZM110.564,77.871a12.721,12.721,0,0,1,6.558-11.121v1.46a1.165,1.165,0,0,0,2.33,0V65.746a12.631,12.631,0,0,1,3.29-.576v5.76a1.165,1.165,0,0,0,2.33,0v-5.76a12.636,12.636,0,0,1,3.291.576V68.21a1.165,1.165,0,0,0,2.33,0V66.75a12.721,12.721,0,0,1,6.558,11.121v.842H110.564Zm-1.61,3.172H138.86a.844.844,0,0,1,0,1.687H108.953A.844.844,0,0,1,108.953,81.043Zm4.074,8.305a1.165,1.165,0,0,0-1.165-1.14c-.194-.048-1.84.3-1.84-1.015V85.06h27.77v2.133c0,1.315-1.69.978-1.84,1.015a1.166,1.166,0,0,0-1.165,1.14,10.045,10.045,0,0,1-3.4,7.421,11.184,11.184,0,0,1-14.968,0A10.044,10.044,0,0,1,113.027,89.348Zm3.47,15.485c.754,2.289,3.237,4.109,5.032,5.169-1.844.988-1.714,1.283-2.552,1.184a1.837,1.837,0,0,1-1.287-.784c-1.393-2.017-2.682-3.888-3.526-5.115Zm-13.441,25.431H98.133a2.417,2.417,0,0,1-2.417-2.417V116c0-3.491,1.586-5.9,5.065-7.572a47.913,47.913,0,0,1,2.275,14.509Zm19.686,0H105.386v-7.329a48.882,48.882,0,0,0-2.432-15.376c1.36-.452.35-.1,8.716-1.788,2.4,3.494,6.892,10.013,9.537,13.773a8.384,8.384,0,0,1,1.535,4.85Zm1.165-10.741a10.967,10.967,0,0,0-.794-1.318c-.894-1.27-2.055-2.938-3.266-4.686a3.492,3.492,0,0,0,1.041-.415l3.02-1.811,3.02,1.811a3.486,3.486,0,0,0,1.041.415c-1.211,1.747-2.372,3.414-3.266,4.686A10.893,10.893,0,0,0,123.907,119.523Zm28.191,8.324a2.417,2.417,0,0,1-2.417,2.417h-4.923v-4.4a1.165,1.165,0,0,0-2.33,0v4.4H125.072V124.4a8.385,8.385,0,0,1,1.535-4.85c1.5-2.139,7.7-11.079,9.538-13.774,8.362,1.684,7.353,1.335,8.716,1.788a50.8,50.8,0,0,0-2.4,13.6,1.165,1.165,0,0,0,2.328.084,46.588,46.588,0,0,1,2.245-12.819c3.479,1.667,5.065,4.081,5.065,7.571Zm0,0" transform="translate(-78.882 -53.07)" fill="#fff"/>
    </g>
  </g>
</svg>
