<svg xmlns="http://www.w3.org/2000/svg" width="120" height="120" viewBox="0 0 120 120">
  <g id="Grupo_136646" data-name="Grupo 136646" transform="translate(-736 -3939)">
    <circle id="Elipse_5420" data-name="Elipse 5420" cx="60" cy="60" r="60" transform="translate(736 3939)" fill="#b13e8d"/>
    <g id="outline" transform="translate(756 3957.093)">
      <path id="Trazado_195423" data-name="Trazado 195423" d="M27,45h2.66v2.66H27Z" transform="translate(5.614 14.2)" fill="#fff"/>
      <path id="Trazado_195424" data-name="Trazado 195424" d="M31,45h2.66v2.66H31Z" transform="translate(6.935 14.2)" fill="#fff"/>
      <path id="Trazado_195425" data-name="Trazado 195425" d="M35,45h2.66v2.66H35Z" transform="translate(8.256 14.2)" fill="#fff"/>
      <path id="Trazado_195426" data-name="Trazado 195426" d="M12,16h2.66v2.66H12Z" transform="translate(0.66 4.623)" fill="#fff"/>
      <path id="Trazado_195427" data-name="Trazado 195427" d="M13,10h2.66v2.66H13Z" transform="translate(0.991 2.642)" fill="#fff"/>
      <path id="Trazado_195428" data-name="Trazado 195428" d="M16,5h2.66V7.66H16Z" transform="translate(1.981 0.991)" fill="#fff"/>
      <path id="Trazado_195429" data-name="Trazado 195429" d="M13,22h2.66v2.66H13Z" transform="translate(0.991 6.605)" fill="#fff"/>
      <path id="Trazado_195430" data-name="Trazado 195430" d="M16,27h2.66v2.66H16Z" transform="translate(1.981 8.256)" fill="#fff"/>
      <path id="Trazado_195431" data-name="Trazado 195431" d="M50,16h2.66v2.66H50Z" transform="translate(13.209 4.623)" fill="#fff"/>
      <path id="Trazado_195432" data-name="Trazado 195432" d="M49,10h2.66v2.66H49Z" transform="translate(12.879 2.642)" fill="#fff"/>
      <path id="Trazado_195433" data-name="Trazado 195433" d="M46,5h2.66V7.66H46Z" transform="translate(11.888 0.991)" fill="#fff"/>
      <path id="Trazado_195434" data-name="Trazado 195434" d="M49,22h2.66v2.66H49Z" transform="translate(12.879 6.605)" fill="#fff"/>
      <path id="Trazado_195435" data-name="Trazado 195435" d="M46,27h2.66v2.66H46Z" transform="translate(11.888 8.256)" fill="#fff"/>
      <path id="Trazado_195436" data-name="Trazado 195436" d="M68.432,64.028a4.347,4.347,0,0,0-2.485-2.566,5.649,5.649,0,0,0-4.592.5L48.171,66.753a3.932,3.932,0,0,0-.583-.87l4.688-5.86a1.33,1.33,0,0,0,.291-.823V49.888a1.33,1.33,0,0,0-1.33-1.33h-1.33V45.994c.632-4.257,2.763-8.067,4.825-11.753,2.307-4.122,4.487-8.019,4.487-12.287C59.219,10.2,51.014,2,39.265,2S19.312,10.2,19.312,21.954c0,4.269,2.18,8.165,4.487,12.287,2.062,3.686,4.193,7.495,4.825,11.753v2.565h-1.33a1.33,1.33,0,0,0-1.33,1.33V59.2a1.33,1.33,0,0,0,.291.831l3.592,4.49H24.633v-1.33a1.33,1.33,0,0,0-1.33-1.33H17.981a1.33,1.33,0,0,0-1.33,1.33v1.33H11.33A1.33,1.33,0,0,0,10,65.851V77.823a1.33,1.33,0,0,0,1.33,1.33h5.321v1.33a1.33,1.33,0,0,0,1.33,1.33H23.3a1.33,1.33,0,0,0,1.33-1.33V79.357l17.1,2.444a1.289,1.289,0,0,0,.189.013,1.342,1.342,0,0,0,.595-.133L66.23,69.825a4.6,4.6,0,0,0,2.2-5.8ZM16.651,76.493H12.66V67.182h3.991Zm5.321,2.66h-2.66V64.521h2.66ZM26.12,32.943c-2.132-3.806-4.148-7.413-4.148-10.989,0-10.343,6.95-17.293,17.293-17.293s17.293,6.95,17.293,17.293c0,3.576-2.015,7.183-4.148,10.989-2.2,3.923-4.467,7.981-5.151,12.77l-.013,2.845H43.256V43.237h2.66v-2.66h-13.3v2.66h2.66v5.321H31.284V45.9l-.013-.189C30.587,40.924,28.317,36.865,26.12,32.943ZM40.6,43.237v5.321h-2.66V43.237ZM28.623,51.219H49.907v2.66H28.623Zm0,7.515V56.54H49.907v2.194l-4.629,5.788H33.253ZM65.04,67.438,41.7,79.108,24.633,76.67V67.182H44.472a1.33,1.33,0,1,1,0,2.66H31.284V72.5H44.472a3.991,3.991,0,0,0,3.839-2.962l14.022-5.1a1.29,1.29,0,0,0,.14-.059A3.371,3.371,0,0,1,65,63.949a1.748,1.748,0,0,1,.959,1.064,1.922,1.922,0,0,1-.919,2.425Z" fill="#fff"/>
      <path id="Trazado_195437" data-name="Trazado 195437" d="M33,15h2.66v2.66H33Z" transform="translate(7.595 4.293)" fill="#fff"/>
      <path id="Trazado_195438" data-name="Trazado 195438" d="M31.642,30.944h7.981A3.964,3.964,0,0,0,42.912,29.2a5.225,5.225,0,0,0,2.033.411,5.3,5.3,0,0,0,3.691-9.129,3.955,3.955,0,0,0-.556-3.965,5.256,5.256,0,0,0,.855-2.868A5.321,5.321,0,0,0,43.614,8.33a5.414,5.414,0,0,0-.942.083A3.991,3.991,0,0,0,39.624,7H31.642a3.991,3.991,0,0,0-3.049,1.413,5.413,5.413,0,0,0-.942-.082,5.321,5.321,0,0,0-5.321,5.321,5.256,5.256,0,0,0,.855,2.868,3.955,3.955,0,0,0-.556,3.965,5.3,5.3,0,0,0,3.691,9.129,5.227,5.227,0,0,0,2.034-.412,3.964,3.964,0,0,0,3.287,1.742Zm-3.96-4.38a2.618,2.618,0,0,1-1.361.39,2.647,2.647,0,0,1-1.272-4.975,1.33,1.33,0,0,0,.317-2.087,1.312,1.312,0,0,1,.322-2.076c.011,0,.019-.015.029-.021a1.363,1.363,0,0,1,1.757.515l2.3-1.33A3.906,3.906,0,0,0,25.442,15.1a2.566,2.566,0,0,1-.451-1.445,2.66,2.66,0,0,1,2.66-2.66,5.01,5.01,0,0,1,1.034.208,2.66,2.66,0,0,1,1.627,2.453h2.66a5.306,5.306,0,0,0-1.74-3.923,1.316,1.316,0,0,1,.41-.068h7.981a1.316,1.316,0,0,1,.41.068,5.306,5.306,0,0,0-1.74,3.923h2.66A2.66,2.66,0,0,1,42.581,11.2h.011a2.66,2.66,0,0,1,3.683,2.453,2.566,2.566,0,0,1-.451,1.442,3.906,3.906,0,0,0-4.338,1.884l2.3,1.33a1.365,1.365,0,0,1,1.76-.512c.009,0,.016.013.027.019A1.312,1.312,0,0,1,45.9,19.89a1.33,1.33,0,0,0,.317,2.087,2.638,2.638,0,1,1-3.93,2.316h-2.66a5.332,5.332,0,0,0,1.152,3.295,1.306,1.306,0,0,1-1.152.7h-2.66V22.963H34.3v5.321h-2.66a1.3,1.3,0,0,1-1.147-.689,5.321,5.321,0,0,0,1.147-3.3h-2.66a2.66,2.66,0,0,1-.827,1.925c-.013.012-.378.29-.472.346Z" transform="translate(3.632 1.651)" fill="#fff"/>
      <path id="Trazado_195439" data-name="Trazado 195439" d="M29,14h2.66v2.66H29Z" transform="translate(6.274 3.963)" fill="#fff"/>
    </g>
  </g>
</svg>
