<svg xmlns="http://www.w3.org/2000/svg" width="120" height="120" viewBox="0 0 120 120">
  <g id="Grupo_136647" data-name="Grupo 136647" transform="translate(-1155.629 -3939)">
    <circle id="Elipse_5421" data-name="Elipse 5421" cx="60" cy="60" r="60" transform="translate(1155.629 3939)" fill="#b13e8d"/>
    <g id="Outline" transform="translate(1174.136 3957.136)">
      <circle id="Elipse_5422" data-name="Elipse 5422" cx="1.5" cy="1.5" r="1.5" transform="translate(58.864 42.864)" fill="#fff"/>
      <ellipse id="Elipse_5423" data-name="Elipse 5423" cx="1" cy="1.5" rx="1" ry="1.5" transform="translate(64.864 42.864)" fill="#fff"/>
      <path id="Trazado_195415" data-name="Trazado 195415" d="M80.4,67.179H76.169a3.942,3.942,0,0,0,.244-1.329V55.22A6.567,6.567,0,0,0,75.6,52.1a6.538,6.538,0,0,0,2.145-4.849V36.617a14.617,14.617,0,0,0-29.234,0V40.6a1.329,1.329,0,1,0,2.658,0V36.617a11.959,11.959,0,0,1,23.919,0v10.63a3.907,3.907,0,0,1-1.2,2.806,6.578,6.578,0,0,0-4.119-1.478H68.44v-.351A9.292,9.292,0,0,0,72.427,40.6V39.275a1.329,1.329,0,0,0-2.658,0V40.6a6.644,6.644,0,0,1-13.288,0V35.155a6.846,6.846,0,0,0,4.44-3.015,14.826,14.826,0,0,0,9.17,3.148H71.1a1.329,1.329,0,1,0,0-2.658H70.091a12.2,12.2,0,0,1-8.684-3.6,1.329,1.329,0,0,0-2.2.517l-.069.207a4.2,4.2,0,0,1-3.986,2.873,1.329,1.329,0,0,0-1.329,1.329V40.6a9.292,9.292,0,0,0,3.986,7.622v.351H56.481a6.578,6.578,0,0,0-4.119,1.478,3.907,3.907,0,0,1-1.2-2.806V45.919a1.329,1.329,0,0,0-2.658,0v1.329A6.538,6.538,0,0,0,50.653,52.1a6.567,6.567,0,0,0-.816,3.124v6.644H45.851A3.961,3.961,0,0,0,43.193,62.9a3.925,3.925,0,0,0-5.315,0,3.961,3.961,0,0,0-2.658-1.036H31.234V59.207h7.973a5.315,5.315,0,0,0,5.315-5.315v-18.6a5.315,5.315,0,0,0-5.315-5.315H9.973a5.315,5.315,0,0,0-5.315,5.315v18.6a5.315,5.315,0,0,0,5.315,5.315h3.986a1.329,1.329,0,1,0,0-2.658H9.973a2.658,2.658,0,0,1-2.658-2.658v-18.6A2.658,2.658,0,0,1,9.973,32.63H39.207a2.658,2.658,0,0,1,2.658,2.658v18.6a2.658,2.658,0,0,1-2.658,2.658H31.234V51.234a6.644,6.644,0,0,0-13.288,0v10.63H13.959a3.986,3.986,0,0,0-3.986,3.986v1.329H3.329a1.329,1.329,0,0,0,0,2.658H80.4a1.329,1.329,0,0,0,0-2.658ZM67.662,51.234h.145l-1.321,3.3-1.276-.849Zm-2.093-1.665-2.444,2.444-2.444-2.444A9.049,9.049,0,0,0,65.569,49.569Zm-6.98,1.665,2.452,2.452-1.276.849-1.321-3.3Zm-2.967.1L57.9,57.047a1.329,1.329,0,0,0,1.972.613l3.249-2.174,3.249,2.166a1.329,1.329,0,0,0,1.972-.613l2.283-5.714a3.986,3.986,0,0,1,3.127,3.895v3.986H71.1V57.878a1.329,1.329,0,0,0-2.658,0v3.986H64.6a4.1,4.1,0,0,0-4.075,3.322,4.017,4.017,0,0,0,.2,1.993H57.81v-9.3a1.329,1.329,0,0,0-2.658,0v1.329H52.495V55.22a3.986,3.986,0,0,1,3.127-3.887Zm-35.018-.1a3.986,3.986,0,1,1,7.973,0v10.63H20.6ZM12.63,65.851a1.329,1.329,0,0,1,1.329-1.329H35.22a1.329,1.329,0,0,1,1.329,1.329v1.329H12.63Zm26.576,1.329V65.851a1.329,1.329,0,1,1,2.658,0v1.329Zm6.644,0a1.329,1.329,0,1,1,0-2.658h5.315a1.329,1.329,0,0,0,1.329-1.329V61.864h2.658v5.315Zm18.6,0a1.329,1.329,0,0,1-1.309-1.561,1.439,1.439,0,0,1,1.451-1.1h5.173A1.329,1.329,0,0,0,71.1,63.193V61.864h2.658v3.986a1.329,1.329,0,0,1-1.329,1.329Z" transform="translate(0 6.576)" fill="#fff"/>
      <path id="Trazado_195416" data-name="Trazado 195416" d="M80.4,60H3.329a1.329,1.329,0,1,0,0,2.658H80.4A1.329,1.329,0,1,0,80.4,60Z" transform="translate(0 19.071)" fill="#fff"/>
      <path id="Trazado_195417" data-name="Trazado 195417" d="M27.617,36.658a1.329,1.329,0,1,0,0-2.658H14.329a1.329,1.329,0,1,0,0,2.658Z" transform="translate(3.617 10.522)" fill="#fff"/>
      <path id="Trazado_195418" data-name="Trazado 195418" d="M22.018,20.47,26,27.38a1.329,1.329,0,0,0,1.815.486l2.238-1.292a11.914,11.914,0,0,0,1.3.752V29.9a1.329,1.329,0,0,0,1.329,1.329h7.973A1.329,1.329,0,0,0,41.985,29.9V27.324a12.061,12.061,0,0,0,1.3-.752l2.236,1.292a1.329,1.329,0,0,0,1.815-.486l3.986-6.91a1.329,1.329,0,0,0-.486-1.815L48.6,17.362c.019-.266.028-.508.028-.751s-.009-.49-.028-.751l2.234-1.29a1.329,1.329,0,0,0,.486-1.815l-3.986-6.91a1.329,1.329,0,1,0-2.3,1.329l3.322,5.752L46.523,13.99a1.329,1.329,0,0,0-.651,1.329,8.445,8.445,0,0,1,0,2.587,1.329,1.329,0,0,0,.651,1.329L48.355,20.3,45.7,24.9l-1.831-1.055a1.329,1.329,0,0,0-1.482.1,9.334,9.334,0,0,1-2.228,1.29,1.329,1.329,0,0,0-.829,1.232v2.107H34.012V26.467a1.329,1.329,0,0,0-.829-1.232,9.36,9.36,0,0,1-2.228-1.29,1.329,1.329,0,0,0-1.482-.1L27.642,24.9l-2.658-4.6,1.832-1.063a1.329,1.329,0,0,0,.652-1.329,8.276,8.276,0,0,1,0-2.578A1.329,1.329,0,0,0,26.816,14l-1.832-1.063,2.658-4.6L29.473,9.39a1.329,1.329,0,0,0,1.483-.1A9.36,9.36,0,0,1,33.184,8a1.329,1.329,0,0,0,.828-1.232V4.658h5.315V6.766a1.329,1.329,0,0,0,2.658,0V3.329A1.329,1.329,0,0,0,40.656,2H32.683a1.329,1.329,0,0,0-1.329,1.329V5.909a11.913,11.913,0,0,0-1.3.752L27.82,5.37A1.329,1.329,0,0,0,26,5.856l-3.986,6.91a1.329,1.329,0,0,0,.486,1.815l2.234,1.29c-.019.266-.028.508-.028.751s.009.49.028.751L22.5,18.663A1.329,1.329,0,0,0,22.018,20.47Z" transform="translate(6.524)" fill="#fff"/>
      <path id="Trazado_195419" data-name="Trazado 195419" d="M34.315,9a5.315,5.315,0,1,0,5.315,5.315A5.315,5.315,0,0,0,34.315,9Zm0,7.973a2.658,2.658,0,1,1,2.658-2.658A2.658,2.658,0,0,1,34.315,16.973Z" transform="translate(8.878 2.302)" fill="#fff"/>
      <path id="Trazado_195420" data-name="Trazado 195420" d="M11,17.986A3.986,3.986,0,1,0,14.986,14,3.986,3.986,0,0,0,11,17.986Zm5.315,0a1.329,1.329,0,1,1-1.329-1.329A1.329,1.329,0,0,1,16.315,17.986Z" transform="translate(2.959 3.946)" fill="#fff"/>
      <path id="Trazado_195421" data-name="Trazado 195421" d="M5.118,22.629a1.329,1.329,0,0,0,.133,1.009l2.658,4.6a1.329,1.329,0,0,0,.807.619,1.357,1.357,0,0,0,1.009-.133l1.932-1.116a9.251,9.251,0,0,0,1.294.744V30.59a1.329,1.329,0,0,0,1.329,1.329h5.315a1.329,1.329,0,0,0,1.329-1.329V28.356a9.251,9.251,0,0,0,1.294-.744l1.932,1.116a1.328,1.328,0,0,0,1.815-.486l2.658-4.6a1.329,1.329,0,0,0-.486-1.816l-1.929-1.114c.021-.251.032-.5.032-.748a9.309,9.309,0,0,0-.161-1.694,1.329,1.329,0,1,0-2.614.48,6.366,6.366,0,0,1,0,2.429,1.329,1.329,0,0,0,.643,1.391l1.549.894-1.329,2.3-1.544-.9a1.329,1.329,0,0,0-1.528.142,6.644,6.644,0,0,1-2.1,1.209,1.329,1.329,0,0,0-.886,1.252v1.793H15.607V27.468a1.329,1.329,0,0,0-.886-1.252,6.644,6.644,0,0,1-2.1-1.209,1.329,1.329,0,0,0-1.528-.142l-1.549.9-1.329-2.3,1.544-.894a1.329,1.329,0,0,0,.643-1.391,6.366,6.366,0,0,1,0-2.429,1.329,1.329,0,0,0-.643-1.391l-1.549-.894,1.329-2.3,1.549.9a1.321,1.321,0,0,0,1.528-.142,6.644,6.644,0,0,1,2.1-1.209,1.329,1.329,0,0,0,.892-1.252V10.658h2.658V12.45a1.329,1.329,0,0,0,.886,1.252,6.644,6.644,0,0,1,2.1,1.209,1.329,1.329,0,0,0,1.528.142l2.7-1.56a1.329,1.329,0,0,0-1.329-2.3l-1.932,1.116a9.251,9.251,0,0,0-1.294-.744V9.329A1.329,1.329,0,0,0,19.594,8H14.279A1.329,1.329,0,0,0,12.95,9.329v2.234a9.251,9.251,0,0,0-1.294.744L9.723,11.189a1.355,1.355,0,0,0-1.009-.133,1.329,1.329,0,0,0-.807.619l-2.658,4.6a1.329,1.329,0,0,0,.486,1.82l1.929,1.114c-.021.25-.032.5-.032.747s.011.5.032.748L5.737,21.82A1.329,1.329,0,0,0,5.118,22.629Z" transform="translate(1.01 1.973)" fill="#fff"/>
      <path id="Trazado_195422" data-name="Trazado 195422" d="M63.275,5.5H60.617a1.329,1.329,0,1,0,0,2.658h2.658A1.329,1.329,0,0,1,64.6,9.486v7.973a1.329,1.329,0,0,1-1.329,1.329H57.959a1.337,1.337,0,0,0-.737.223L51.315,22.95V20.117a1.329,1.329,0,0,0-1.329-1.329,1.329,1.329,0,0,1-1.329-1.329V9.486a1.329,1.329,0,0,1,1.329-1.329H55.3a1.329,1.329,0,0,0,0-2.658H49.986A3.986,3.986,0,0,0,46,9.486v7.973a3.994,3.994,0,0,0,2.658,3.759v4.214a1.329,1.329,0,0,0,2.066,1.106l7.634-5.092h4.917a3.986,3.986,0,0,0,3.986-3.986V9.486A3.986,3.986,0,0,0,63.275,5.5Z" transform="translate(14.468 1.151)" fill="#fff"/>
    </g>
  </g>
</svg>
