<svg id="mapa-mental" xmlns="http://www.w3.org/2000/svg" width="80" height="80" viewBox="0 0 80 80">
  <g id="Grupo_136776" data-name="Grupo 136776" transform="translate(0 0)">
    <path id="Trazado_195557" data-name="Trazado 195557" d="M71.226,298.58a1.29,1.29,0,0,1-2.581,0v-1.29H66.065v1.29a3.871,3.871,0,0,0,7.742,0v-1.29H71.226Z" transform="translate(-55.742 -250.838)" fill="#b13e8d"/>
    <path id="Trazado_195558" data-name="Trazado 195558" d="M51.613,49.032H67.1V43.871h5.161V20.645H80V0H46.452V20.645H69.677V41.29H67.1V36.129H59.068a3.292,3.292,0,0,0-1.581-4.312l-12.022-6.01H35.822l.049-.04A15.023,15.023,0,0,0,41.29,14.194a14.194,14.194,0,1,0-28.387,0,15.023,15.023,0,0,0,5.419,11.573l.049.04H5.161A5.166,5.166,0,0,0,0,30.968V38.71a5.166,5.166,0,0,0,5.161,5.161v2.8a7.572,7.572,0,0,1-2.2,5.317l-.912.912,3.115,3.115v4.627A6.459,6.459,0,0,0,11.613,67.1h5.619A11.593,11.593,0,0,0,12.9,76.129V80H33.548V74.157a10.548,10.548,0,0,0-4.32-8.534L34.7,60.7a19.922,19.922,0,0,0,6.312-11.665h8.018V59.355h12.9v5.161h7.742v7.742h-12.9V67.1H36.129V80H56.774V74.839H72.258V64.516H80v-12.9H61.935v5.161H51.613V49.032ZM49.032,2.581H77.419V18.065H49.032Zm7.742,32.258a.794.794,0,0,1-.441.714l-2.139,1.07V33.056l2.139,1.07A.793.793,0,0,1,56.774,34.839ZM15.484,41.29V36.129h6.485a6.385,6.385,0,0,0,10.256,0H43.871V41.29Zm7.742-25.806h-1.29a1.29,1.29,0,1,1,1.29-1.29ZM43.871,33.548H33.418a6.446,6.446,0,0,0,.13-1.29V28.387H43.871v5.161ZM28.387,25.806H25.806V18.065h2.581Zm2.581,2.581v2.581H23.226V28.387Zm-.238,5.161a3.848,3.848,0,0,1-7.267,0Zm-9.955,0H15.484V28.387h5.161v3.871A6.447,6.447,0,0,0,20.775,33.548ZM12.9,41.29H10.323v-12.9H12.9ZM46.452,29.185l5.161,2.581v6.147l-5.161,2.581ZM15.484,14.194a11.613,11.613,0,0,1,23.226,0,12.453,12.453,0,0,1-4.492,9.591l-2.427,2.022h-.823V18.065h1.29a3.871,3.871,0,1,0-3.871-3.871v1.29H25.807v-1.29a3.871,3.871,0,1,0-3.871,3.871h1.29v7.742H22.4l-2.427-2.022a12.453,12.453,0,0,1-4.492-9.591Zm15.484,1.29v-1.29a1.29,1.29,0,1,1,1.29,1.29ZM2.581,38.71V30.968a2.583,2.583,0,0,1,2.581-2.581H7.742v12.9H5.161A2.583,2.583,0,0,1,2.581,38.71Zm9.032,25.806a3.866,3.866,0,0,1-3.634-2.581h2.343a5.166,5.166,0,0,0,5.161-5.161H12.9a2.583,2.583,0,0,1-2.581,2.581H7.742V54.95L5.636,52.844a10.183,10.183,0,0,0,2.106-6.17v-2.8H19.355a3.876,3.876,0,0,1,3.871,3.871v1.29h2.581a2.581,2.581,0,1,1,0,5.161H23.226v1.29A11.666,11.666,0,0,0,27.068,64.1l-.467.421H11.613Zm19.355,9.641v3.262H25.807V72.258H23.226v5.161H15.484v-1.29A9.044,9.044,0,0,1,24.516,67.1h2.235A7.994,7.994,0,0,1,30.968,74.157Zm2.009-15.378L29,62.36a9.086,9.086,0,0,1-3.1-5.587,5.161,5.161,0,0,0-.094-10.321h-.13a6.387,6.387,0,0,0-1.191-2.581H38.71v2.035a17.344,17.344,0,0,1-5.733,12.873ZM41.29,45.906V43.871h4.175L55.788,38.71h8.728v7.742H41.262c0-.182.028-.362.028-.546Zm12.9,31.514H38.71V69.677H54.194ZM64.516,54.194h12.9v7.742h-12.9Z" transform="translate(0 0)" fill="#b13e8d"/>
  </g>
</svg>
