<svg xmlns="http://www.w3.org/2000/svg" width="72.296" height="80" viewBox="0 0 72.296 80">
  <g id="ensayo" transform="translate(-0.5)">
    <path id="Trazado_195570" data-name="Trazado 195570" d="M71.638,19.366,69.8,17.56a3.85,3.85,0,0,0-2.71-1.111h-.035a3.847,3.847,0,0,0-2.728,1.161l-3.18,3.228V1.29A1.29,1.29,0,0,0,59.855,0H1.79A1.29,1.29,0,0,0,.5,1.29V78.71A1.29,1.29,0,0,0,1.79,80H59.855a1.29,1.29,0,0,0,1.29-1.29V35.569L71.686,24.84A3.871,3.871,0,0,0,71.638,19.366ZM58.565,77.419H3.081V2.581H58.565V23.226a1.317,1.317,0,0,0,.04.2L34.476,47.978c-.095.142-.186.284-.277.428v.006l-3.569,9.156a1.29,1.29,0,0,0,1.2,1.758,1.254,1.254,0,0,0,.489-.1L41.4,55.5a1.221,1.221,0,0,0,.211-.141,1.334,1.334,0,0,0,.221-.147L58.565,38.194ZM35.893,51.174l2.731,2.682-4.5,1.845Zm5.014,1.309-3.681-3.613L60.739,24.936l3.681,3.613Zm28.94-29.452-3.613,3.681L62.551,23.1l3.613-3.681a1.29,1.29,0,0,1,1.825-.016l1.84,1.806a1.29,1.29,0,0,1,.017,1.825Zm0,0" fill="#b13e8d"/>
    <path id="Trazado_195571" data-name="Trazado 195571" d="M129.79,50.581h32.258a1.29,1.29,0,1,0,0-2.581H129.79a1.29,1.29,0,0,0,0,2.581Zm0,0" transform="translate(-107.355 -40.258)" fill="#b13e8d"/>
    <path id="Trazado_195572" data-name="Trazado 195572" d="M129.79,98.581h23.226a1.29,1.29,0,1,0,0-2.581H129.79a1.29,1.29,0,0,0,0,2.581Zm0,0" transform="translate(-107.355 -80.516)" fill="#b13e8d"/>
    <path id="Trazado_195573" data-name="Trazado 195573" d="M129.79,154.581h23.226a1.29,1.29,0,1,0,0-2.581H129.79a1.29,1.29,0,0,0,0,2.581Zm0,0" transform="translate(-107.355 -127.484)" fill="#b13e8d"/>
    <path id="Trazado_195574" data-name="Trazado 195574" d="M33.79,210.581H57.016a1.29,1.29,0,1,0,0-2.581H33.79a1.29,1.29,0,1,0,0,2.581Zm0,0" transform="translate(-26.839 -174.452)" fill="#b13e8d"/>
    <path id="Trazado_195575" data-name="Trazado 195575" d="M214.952,208H209.79a1.29,1.29,0,1,0,0,2.581h5.161a1.29,1.29,0,1,0,0-2.581Zm0,0" transform="translate(-174.452 -174.452)" fill="#b13e8d"/>
    <path id="Trazado_195576" data-name="Trazado 195576" d="M33.79,266.581H49.274a1.29,1.29,0,0,0,0-2.581H33.79a1.29,1.29,0,0,0,0,2.581Zm0,0" transform="translate(-26.839 -221.419)" fill="#b13e8d"/>
    <path id="Trazado_195577" data-name="Trazado 195577" d="M33.79,322.581H49.274a1.29,1.29,0,1,0,0-2.581H33.79a1.29,1.29,0,1,0,0,2.581Zm0,0" transform="translate(-26.839 -268.387)" fill="#b13e8d"/>
    <path id="Trazado_195578" data-name="Trazado 195578" d="M33.79,394.581H44.113a1.29,1.29,0,0,0,0-2.581H33.79a1.29,1.29,0,0,0,0,2.581Zm0,0" transform="translate(-26.839 -328.774)" fill="#b13e8d"/>
    <path id="Trazado_195579" data-name="Trazado 195579" d="M57.016,432H33.79a1.29,1.29,0,1,0,0,2.581H57.016a1.29,1.29,0,1,0,0-2.581Zm0,0" transform="translate(-26.839 -362.323)" fill="#b13e8d"/>
    <path id="Trazado_195580" data-name="Trazado 195580" d="M43.5,55.342l2.818-2.893v13.6a1.29,1.29,0,0,0,2.581,0V49.277a1.29,1.29,0,0,0-2.214-.9l-5.033,5.161A1.292,1.292,0,0,0,43.5,55.342Zm0,0" transform="translate(-34.21 -40.245)" fill="#b13e8d"/>
  </g>
</svg>
