<svg xmlns="http://www.w3.org/2000/svg" xmlns:xlink="http://www.w3.org/1999/xlink" width="1027.733" height="260.066" viewBox="0 0 1027.733 260.066">
  <defs>
    <filter id="Elipse_6051" x="6.916" y="84.162" width="174.733" height="174.733" filterUnits="userSpaceOnUse">
      <feOffset dy="3" input="SourceAlpha"/>
      <feGaussianBlur stdDeviation="3" result="blur"/>
      <feFlood flood-opacity="0.161"/>
      <feComposite operator="in" in2="blur"/>
      <feComposite in="SourceGraphic"/>
    </filter>
    <filter id="Elipse_6052" x="218.485" y="6.973" width="174.733" height="174.733" filterUnits="userSpaceOnUse">
      <feOffset dy="3" input="SourceAlpha"/>
      <feGaussianBlur stdDeviation="3" result="blur-2"/>
      <feFlood flood-opacity="0.161"/>
      <feComposite operator="in" in2="blur-2"/>
      <feComposite in="SourceGraphic"/>
    </filter>
    <filter id="Elipse_6053" x="427.872" y="84.162" width="174.733" height="174.733" filterUnits="userSpaceOnUse">
      <feOffset dy="3" input="SourceAlpha"/>
      <feGaussianBlur stdDeviation="3" result="blur-3"/>
      <feFlood flood-opacity="0.161"/>
      <feComposite operator="in" in2="blur-3"/>
      <feComposite in="SourceGraphic"/>
    </filter>
    <filter id="Elipse_6054" x="639.441" y="6.973" width="174.733" height="174.733" filterUnits="userSpaceOnUse">
      <feOffset dy="3" input="SourceAlpha"/>
      <feGaussianBlur stdDeviation="3" result="blur-4"/>
      <feFlood flood-opacity="0.161"/>
      <feComposite operator="in" in2="blur-4"/>
      <feComposite in="SourceGraphic"/>
    </filter>
    <filter id="Elipse_6056" x="848.986" y="84.162" width="174.733" height="174.733" filterUnits="userSpaceOnUse">
      <feOffset dy="3" input="SourceAlpha"/>
      <feGaussianBlur stdDeviation="3" result="blur-5"/>
      <feFlood flood-opacity="0.161"/>
      <feComposite operator="in" in2="blur-5"/>
      <feComposite in="SourceGraphic"/>
    </filter>
  </defs>
  <g id="Grupo_136861" data-name="Grupo 136861" transform="translate(4086.943 12337)">
    <g id="Grupo_136739" data-name="Grupo 136739" transform="translate(-4374.21 -12955.719)">
      <path id="Trazado_195479" data-name="Trazado 195479" d="M278.976,215.176,291.849,202.3l9.045,9.045a2.176,2.176,0,0,0,3.714-1.6l-1.877-64.379-64.379-1.875a2.175,2.175,0,0,0-1.6,3.712l9.045,9.045-12.872,12.872a91.341,91.341,0,1,0,46.053,46.053Z" transform="translate(185.943 534.753)" fill="#f7ca18"/>
      <path id="Trazado_195480" data-name="Trazado 195480" d="M341.271,287.72l12.872,12.872-9.047,9.045a2.175,2.175,0,0,0,1.6,3.712l64.379-1.875,1.875-64.379a2.175,2.175,0,0,0-3.712-1.6L400.2,254.54l-12.872-12.872a91.339,91.339,0,1,0-46.053,46.053Z" transform="translate(289.166 505.71)" fill="#6836bf"/>
      <path id="Trazado_195481" data-name="Trazado 195481" d="M494.552,215.176,507.425,202.3l9.045,9.045a2.176,2.176,0,0,0,3.714-1.6l-1.877-64.379-64.379-1.875a2.175,2.175,0,0,0-1.6,3.712l9.045,9.045L448.5,169.124a91.341,91.341,0,1,0,46.053,46.053Z" transform="translate(391.323 534.753)" fill="#f7ca18"/>
      <path id="Trazado_195482" data-name="Trazado 195482" d="M556.847,287.72l12.87,12.872-9.045,9.045a2.175,2.175,0,0,0,1.6,3.712l64.379-1.875,1.875-64.379a2.175,2.175,0,0,0-3.712-1.6l-9.045,9.047L602.9,241.667a91.339,91.339,0,1,0-46.053,46.053Z" transform="translate(494.546 505.71)" fill="#6836bf"/>
      <g transform="matrix(1, 0, 0, 1, 287.27, 618.72)" filter="url(#Elipse_6051)">
        <ellipse id="Elipse_6051-2" data-name="Elipse 6051" cx="78.367" cy="78.367" rx="78.367" ry="78.367" transform="translate(15.92 90.16)" fill="#fff"/>
      </g>
      <g transform="matrix(1, 0, 0, 1, 287.27, 618.72)" filter="url(#Elipse_6052)">
        <ellipse id="Elipse_6052-2" data-name="Elipse 6052" cx="78.367" cy="78.367" rx="78.367" ry="78.367" transform="translate(227.49 12.97)" fill="#fff"/>
      </g>
      <g transform="matrix(1, 0, 0, 1, 287.27, 618.72)" filter="url(#Elipse_6053)">
        <ellipse id="Elipse_6053-2" data-name="Elipse 6053" cx="78.367" cy="78.367" rx="78.367" ry="78.367" transform="translate(436.87 90.16)" fill="#fff"/>
      </g>
      <g transform="matrix(1, 0, 0, 1, 287.27, 618.72)" filter="url(#Elipse_6054)">
        <ellipse id="Elipse_6054-2" data-name="Elipse 6054" cx="78.367" cy="78.367" rx="78.367" ry="78.367" transform="translate(648.44 12.97)" fill="#fff"/>
      </g>
      <ellipse id="Elipse_6055" data-name="Elipse 6055" cx="91.538" cy="91.539" rx="91.538" ry="91.539" transform="translate(1131.923 695.708)" fill="#f7ca18"/>
      <g transform="matrix(1, 0, 0, 1, 287.27, 618.72)" filter="url(#Elipse_6056)">
        <ellipse id="Elipse_6056-2" data-name="Elipse 6056" cx="78.367" cy="78.367" rx="78.367" ry="78.367" transform="translate(857.99 90.16)" fill="#fff"/>
      </g>
    </g>
    <g id="alto-rendimiento" transform="translate(-4033.267 -12230.719)">
      <path id="Trazado_195483" data-name="Trazado 195483" d="M67.613,1H36a3.391,3.391,0,0,0-3.387,3.387V15.318A22.576,22.576,0,1,0,18.725,58.055l-8.692,9.107V71H59.71V45.5l6.774-6.774V47.29h2.258V34.871H56.323v2.258h8.565l-16.5,16.5L42.527,48.26a22.051,22.051,0,0,0,3.352-15.647H67.613A3.391,3.391,0,0,0,71,29.226V4.387A3.391,3.391,0,0,0,67.613,1ZM52.935,5.516V7.774H50.677V5.516H48.419V7.774H46.161V3.258h11.29V7.774H55.194V5.516ZM7.832,34.871a15.715,15.715,0,0,1,3.817-9.206l3.15,3.15,1.6-1.6-3.15-3.15a15.718,15.718,0,0,1,9.206-3.817V24.71H24.71V20.251a15.715,15.715,0,0,1,9.206,3.817l-3.15,3.15,1.6,1.6,3.15-3.15a15.718,15.718,0,0,1,3.817,9.206H34.871v2.258h4.475A15.713,15.713,0,0,1,37.44,43.6l-2.622-2.4-6.757,7.079c-.01-.1-.009-.211-.026-.315L26.009,35.8a2.462,2.462,0,0,0-4.857,0L19.127,47.956a4.428,4.428,0,0,0-.062.743v.849a4.484,4.484,0,0,0,.331,1.678,15.816,15.816,0,0,1-11.564-14.1H12.29V34.871ZM21.323,49.548V48.7a2.29,2.29,0,0,1,.03-.371L23.379,36.17a.21.21,0,0,1,.4,0l2.025,12.159a2.043,2.043,0,0,1,.033.37v.849a2.258,2.258,0,1,1-4.516,0Zm9.032-.408v19.6H25.839V53.871Zm2.258-2.365,2.311-2.421,2.2,2.021V68.742H32.613Zm6.774,1.67,4.516,4.14V68.742H39.387Zm-15.806,20.3H19.065V60.969l4.516-4.731Zm-11.29-.677,4.516-4.731v5.408H12.29Zm45.161.677H52.935V52.274l4.516-4.516Zm-9-11.986,2.224-2.224v14.21H46.161V54.655Zm-7.612-10.04-1.7-1.557a18.068,18.068,0,1,0-16.562,8.855L20.6,56.087a20.317,20.317,0,1,1,20.239-9.371Zm27.9-17.49a1.131,1.131,0,0,1-1.129,1.129H45.418a22.641,22.641,0,0,0-10.547-13.88V4.387A1.131,1.131,0,0,1,36,3.258h7.9v6.774H59.71V3.258h7.9a1.131,1.131,0,0,1,1.129,1.129Z" fill="#b13e8d"/>
      <path id="Trazado_195484" data-name="Trazado 195484" d="M49,23h2.258v2.258H49Z" transform="translate(6.194 2.839)" fill="#b13e8d"/>
      <path id="Trazado_195485" data-name="Trazado 195485" d="M57,23h2.258v2.258H57Z" transform="translate(7.226 2.839)" fill="#b13e8d"/>
      <path id="Trazado_195486" data-name="Trazado 195486" d="M53,23h2.258v2.258H53Z" transform="translate(6.71 2.839)" fill="#b13e8d"/>
      <path id="Trazado_195487" data-name="Trazado 195487" d="M49,19H60.29v2.258H49Z" transform="translate(6.194 2.323)" fill="#b13e8d"/>
    </g>
    <g id="eficaz" transform="translate(-3817.368 -12311.718)">
      <path id="Trazado_195488" data-name="Trazado 195488" d="M56.341,132.944l-1.983-1.217c-.483.788-.933,1.6-1.339,2.424l2.091,1.033C55.478,134.426,55.894,133.673,56.341,132.944Zm0,0" transform="translate(-45.204 -112.525)" fill="#b13e8d"/>
      <path id="Trazado_195489" data-name="Trazado 195489" d="M33.588,165a30.045,30.045,0,0,0-1.441,16.983l2.285-.466a27.731,27.731,0,0,1,1.328-15.67Zm0,0" transform="translate(-26.848 -140.945)" fill="#b13e8d"/>
      <path id="Trazado_195490" data-name="Trazado 195490" d="M137.007,2.338a1.168,1.168,0,0,0-1.3.239L132.264,6.02A35.065,35.065,0,0,0,90.9,7.536l1.451,1.827a32.719,32.719,0,0,1,39.363-.879,1.166,1.166,0,0,0,1.508-.116L135.186,6.4l-.716,12.165-12.166.715,1.633-1.633a1.167,1.167,0,0,0-.24-1.835,22.274,22.274,0,0,0-23.4.736l1.3,1.938a19.943,19.943,0,0,1,19.576-1.377l-2.688,2.683a1.166,1.166,0,0,0,.825,1.991q.034,0,.068,0l16.263-.957a1.166,1.166,0,0,0,1.1-1.095l.956-16.263A1.167,1.167,0,0,0,137.007,2.338Zm0,0" transform="translate(-77.562 0)" fill="#b13e8d"/>
      <path id="Trazado_195491" data-name="Trazado 195491" d="M113.362,345.576l-1.369-1.888a32.536,32.536,0,0,1-38.237.025,1.166,1.166,0,0,0-1.508.117l-1.966,1.966L71,333.629l12.167-.715-1.633,1.633a1.166,1.166,0,0,0,.24,1.833,22.284,22.284,0,0,0,23.342-.7l-1.3-1.935a19.942,19.942,0,0,1-19.522,1.34l2.682-2.683a1.166,1.166,0,0,0-.893-1.982l-16.262.956a1.166,1.166,0,0,0-1.1,1.1l-.957,16.264a1.166,1.166,0,0,0,1.988.892l3.443-3.442a34.861,34.861,0,0,0,40.158-.6Zm0,0" transform="translate(-57.8 -282.254)" fill="#b13e8d"/>
      <path id="Trazado_195492" data-name="Trazado 195492" d="M7.308,114.209l1.847-1.424a32.8,32.8,0,0,1-.59-38.994,1.166,1.166,0,0,0-.117-1.508L6.482,70.317l12.166.716L19.362,83.2,17.73,81.566a1.166,1.166,0,0,0-1.835.24,22.274,22.274,0,0,0,.733,23.392l1.938-1.3a19.935,19.935,0,0,1-1.373-19.573l2.682,2.683a1.166,1.166,0,0,0,1.988-.893l-.956-16.262a1.167,1.167,0,0,0-1.095-1.1L3.548,67.8a1.167,1.167,0,0,0-.887,2L6.1,73.241A35.151,35.151,0,0,0,7.308,114.209Zm0,0" transform="translate(0 -57.918)" fill="#b13e8d"/>
      <path id="Trazado_195493" data-name="Trazado 195493" d="M332.9,124.634l1.633,1.633a1.167,1.167,0,0,0,1.835-.24,22.2,22.2,0,0,0,.032-22.161l-2.02,1.166a19.856,19.856,0,0,1,.688,18.472l-2.682-2.688a1.166,1.166,0,0,0-1.983.893l.957,16.262a1.166,1.166,0,0,0,1.095,1.1l16.263.956h.069a1.166,1.166,0,0,0,.823-1.991l-3.443-3.443a35.153,35.153,0,0,0-1.2-40.969l-1.847,1.424a32.8,32.8,0,0,1,.59,38.994,1.166,1.166,0,0,0,.117,1.508l1.954,1.968-12.166-.716Zm0,0" transform="translate(-282.15 -79.974)" fill="#b13e8d"/>
      <path id="Trazado_195494" data-name="Trazado 195494" d="M205.706,211.564a5.831,5.831,0,1,0-5.831-5.831A5.831,5.831,0,0,0,205.706,211.564Zm0-9.329a3.5,3.5,0,1,1-3.5,3.5A3.5,3.5,0,0,1,205.706,202.235Zm0,0" transform="translate(-170.653 -170.763)" fill="#b13e8d"/>
      <path id="Trazado_195495" data-name="Trazado 195495" d="M145.041,154.4a1.166,1.166,0,0,0-1.166,1.166v4.665a1.166,1.166,0,0,0,1.166,1.166h1.709a11.606,11.606,0,0,0,.784,1.888l-1.211,1.211a1.166,1.166,0,0,0,0,1.649l3.3,3.3a1.166,1.166,0,0,0,1.648,0l1.211-1.209a11.555,11.555,0,0,0,1.888.782v1.71a1.166,1.166,0,0,0,1.166,1.166H160.2a1.166,1.166,0,0,0,1.166-1.166v-1.71a11.608,11.608,0,0,0,1.888-.784l1.211,1.211a1.166,1.166,0,0,0,1.648,0l3.3-3.3a1.166,1.166,0,0,0,0-1.649l-1.211-1.211a11.6,11.6,0,0,0,.784-1.888H170.7a1.166,1.166,0,0,0,1.166-1.166v-4.665A1.166,1.166,0,0,0,170.7,154.4h-1.709a11.545,11.545,0,0,0-.785-1.888l1.212-1.211a1.166,1.166,0,0,0,0-1.649l-3.3-3.3a1.166,1.166,0,0,0-1.648,0l-1.211,1.209a11.6,11.6,0,0,0-1.888-.782v-1.709A1.166,1.166,0,0,0,160.2,143.9h-4.665a1.166,1.166,0,0,0-1.166,1.166v1.709a11.611,11.611,0,0,0-1.888.784l-1.211-1.211a1.166,1.166,0,0,0-1.648,0l-3.3,3.3a1.166,1.166,0,0,0,0,1.649l1.209,1.211a11.606,11.606,0,0,0-.783,1.888Zm2.6,2.332a1.167,1.167,0,0,0,1.138-.908,9.231,9.231,0,0,1,1.2-2.884,1.166,1.166,0,0,0-.162-1.447l-1.016-1.017,1.649-1.649,1.016,1.017a1.167,1.167,0,0,0,1.447.162,9.215,9.215,0,0,1,2.884-1.2,1.167,1.167,0,0,0,.907-1.138v-1.434h2.332v1.434a1.167,1.167,0,0,0,.907,1.138,9.22,9.22,0,0,1,2.884,1.2,1.167,1.167,0,0,0,1.447-.162l1.016-1.017,1.649,1.649-1.017,1.017a1.166,1.166,0,0,0-.162,1.446,9.244,9.244,0,0,1,1.2,2.884,1.166,1.166,0,0,0,1.137.909h1.435v2.332H168.1a1.165,1.165,0,0,0-1.137.908,9.253,9.253,0,0,1-1.2,2.884,1.166,1.166,0,0,0,.162,1.446l1.017,1.017-1.649,1.649-1.016-1.017a1.167,1.167,0,0,0-1.447-.162,9.235,9.235,0,0,1-2.884,1.2,1.166,1.166,0,0,0-.907,1.138v1.434H156.7v-1.434a1.166,1.166,0,0,0-.907-1.138,9.229,9.229,0,0,1-2.884-1.2,1.167,1.167,0,0,0-1.447.162l-1.016,1.017-1.649-1.649,1.016-1.017a1.165,1.165,0,0,0,.162-1.447,9.239,9.239,0,0,1-1.2-2.884,1.166,1.166,0,0,0-1.138-.907h-1.434V156.73Zm0,0" transform="translate(-122.816 -122.926)" fill="#b13e8d"/>
    </g>
    <g id="eficiencia" transform="translate(-3629.51 -12226.719)">
      <g id="Grupo_136740" data-name="Grupo 136740" transform="translate(26.532 -7)">
        <path id="Trazado_195496" data-name="Trazado 195496" d="M80.345,62.505a31.2,31.2,0,0,0-21.656-9.441,1.771,1.771,0,0,0-1.815,1.769v4.885a1.759,1.759,0,0,0,1.716,1.767,22.956,22.956,0,1,1-15.255,40.689,1.025,1.025,0,1,0-1.3,1.584,25.053,25.053,0,0,0,14.841,5.658v4.321A29.324,29.324,0,0,1,28.591,85.457h4.322a24.753,24.753,0,0,0,5.6,14.769,1.025,1.025,0,1,0,1.589-1.3,22.727,22.727,0,0,1-5.147-13.808,1.759,1.759,0,0,0-1.767-1.716H28.3a1.771,1.771,0,0,0-1.769,1.815A31.377,31.377,0,0,0,57.9,115.809h0a31.377,31.377,0,0,0,22.445-53.3ZM75.828,67a24.865,24.865,0,0,0-16.9-7.552V55.123A29.324,29.324,0,0,1,87.206,83.406H82.884A24.86,24.86,0,0,0,75.828,67Zm2.827,38.189a29.121,29.121,0,0,1-19.73,8.551v-4.322a25.021,25.021,0,0,0,23.96-23.96h4.322A29.121,29.121,0,0,1,78.655,105.187Z" transform="translate(-26.532 -45.809)" fill="#b13e8d"/>
        <path id="Trazado_195497" data-name="Trazado 195497" d="M48.843,38.385v2.391A1.924,1.924,0,0,0,50.765,42.7h3.028a12.946,12.946,0,0,0,.737,1.774l-2.143,2.143a1.924,1.924,0,0,0,0,2.718l3.032,3.032a1.924,1.924,0,0,0,2.718,0l2.143-2.143a12.937,12.937,0,0,0,1.774.737v3.028a1.924,1.924,0,0,0,1.922,1.922h4.288a1.924,1.924,0,0,0,1.922-1.922V50.958a12.92,12.92,0,0,0,1.774-.737L74.1,52.364a1.922,1.922,0,0,0,2.718,0l3.032-3.032a1.922,1.922,0,0,0,0-2.718l-2.143-2.143a12.941,12.941,0,0,0,.737-1.774h3.028A1.924,1.924,0,0,0,83.4,40.776V36.488a1.924,1.924,0,0,0-1.922-1.922H78.446a12.934,12.934,0,0,0-.737-1.774l2.143-2.143a1.922,1.922,0,0,0,0-2.718L76.82,24.9a1.924,1.924,0,0,0-2.718,0l-2.143,2.143a12.953,12.953,0,0,0-1.774-.737V23.277a1.924,1.924,0,0,0-1.922-1.922H65.441A14.838,14.838,0,0,0,54.556,9.4V6.7h1.258a1.771,1.771,0,0,0,1.769-1.769V1.769A1.77,1.77,0,0,0,55.814,0H45.861a1.771,1.771,0,0,0-1.769,1.769V4.933A1.771,1.771,0,0,0,45.861,6.7h1.258V9.4a14.7,14.7,0,0,0-3.313,1.307L42.339,9.246a2.4,2.4,0,0,0-3.384,0L37.08,11.121a2.4,2.4,0,0,0,0,3.384l1.28,1.28a14.788,14.788,0,0,0,10.484,22.6ZM65.632,23.725c0-.107,0-.213,0-.319h2.507V26.4a1.922,1.922,0,0,0,1.34,1.831,10.894,10.894,0,0,1,1.623.674,1.922,1.922,0,0,0,2.245-.346l2.119-2.119,2.85,2.85-2.118,2.118a1.922,1.922,0,0,0-.346,2.245,10.888,10.888,0,0,1,.674,1.623,1.922,1.922,0,0,0,1.831,1.34h2.994v4.03H78.352a1.922,1.922,0,0,0-1.831,1.34,10.876,10.876,0,0,1-.674,1.623,1.922,1.922,0,0,0,.346,2.245l2.119,2.118-2.85,2.85L73.343,48.7a1.922,1.922,0,0,0-2.245-.346,10.881,10.881,0,0,1-1.623.674,1.922,1.922,0,0,0-1.34,1.831v2.994H64.1V50.864a1.922,1.922,0,0,0-1.34-1.831,10.893,10.893,0,0,1-1.623-.674A1.922,1.922,0,0,0,58.9,48.7l-2.119,2.119-2.85-2.85,2.118-2.118a1.922,1.922,0,0,0,.346-2.245,10.889,10.889,0,0,1-.674-1.623,1.922,1.922,0,0,0-1.831-1.34H50.894V38.519a14.7,14.7,0,0,0,7.018-1.8,8.43,8.43,0,0,0,16.077,4.942,1.025,1.025,0,0,0-1.914-.736,6.379,6.379,0,1,1,.156-4.123A1.025,1.025,0,1,0,74.2,36.21,8.434,8.434,0,0,0,64,30.471a14.7,14.7,0,0,0,1.63-6.746Zm-2.051,0A12.743,12.743,0,1,1,50.837,10.982,12.758,12.758,0,0,1,63.581,23.725ZM46.143,2.051h9.389v2.6H46.143ZM49.169,6.7h3.336V9.025a14.818,14.818,0,0,0-3.336,0ZM38.53,13.055a.342.342,0,0,1,0-.483L40.406,10.7a.342.342,0,0,1,.484,0l1.146,1.146A14.918,14.918,0,0,0,39.6,14.12Z" transform="translate(-34.743 0)" fill="#b13e8d"/>
        <path id="Trazado_195498" data-name="Trazado 195498" d="M228.523,250.7a4.357,4.357,0,1,0,4.357,4.357A4.362,4.362,0,0,0,228.523,250.7Zm0,6.663a2.306,2.306,0,1,1,2.306-2.306A2.309,2.309,0,0,1,228.523,257.361Z" transform="translate(-197.146 -216.423)" fill="#b13e8d"/>
        <path id="Trazado_195499" data-name="Trazado 195499" d="M62.965,103.361a11.113,11.113,0,0,0,21.98,2.329,1.025,1.025,0,0,0-2.005-.429,9.065,9.065,0,1,1-.123-4.3,1.025,1.025,0,1,0,1.977-.544,11.113,11.113,0,0,0-21.829,2.943Z" transform="translate(-57.984 -79.635)" fill="#b13e8d"/>
        <path id="Trazado_195500" data-name="Trazado 195500" d="M126.531,115.179a1.025,1.025,0,0,0-1.025,1.025v4.343a2.807,2.807,0,1,0,2.051,0V116.2A1.025,1.025,0,0,0,126.531,115.179Zm0,8.734a.756.756,0,1,1,.756-.756A.757.757,0,0,1,126.531,123.913Z" transform="translate(-110.436 -99.432)" fill="#b13e8d"/>
      </g>
    </g>
    <g id="gestion" transform="translate(-3411.517 -12329.375)">
      <path id="Trazado_195501" data-name="Trazado 195501" d="M29.683,83.444a5.963,5.963,0,1,0-8.074,0A8.4,8.4,0,0,0,17.25,90.8v2.087a1.309,1.309,0,0,0,1.31,1.31H32.733a1.31,1.31,0,0,0,1.31-1.31V90.8A8.4,8.4,0,0,0,29.683,83.444ZM22.3,79.08a3.344,3.344,0,1,1,3.343,3.326A3.344,3.344,0,0,1,22.3,79.08Zm9.119,12.5H19.87V90.8a5.776,5.776,0,1,1,11.553,0Z" transform="translate(0 -11.671)" fill="#b13e8d"/>
      <path id="Trazado_195502" data-name="Trazado 195502" d="M100.753,83.443a5.964,5.964,0,1,0-8.074,0,8.4,8.4,0,0,0-4.36,7.358v2.087a1.309,1.309,0,0,0,1.31,1.31H103.8a1.309,1.309,0,0,0,1.31-1.31V90.8A8.4,8.4,0,0,0,100.753,83.443Zm-7.38-4.364A3.344,3.344,0,1,1,96.716,82.4,3.343,3.343,0,0,1,93.372,79.079Zm9.119,12.5H90.939V90.8a5.777,5.777,0,1,1,11.553,0Z" transform="translate(-17.862 -11.67)" fill="#b13e8d"/>
      <path id="Trazado_195503" data-name="Trazado 195503" d="M100.753,37.01a5.964,5.964,0,1,0-8.074,0,8.4,8.4,0,0,0-4.36,7.359v2.085a1.31,1.31,0,0,0,1.31,1.31H103.8a1.31,1.31,0,0,0,1.31-1.31V44.369A8.4,8.4,0,0,0,100.753,37.01Zm-7.38-4.364a3.344,3.344,0,1,1,3.344,3.326,3.344,3.344,0,0,1-3.344-3.326Zm9.119,12.5H90.939v-.78a5.777,5.777,0,1,1,11.553,0Z" transform="translate(-17.862)" fill="#b13e8d"/>
      <path id="Trazado_195504" data-name="Trazado 195504" d="M29.683,37.011a5.963,5.963,0,1,0-8.074,0,8.4,8.4,0,0,0-4.359,7.359v2.085a1.31,1.31,0,0,0,1.31,1.312H32.733a1.311,1.311,0,0,0,1.31-1.31V44.369A8.4,8.4,0,0,0,29.683,37.011ZM22.3,32.647a3.344,3.344,0,1,1,3.343,3.326A3.344,3.344,0,0,1,22.3,32.647Zm9.119,12.5H19.87v-.78a5.776,5.776,0,1,1,11.553,0Z" transform="translate(0 -0.001)" fill="#b13e8d"/>
      <path id="Trazado_195505" data-name="Trazado 195505" d="M29.335,65.787v-6.37a1.31,1.31,0,1,0-2.62,0v6.37a1.31,1.31,0,1,0,2.62,0Z" transform="translate(-2.379 -7.905)" fill="#b13e8d"/>
      <path id="Trazado_195506" data-name="Trazado 195506" d="M72.988,91.658H44.932a1.31,1.31,0,0,0,0,2.62H72.988a1.31,1.31,0,1,0,0-2.62Z" transform="translate(-6.628 -16.337)" fill="#b13e8d"/>
      <path id="Trazado_195507" data-name="Trazado 195507" d="M100.405,66.422V60.054a1.31,1.31,0,1,0-2.62,0v6.368a1.31,1.31,0,0,0,2.62,0Z" transform="translate(-20.241 -8.065)" fill="#b13e8d"/>
      <path id="Trazado_195508" data-name="Trazado 195508" d="M74,32.907H42.56a1.31,1.31,0,0,0,0,2.62H74a1.31,1.31,0,0,0,0-2.62Z" transform="translate(-6.032 -1.571)" fill="#b13e8d"/>
      <path id="Trazado_195509" data-name="Trazado 195509" d="M73.043,54.877,70.5,54.719a12.3,12.3,0,0,0-.534-1.29l1.682-1.9a1.31,1.31,0,0,0-.055-1.8l-3.711-3.711a1.311,1.311,0,0,0-1.8-.055l-1.9,1.684a12.374,12.374,0,0,0-1.291-.533l-.156-2.538a1.31,1.31,0,0,0-1.308-1.229H56.189a1.31,1.31,0,0,0-1.308,1.229l-.158,2.538a12.187,12.187,0,0,0-1.289.533l-1.909-1.682a1.308,1.308,0,0,0-1.8.055l-3.711,3.711a1.311,1.311,0,0,0-.056,1.8l1.682,1.905a12.176,12.176,0,0,0-.533,1.288l-2.538.158a1.31,1.31,0,0,0-1.225,1.309v5.248a1.309,1.309,0,0,0,1.228,1.307l2.539.159a12.332,12.332,0,0,0,.532,1.288l-1.681,1.9a1.31,1.31,0,0,0,.055,1.8L49.732,71.6a1.307,1.307,0,0,0,1.792.056l1.907-1.682a12.176,12.176,0,0,0,1.288.533l.158,2.538a1.31,1.31,0,0,0,1.312,1.222h5.248a1.309,1.309,0,0,0,1.307-1.228L62.9,70.5a12.113,12.113,0,0,0,1.288-.533l1.9,1.682a1.31,1.31,0,0,0,1.8-.055L71.6,67.887a1.31,1.31,0,0,0,.055-1.8l-1.687-1.9A12.373,12.373,0,0,0,70.5,62.9l2.538-.156a1.31,1.31,0,0,0,1.229-1.308V56.189a1.31,1.31,0,0,0-1.229-1.312ZM71.651,60.2l-2.214.137a1.311,1.311,0,0,0-1.186.973,9.687,9.687,0,0,1-.993,2.405,1.309,1.309,0,0,0,.15,1.527l1.467,1.662L66.9,68.874l-1.657-1.467a1.314,1.314,0,0,0-1.527-.15,9.672,9.672,0,0,1-2.4.995,1.309,1.309,0,0,0-.973,1.184L60.2,71.652H57.417l-.138-2.212a1.309,1.309,0,0,0-.973-1.185,9.683,9.683,0,0,1-2.4-.993,1.31,1.31,0,0,0-1.526.15l-1.664,1.467-1.97-1.97,1.467-1.662a1.309,1.309,0,0,0,.15-1.527,9.706,9.706,0,0,1-.993-2.4,1.309,1.309,0,0,0-1.184-.973l-2.215-.139V57.417l2.214-.138a1.309,1.309,0,0,0,1.185-.973,9.673,9.673,0,0,1,.994-2.4,1.311,1.311,0,0,0-.15-1.527l-1.467-1.661,1.969-1.97,1.662,1.467a1.31,1.31,0,0,0,1.527.15,9.76,9.76,0,0,1,2.4-.995,1.311,1.311,0,0,0,.973-1.185l.138-2.214H60.2l.137,2.214a1.311,1.311,0,0,0,.973,1.186,9.658,9.658,0,0,1,2.405.993,1.309,1.309,0,0,0,1.527-.15l1.661-1.467,1.97,1.969-1.468,1.658a1.31,1.31,0,0,0-.15,1.527,9.758,9.758,0,0,1,.995,2.406,1.309,1.309,0,0,0,1.185.973l2.214.138Z" transform="translate(-6.559 -4.195)" fill="#b13e8d"/>
      <path id="Trazado_195510" data-name="Trazado 195510" d="M61.937,55.792a6.145,6.145,0,1,0,6.145,6.145A6.145,6.145,0,0,0,61.937,55.792Zm0,9.67a3.525,3.525,0,1,1,3.525-3.525,3.525,3.525,0,0,1-3.525,3.525Z" transform="translate(-9.687 -7.323)" fill="#b13e8d"/>
    </g>
    <path id="cumplimiento" d="M49.5,18.936H43.071a1.094,1.094,0,0,0-1.094,1.094v6.426a1.094,1.094,0,0,0,1.094,1.094H49.5a1.094,1.094,0,0,0,1.094-1.094V20.029A1.094,1.094,0,0,0,49.5,18.936ZM48.4,25.361H44.165V21.123H48.4Zm7.109-5.332a1.094,1.094,0,0,1,1.094-1.094H72.944a1.094,1.094,0,0,1,0,2.188H56.606A1.094,1.094,0,0,1,55.513,20.029Zm0,6.426a1.094,1.094,0,0,1,1.094-1.094H72.944a1.094,1.094,0,0,1,0,2.188H56.606A1.094,1.094,0,0,1,55.513,26.455ZM49.5,33.564H43.071a1.094,1.094,0,0,0-1.094,1.094v6.426a1.094,1.094,0,0,0,1.094,1.094H49.5a1.094,1.094,0,0,0,1.094-1.094V34.658A1.094,1.094,0,0,0,49.5,33.564ZM48.4,39.99H44.165V35.752H48.4Zm7.109-5.332a1.094,1.094,0,0,1,1.094-1.094H72.944a1.094,1.094,0,0,1,0,2.188H56.606A1.094,1.094,0,0,1,55.513,34.658Zm9.878,6.426A1.094,1.094,0,0,1,64.3,42.178H56.606a1.094,1.094,0,0,1,0-2.187H64.3A1.094,1.094,0,0,1,65.391,41.084ZM49.5,48.193H43.071a1.094,1.094,0,0,0-1.094,1.094v6.426a1.094,1.094,0,0,0,1.094,1.094H49.5a1.094,1.094,0,0,0,1.094-1.094V49.287A1.094,1.094,0,0,0,49.5,48.193ZM48.4,54.619H44.165V50.381H48.4Zm16.987-5.332A1.094,1.094,0,0,1,64.3,50.381H56.606a1.094,1.094,0,0,1,0-2.187H64.3A1.094,1.094,0,0,1,65.391,49.287Zm-2.666,6.426a1.094,1.094,0,0,1-1.094,1.094H56.606a1.094,1.094,0,0,1,0-2.187h5.025A1.094,1.094,0,0,1,62.725,55.713Zm30.529,5.239L82.891,43V10.937a3.832,3.832,0,0,0-3.828-3.828H69.629V4.648a1.094,1.094,0,0,0-1.094-1.094H63.319a5.746,5.746,0,0,0-10.623,0H47.48a1.094,1.094,0,0,0-1.094,1.094V7.109H36.953a3.832,3.832,0,0,0-3.828,3.828V61.25a3.833,3.833,0,0,0,3.828,3.828H60.465a6.092,6.092,0,0,0,.711,1.906A5.971,5.971,0,0,0,66.4,70H88.03a6.032,6.032,0,0,0,5.224-9.048ZM48.574,5.742h4.915A1.094,1.094,0,0,0,54.552,4.9a3.556,3.556,0,0,1,6.911,0,1.094,1.094,0,0,0,1.063.837h4.915v4.922H48.574Zm12.6,55.209a6.09,6.09,0,0,0-.717,1.939H36.953a1.642,1.642,0,0,1-1.641-1.641V10.937A1.642,1.642,0,0,1,36.953,9.3h9.434v2.461a1.094,1.094,0,0,0,1.094,1.094H68.535a1.094,1.094,0,0,0,1.094-1.094V9.3h9.434a1.642,1.642,0,0,1,1.641,1.64v29.37a6.044,6.044,0,0,0-8.712,1.913ZM91.36,65.89a3.806,3.806,0,0,1-3.33,1.923H66.4a3.845,3.845,0,0,1-3.33-5.767L73.886,43.314a3.845,3.845,0,0,1,6.659,0L91.36,62.045a3.806,3.806,0,0,1,0,3.845ZM77.215,60.918a2.75,2.75,0,1,0,2.75,2.75A2.753,2.753,0,0,0,77.215,60.918Zm0,3.313a.562.562,0,1,1,.563-.562A.563.563,0,0,1,77.215,64.231Zm0-4.082h0a2.378,2.378,0,0,0,2.385-2.3l.327-9.05a2.387,2.387,0,0,0-2.385-2.473h-.654A2.386,2.386,0,0,0,74.5,48.8l.327,9.05a2.378,2.378,0,0,0,2.385,2.3Zm-.47-11.575a.164.164,0,0,1,.143-.061h.654a.2.2,0,0,1,.2.206l-.327,9.05a.2.2,0,0,1-.2.192h0a.2.2,0,0,1-.2-.192l-.327-9.05a.164.164,0,0,1,.056-.145Z" transform="translate(-3213.069 -12235.719)" fill="#b13e8d"/>
    <path id="Trazado_195670" data-name="Trazado 195670" d="M6.332,15H3.988V3.625H6.332Zm4.1-8.453.07.977a2.951,2.951,0,0,1,2.43-1.133,2.453,2.453,0,0,1,2,.789,3.682,3.682,0,0,1,.672,2.359V15H13.348V9.581a1.47,1.47,0,0,0-.312-1.045A1.4,1.4,0,0,0,12,8.211a1.553,1.553,0,0,0-1.43.814V15H8.309V6.547Zm6.531,4.164a5.094,5.094,0,0,1,.887-3.148,2.877,2.877,0,0,1,2.426-1.172,2.589,2.589,0,0,1,2.039.922V3h2.266V15H22.543l-.109-.9a2.657,2.657,0,0,1-2.172,1.055,2.869,2.869,0,0,1-2.395-1.176A5.258,5.258,0,0,1,16.965,10.711Zm2.258.161a3.355,3.355,0,0,0,.414,1.829,1.348,1.348,0,0,0,1.2.636,1.51,1.51,0,0,0,1.477-.887V9.1a1.489,1.489,0,0,0-1.461-.887Q19.223,8.211,19.223,10.872ZM28.715,15H26.449V6.547h2.266Zm-2.4-10.641a1.112,1.112,0,0,1,.34-.836,1.465,1.465,0,0,1,1.848,0,1.105,1.105,0,0,1,.344.836A1.108,1.108,0,0,1,28.5,5.2a1.448,1.448,0,0,1-1.836,0A1.108,1.108,0,0,1,26.316,4.359Zm7.773,8.977a1.481,1.481,0,0,0,1.016-.344,1.2,1.2,0,0,0,.406-.914h2.117a2.9,2.9,0,0,1-.469,1.574A3.093,3.093,0,0,1,35.9,14.762a3.949,3.949,0,0,1-1.77.395A3.67,3.67,0,0,1,31.27,14a4.56,4.56,0,0,1-1.047-3.184v-.148a4.508,4.508,0,0,1,1.039-3.117,3.627,3.627,0,0,1,2.852-1.164,3.555,3.555,0,0,1,2.543.9,3.2,3.2,0,0,1,.973,2.4H35.512a1.551,1.551,0,0,0-.406-1.072,1.51,1.51,0,0,0-2.223.163,3.333,3.333,0,0,0-.4,1.866v.235a3.375,3.375,0,0,0,.4,1.878A1.377,1.377,0,0,0,34.09,13.336ZM43.816,15a2.507,2.507,0,0,1-.227-.758,2.732,2.732,0,0,1-2.133.914,3,3,0,0,1-2.059-.719,2.312,2.312,0,0,1-.816-1.812,2.389,2.389,0,0,1,1-2.062,4.915,4.915,0,0,1,2.879-.727H43.5V9.352a1.393,1.393,0,0,0-.3-.937,1.183,1.183,0,0,0-.949-.352,1.345,1.345,0,0,0-.895.273.929.929,0,0,0-.324.75H38.77a2.268,2.268,0,0,1,.453-1.359,3,3,0,0,1,1.281-.98,4.669,4.669,0,0,1,1.859-.355,3.689,3.689,0,0,1,2.48.785,2.747,2.747,0,0,1,.918,2.207v3.664a4.041,4.041,0,0,0,.336,1.82V15Zm-1.867-1.57a1.945,1.945,0,0,0,.922-.223,1.462,1.462,0,0,0,.625-.6V11.156h-.844q-1.7,0-1.8,1.172l-.008.133a.9.9,0,0,0,.3.7A1.153,1.153,0,0,0,41.949,13.43Zm5.2-2.719a5.094,5.094,0,0,1,.887-3.148,2.877,2.877,0,0,1,2.426-1.172,2.589,2.589,0,0,1,2.039.922V3h2.266V15H52.723l-.109-.9a2.657,2.657,0,0,1-2.172,1.055,2.869,2.869,0,0,1-2.395-1.176A5.258,5.258,0,0,1,47.145,10.711Zm2.258.161a3.355,3.355,0,0,0,.414,1.829,1.348,1.348,0,0,0,1.2.636,1.51,1.51,0,0,0,1.477-.887V9.1a1.489,1.489,0,0,0-1.461-.887Q49.4,8.211,49.4,10.872ZM56.16,10.7a5.013,5.013,0,0,1,.484-2.242A3.546,3.546,0,0,1,58.039,6.93a4.069,4.069,0,0,1,2.113-.539,3.849,3.849,0,0,1,2.793,1.047,4.2,4.2,0,0,1,1.207,2.844l.016.578a4.418,4.418,0,0,1-1.086,3.121,4.209,4.209,0,0,1-5.832,0A4.5,4.5,0,0,1,56.16,10.8Zm2.258.16a3.16,3.16,0,0,0,.453,1.843,1.628,1.628,0,0,0,2.578.008,3.457,3.457,0,0,0,.461-2.015,3.128,3.128,0,0,0-.461-1.831,1.5,1.5,0,0,0-1.3-.649,1.474,1.474,0,0,0-1.281.646A3.516,3.516,0,0,0,58.418,10.856ZM70.309,8.664A6.134,6.134,0,0,0,69.5,8.6a1.654,1.654,0,0,0-1.68.867V15H65.559V6.547h2.133l.063,1.008a2.092,2.092,0,0,1,1.883-1.164,2.366,2.366,0,0,1,.7.1Zm4.719,2.047a5.094,5.094,0,0,1,.887-3.148A2.877,2.877,0,0,1,78.34,6.391a2.589,2.589,0,0,1,2.039.922V3h2.266V15H80.605l-.109-.9a2.657,2.657,0,0,1-2.172,1.055A2.869,2.869,0,0,1,75.93,13.98,5.258,5.258,0,0,1,75.027,10.711Zm2.258.161A3.355,3.355,0,0,0,77.7,12.7a1.348,1.348,0,0,0,1.2.636,1.51,1.51,0,0,0,1.477-.887V9.1a1.489,1.489,0,0,0-1.461-.887Q77.285,8.211,77.285,10.872Zm11,4.285a4.15,4.15,0,0,1-3.027-1.141,4.054,4.054,0,0,1-1.168-3.039v-.219a5.106,5.106,0,0,1,.492-2.277,3.612,3.612,0,0,1,1.395-1.547,3.914,3.914,0,0,1,2.059-.543,3.508,3.508,0,0,1,2.73,1.094,4.444,4.444,0,0,1,1,3.1v.922H86.379a2.1,2.1,0,0,0,.66,1.328,2,2,0,0,0,1.395.5,2.437,2.437,0,0,0,2.039-.945l1.109,1.242a3.389,3.389,0,0,1-1.375,1.121A4.511,4.511,0,0,1,88.285,15.156Zm-.258-6.945a1.411,1.411,0,0,0-1.09.455,2.357,2.357,0,0,0-.535,1.3h3.141V9.788a1.681,1.681,0,0,0-.406-1.165A1.456,1.456,0,0,0,88.027,8.211Zm-74.5,24.945A4.15,4.15,0,0,1,10.5,32.016a4.054,4.054,0,0,1-1.168-3.039v-.219a5.106,5.106,0,0,1,.492-2.277,3.612,3.612,0,0,1,1.395-1.547,3.914,3.914,0,0,1,2.059-.543,3.508,3.508,0,0,1,2.73,1.094,4.444,4.444,0,0,1,1,3.1v.922H11.621a2.1,2.1,0,0,0,.66,1.328,2,2,0,0,0,1.395.5,2.437,2.437,0,0,0,2.039-.945l1.109,1.242a3.389,3.389,0,0,1-1.375,1.121A4.511,4.511,0,0,1,13.527,33.156Zm-.258-6.945a1.411,1.411,0,0,0-1.09.455,2.357,2.357,0,0,0-.535,1.3h3.141v-.181a1.681,1.681,0,0,0-.406-1.165A1.456,1.456,0,0,0,13.27,26.211Zm8.078,4.031,1.57-5.7h2.359L22.426,33H20.27l-2.852-8.453h2.359ZM31.051,33a2.507,2.507,0,0,1-.227-.758,2.732,2.732,0,0,1-2.133.914,3,3,0,0,1-2.059-.719,2.312,2.312,0,0,1-.816-1.812,2.389,2.389,0,0,1,1-2.062,4.915,4.915,0,0,1,2.879-.727H30.73v-.484a1.393,1.393,0,0,0-.3-.937,1.183,1.183,0,0,0-.949-.352,1.345,1.345,0,0,0-.895.273.929.929,0,0,0-.324.75H26a2.268,2.268,0,0,1,.453-1.359,3,3,0,0,1,1.281-.98,4.669,4.669,0,0,1,1.859-.355,3.689,3.689,0,0,1,2.48.785A2.747,2.747,0,0,1,33,27.383v3.664a4.041,4.041,0,0,0,.336,1.82V33Zm-1.867-1.57a1.945,1.945,0,0,0,.922-.223,1.462,1.462,0,0,0,.625-.6V29.156h-.844q-1.7,0-1.8,1.172l-.008.133a.9.9,0,0,0,.3.7A1.153,1.153,0,0,0,29.184,31.43ZM37.113,33H34.848V21h2.266Zm6.922-.859a2.831,2.831,0,0,1-2.312,1.016,2.67,2.67,0,0,1-2.074-.781,3.335,3.335,0,0,1-.73-2.289V24.547h2.258v5.467q0,1.322,1.2,1.322a1.63,1.63,0,0,0,1.578-.8V24.547h2.266V33H44.1ZM52.824,33a2.507,2.507,0,0,1-.227-.758,2.732,2.732,0,0,1-2.133.914,3,3,0,0,1-2.059-.719,2.312,2.312,0,0,1-.816-1.812,2.389,2.389,0,0,1,1-2.062,4.915,4.915,0,0,1,2.879-.727H52.5v-.484a1.393,1.393,0,0,0-.3-.937,1.183,1.183,0,0,0-.949-.352,1.345,1.345,0,0,0-.895.273.929.929,0,0,0-.324.75H47.777a2.268,2.268,0,0,1,.453-1.359,3,3,0,0,1,1.281-.98,4.669,4.669,0,0,1,1.859-.355,3.689,3.689,0,0,1,2.48.785,2.747,2.747,0,0,1,.918,2.207v3.664a4.041,4.041,0,0,0,.336,1.82V33Zm-1.867-1.57a1.945,1.945,0,0,0,.922-.223,1.462,1.462,0,0,0,.625-.6V29.156H51.66q-1.7,0-1.8,1.172l-.008.133a.9.9,0,0,0,.3.7A1.153,1.153,0,0,0,50.957,31.43Zm9.063-.094a1.481,1.481,0,0,0,1.016-.344,1.2,1.2,0,0,0,.406-.914h2.117a2.9,2.9,0,0,1-.469,1.574,3.093,3.093,0,0,1-1.262,1.109,3.949,3.949,0,0,1-1.77.395A3.67,3.67,0,0,1,57.2,32a4.56,4.56,0,0,1-1.047-3.184v-.148a4.508,4.508,0,0,1,1.039-3.117,3.627,3.627,0,0,1,2.852-1.164,3.555,3.555,0,0,1,2.543.9,3.2,3.2,0,0,1,.973,2.4H61.441a1.551,1.551,0,0,0-.406-1.072,1.51,1.51,0,0,0-2.223.163,3.333,3.333,0,0,0-.4,1.866v.235a3.375,3.375,0,0,0,.4,1.878A1.377,1.377,0,0,0,60.02,31.336ZM67.23,33H64.965V24.547H67.23Zm-2.4-10.641a1.112,1.112,0,0,1,.34-.836,1.465,1.465,0,0,1,1.848,0,1.193,1.193,0,0,1,0,1.68,1.448,1.448,0,0,1-1.836,0A1.108,1.108,0,0,1,64.832,22.359ZM68.738,28.7a5.013,5.013,0,0,1,.484-2.242,3.546,3.546,0,0,1,1.395-1.523,4.069,4.069,0,0,1,2.113-.539,3.849,3.849,0,0,1,2.793,1.047,4.2,4.2,0,0,1,1.207,2.844l.016.578A4.418,4.418,0,0,1,75.66,31.98a4.209,4.209,0,0,1-5.832,0,4.5,4.5,0,0,1-1.09-3.187Zm2.258.16a3.16,3.16,0,0,0,.453,1.843,1.628,1.628,0,0,0,2.578.008,3.457,3.457,0,0,0,.461-2.015,3.128,3.128,0,0,0-.461-1.831,1.5,1.5,0,0,0-1.3-.649,1.474,1.474,0,0,0-1.281.646A3.516,3.516,0,0,0,71,28.856ZM73.176,21h2.461l-2.164,2.422H71.637Zm7.039,3.547.07.977a2.951,2.951,0,0,1,2.43-1.133,2.453,2.453,0,0,1,2,.789,3.682,3.682,0,0,1,.672,2.359V33H83.129V27.581a1.47,1.47,0,0,0-.312-1.045,1.4,1.4,0,0,0-1.039-.325,1.553,1.553,0,0,0-1.43.814V33H78.09V24.547Z" transform="translate(-4040.21 -12149.07)" fill="#12263f"/>
    <path id="Trazado_195671" data-name="Trazado 195671" d="M6.332,15H3.988V3.625H6.332Zm4.1-8.453.07.977a2.951,2.951,0,0,1,2.43-1.133,2.453,2.453,0,0,1,2,.789,3.682,3.682,0,0,1,.672,2.359V15H13.348V9.581a1.47,1.47,0,0,0-.312-1.045A1.4,1.4,0,0,0,12,8.211a1.553,1.553,0,0,0-1.43.814V15H8.309V6.547Zm6.531,4.164a5.094,5.094,0,0,1,.887-3.148,2.877,2.877,0,0,1,2.426-1.172,2.589,2.589,0,0,1,2.039.922V3h2.266V15H22.543l-.109-.9a2.657,2.657,0,0,1-2.172,1.055,2.869,2.869,0,0,1-2.395-1.176A5.258,5.258,0,0,1,16.965,10.711Zm2.258.161a3.355,3.355,0,0,0,.414,1.829,1.348,1.348,0,0,0,1.2.636,1.51,1.51,0,0,0,1.477-.887V9.1a1.489,1.489,0,0,0-1.461-.887Q19.223,8.211,19.223,10.872ZM28.715,15H26.449V6.547h2.266Zm-2.4-10.641a1.112,1.112,0,0,1,.34-.836,1.465,1.465,0,0,1,1.848,0,1.105,1.105,0,0,1,.344.836A1.108,1.108,0,0,1,28.5,5.2a1.448,1.448,0,0,1-1.836,0A1.108,1.108,0,0,1,26.316,4.359Zm7.773,8.977a1.481,1.481,0,0,0,1.016-.344,1.2,1.2,0,0,0,.406-.914h2.117a2.9,2.9,0,0,1-.469,1.574A3.093,3.093,0,0,1,35.9,14.762a3.949,3.949,0,0,1-1.77.395A3.67,3.67,0,0,1,31.27,14a4.56,4.56,0,0,1-1.047-3.184v-.148a4.508,4.508,0,0,1,1.039-3.117,3.627,3.627,0,0,1,2.852-1.164,3.555,3.555,0,0,1,2.543.9,3.2,3.2,0,0,1,.973,2.4H35.512a1.551,1.551,0,0,0-.406-1.072,1.51,1.51,0,0,0-2.223.163,3.333,3.333,0,0,0-.4,1.866v.235a3.375,3.375,0,0,0,.4,1.878A1.377,1.377,0,0,0,34.09,13.336ZM43.816,15a2.507,2.507,0,0,1-.227-.758,2.732,2.732,0,0,1-2.133.914,3,3,0,0,1-2.059-.719,2.312,2.312,0,0,1-.816-1.812,2.389,2.389,0,0,1,1-2.062,4.915,4.915,0,0,1,2.879-.727H43.5V9.352a1.393,1.393,0,0,0-.3-.937,1.183,1.183,0,0,0-.949-.352,1.345,1.345,0,0,0-.895.273.929.929,0,0,0-.324.75H38.77a2.268,2.268,0,0,1,.453-1.359,3,3,0,0,1,1.281-.98,4.669,4.669,0,0,1,1.859-.355,3.689,3.689,0,0,1,2.48.785,2.747,2.747,0,0,1,.918,2.207v3.664a4.041,4.041,0,0,0,.336,1.82V15Zm-1.867-1.57a1.945,1.945,0,0,0,.922-.223,1.462,1.462,0,0,0,.625-.6V11.156h-.844q-1.7,0-1.8,1.172l-.008.133a.9.9,0,0,0,.3.7A1.153,1.153,0,0,0,41.949,13.43Zm5.2-2.719a5.094,5.094,0,0,1,.887-3.148,2.877,2.877,0,0,1,2.426-1.172,2.589,2.589,0,0,1,2.039.922V3h2.266V15H52.723l-.109-.9a2.657,2.657,0,0,1-2.172,1.055,2.869,2.869,0,0,1-2.395-1.176A5.258,5.258,0,0,1,47.145,10.711Zm2.258.161a3.355,3.355,0,0,0,.414,1.829,1.348,1.348,0,0,0,1.2.636,1.51,1.51,0,0,0,1.477-.887V9.1a1.489,1.489,0,0,0-1.461-.887Q49.4,8.211,49.4,10.872ZM56.16,10.7a5.013,5.013,0,0,1,.484-2.242A3.546,3.546,0,0,1,58.039,6.93a4.069,4.069,0,0,1,2.113-.539,3.849,3.849,0,0,1,2.793,1.047,4.2,4.2,0,0,1,1.207,2.844l.016.578a4.418,4.418,0,0,1-1.086,3.121,4.209,4.209,0,0,1-5.832,0A4.5,4.5,0,0,1,56.16,10.8Zm2.258.16a3.16,3.16,0,0,0,.453,1.843,1.628,1.628,0,0,0,2.578.008,3.457,3.457,0,0,0,.461-2.015,3.128,3.128,0,0,0-.461-1.831,1.5,1.5,0,0,0-1.3-.649,1.474,1.474,0,0,0-1.281.646A3.516,3.516,0,0,0,58.418,10.856ZM70.309,8.664A6.134,6.134,0,0,0,69.5,8.6a1.654,1.654,0,0,0-1.68.867V15H65.559V6.547h2.133l.063,1.008a2.092,2.092,0,0,1,1.883-1.164,2.366,2.366,0,0,1,.7.1Zm4.719,2.047a5.094,5.094,0,0,1,.887-3.148A2.877,2.877,0,0,1,78.34,6.391a2.589,2.589,0,0,1,2.039.922V3h2.266V15H80.605l-.109-.9a2.657,2.657,0,0,1-2.172,1.055A2.869,2.869,0,0,1,75.93,13.98,5.258,5.258,0,0,1,75.027,10.711Zm2.258.161A3.355,3.355,0,0,0,77.7,12.7a1.348,1.348,0,0,0,1.2.636,1.51,1.51,0,0,0,1.477-.887V9.1a1.489,1.489,0,0,0-1.461-.887Q77.285,8.211,77.285,10.872Zm11,4.285a4.15,4.15,0,0,1-3.027-1.141,4.054,4.054,0,0,1-1.168-3.039v-.219a5.106,5.106,0,0,1,.492-2.277,3.612,3.612,0,0,1,1.395-1.547,3.914,3.914,0,0,1,2.059-.543,3.508,3.508,0,0,1,2.73,1.094,4.444,4.444,0,0,1,1,3.1v.922H86.379a2.1,2.1,0,0,0,.66,1.328,2,2,0,0,0,1.395.5,2.437,2.437,0,0,0,2.039-.945l1.109,1.242a3.389,3.389,0,0,1-1.375,1.121A4.511,4.511,0,0,1,88.285,15.156Zm-.258-6.945a1.411,1.411,0,0,0-1.09.455,2.357,2.357,0,0,0-.535,1.3h3.141V9.788a1.681,1.681,0,0,0-.406-1.165A1.456,1.456,0,0,0,88.027,8.211Zm-64,24.945A4.15,4.15,0,0,1,21,32.016a4.054,4.054,0,0,1-1.168-3.039v-.219a5.106,5.106,0,0,1,.492-2.277,3.612,3.612,0,0,1,1.395-1.547,3.914,3.914,0,0,1,2.059-.543,3.508,3.508,0,0,1,2.73,1.094,4.444,4.444,0,0,1,1,3.1v.922H22.117a2.1,2.1,0,0,0,.66,1.328,2,2,0,0,0,1.395.5,2.437,2.437,0,0,0,2.039-.945l1.109,1.242a3.389,3.389,0,0,1-1.375,1.121A4.511,4.511,0,0,1,24.023,33.156Zm-.258-6.945a1.411,1.411,0,0,0-1.09.455,2.357,2.357,0,0,0-.535,1.3h3.141v-.181a1.681,1.681,0,0,0-.406-1.165A1.456,1.456,0,0,0,23.766,26.211ZM29.328,33V26.2H28.07V24.547h1.258v-.391a3.17,3.17,0,0,1,.98-2.457,3.945,3.945,0,0,1,2.723-.863,9.031,9.031,0,0,1,2.563.461l-.328,1.867a10,10,0,0,0-1.187-.293,5.834,5.834,0,0,0-.906-.066q-1.578,0-1.578,1.4v.344h1.664V26.2H31.594V33Zm7.32,0H34.383V24.547h2.266Zm5.383-1.664a1.481,1.481,0,0,0,1.016-.344,1.2,1.2,0,0,0,.406-.914H45.57a2.9,2.9,0,0,1-.469,1.574,3.093,3.093,0,0,1-1.262,1.109,3.949,3.949,0,0,1-1.77.395A3.67,3.67,0,0,1,39.211,32a4.56,4.56,0,0,1-1.047-3.184v-.148A4.508,4.508,0,0,1,39.2,25.555a3.627,3.627,0,0,1,2.852-1.164,3.555,3.555,0,0,1,2.543.9,3.2,3.2,0,0,1,.973,2.4H43.453a1.551,1.551,0,0,0-.406-1.072,1.51,1.51,0,0,0-2.223.163,3.333,3.333,0,0,0-.4,1.866v.235a3.375,3.375,0,0,0,.4,1.878A1.377,1.377,0,0,0,42.031,31.336ZM51.758,33a2.507,2.507,0,0,1-.227-.758,2.732,2.732,0,0,1-2.133.914,3,3,0,0,1-2.059-.719,2.312,2.312,0,0,1-.816-1.812,2.389,2.389,0,0,1,1-2.062,4.915,4.915,0,0,1,2.879-.727h1.039v-.484a1.393,1.393,0,0,0-.3-.937,1.183,1.183,0,0,0-.949-.352,1.345,1.345,0,0,0-.895.273.929.929,0,0,0-.324.75H46.711a2.268,2.268,0,0,1,.453-1.359,3,3,0,0,1,1.281-.98,4.669,4.669,0,0,1,1.859-.355,3.689,3.689,0,0,1,2.48.785,2.747,2.747,0,0,1,.918,2.207v3.664a4.041,4.041,0,0,0,.336,1.82V33Zm-1.867-1.57a1.945,1.945,0,0,0,.922-.223,1.462,1.462,0,0,0,.625-.6V29.156h-.844q-1.7,0-1.8,1.172l-.008.133a.9.9,0,0,0,.3.7A1.153,1.153,0,0,0,49.891,31.43Zm9.063-.094a1.481,1.481,0,0,0,1.016-.344,1.2,1.2,0,0,0,.406-.914h2.117a2.9,2.9,0,0,1-.469,1.574,3.093,3.093,0,0,1-1.262,1.109,3.949,3.949,0,0,1-1.77.395A3.67,3.67,0,0,1,56.133,32a4.56,4.56,0,0,1-1.047-3.184v-.148a4.508,4.508,0,0,1,1.039-3.117,3.627,3.627,0,0,1,2.852-1.164,3.555,3.555,0,0,1,2.543.9,3.2,3.2,0,0,1,.973,2.4H60.375a1.551,1.551,0,0,0-.406-1.072,1.51,1.51,0,0,0-2.223.163,3.333,3.333,0,0,0-.4,1.866v.235a3.375,3.375,0,0,0,.4,1.878A1.377,1.377,0,0,0,58.953,31.336ZM66.164,33H63.9V24.547h2.266Zm-2.4-10.641a1.112,1.112,0,0,1,.34-.836,1.465,1.465,0,0,1,1.848,0,1.193,1.193,0,0,1,0,1.68,1.448,1.448,0,0,1-1.836,0A1.108,1.108,0,0,1,63.766,22.359ZM72.922,33a2.507,2.507,0,0,1-.227-.758,2.732,2.732,0,0,1-2.133.914,3,3,0,0,1-2.059-.719,2.312,2.312,0,0,1-.816-1.812,2.389,2.389,0,0,1,1-2.062,4.915,4.915,0,0,1,2.879-.727H72.6v-.484a1.393,1.393,0,0,0-.3-.937,1.183,1.183,0,0,0-.949-.352,1.345,1.345,0,0,0-.895.273.929.929,0,0,0-.324.75H67.875a2.268,2.268,0,0,1,.453-1.359,3,3,0,0,1,1.281-.98,4.669,4.669,0,0,1,1.859-.355,3.689,3.689,0,0,1,2.48.785,2.747,2.747,0,0,1,.918,2.207v3.664a4.041,4.041,0,0,0,.336,1.82V33Zm-1.867-1.57a1.945,1.945,0,0,0,.922-.223,1.462,1.462,0,0,0,.625-.6V29.156h-.844q-1.7,0-1.8,1.172l-.008.133a.9.9,0,0,0,.3.7A1.153,1.153,0,0,0,71.055,31.43Z" transform="translate(-3829.21 -12225.467)" fill="#12263f"/>
    <path id="Trazado_195672" data-name="Trazado 195672" d="M6.332,15H3.988V3.625H6.332Zm4.1-8.453.07.977a2.951,2.951,0,0,1,2.43-1.133,2.453,2.453,0,0,1,2,.789,3.682,3.682,0,0,1,.672,2.359V15H13.348V9.581a1.47,1.47,0,0,0-.312-1.045A1.4,1.4,0,0,0,12,8.211a1.553,1.553,0,0,0-1.43.814V15H8.309V6.547Zm6.531,4.164a5.094,5.094,0,0,1,.887-3.148,2.877,2.877,0,0,1,2.426-1.172,2.589,2.589,0,0,1,2.039.922V3h2.266V15H22.543l-.109-.9a2.657,2.657,0,0,1-2.172,1.055,2.869,2.869,0,0,1-2.395-1.176A5.258,5.258,0,0,1,16.965,10.711Zm2.258.161a3.355,3.355,0,0,0,.414,1.829,1.348,1.348,0,0,0,1.2.636,1.51,1.51,0,0,0,1.477-.887V9.1a1.489,1.489,0,0,0-1.461-.887Q19.223,8.211,19.223,10.872ZM28.715,15H26.449V6.547h2.266Zm-2.4-10.641a1.112,1.112,0,0,1,.34-.836,1.465,1.465,0,0,1,1.848,0,1.105,1.105,0,0,1,.344.836A1.108,1.108,0,0,1,28.5,5.2a1.448,1.448,0,0,1-1.836,0A1.108,1.108,0,0,1,26.316,4.359Zm7.773,8.977a1.481,1.481,0,0,0,1.016-.344,1.2,1.2,0,0,0,.406-.914h2.117a2.9,2.9,0,0,1-.469,1.574A3.093,3.093,0,0,1,35.9,14.762a3.949,3.949,0,0,1-1.77.395A3.67,3.67,0,0,1,31.27,14a4.56,4.56,0,0,1-1.047-3.184v-.148a4.508,4.508,0,0,1,1.039-3.117,3.627,3.627,0,0,1,2.852-1.164,3.555,3.555,0,0,1,2.543.9,3.2,3.2,0,0,1,.973,2.4H35.512a1.551,1.551,0,0,0-.406-1.072,1.51,1.51,0,0,0-2.223.163,3.333,3.333,0,0,0-.4,1.866v.235a3.375,3.375,0,0,0,.4,1.878A1.377,1.377,0,0,0,34.09,13.336ZM43.816,15a2.507,2.507,0,0,1-.227-.758,2.732,2.732,0,0,1-2.133.914,3,3,0,0,1-2.059-.719,2.312,2.312,0,0,1-.816-1.812,2.389,2.389,0,0,1,1-2.062,4.915,4.915,0,0,1,2.879-.727H43.5V9.352a1.393,1.393,0,0,0-.3-.937,1.183,1.183,0,0,0-.949-.352,1.345,1.345,0,0,0-.895.273.929.929,0,0,0-.324.75H38.77a2.268,2.268,0,0,1,.453-1.359,3,3,0,0,1,1.281-.98,4.669,4.669,0,0,1,1.859-.355,3.689,3.689,0,0,1,2.48.785,2.747,2.747,0,0,1,.918,2.207v3.664a4.041,4.041,0,0,0,.336,1.82V15Zm-1.867-1.57a1.945,1.945,0,0,0,.922-.223,1.462,1.462,0,0,0,.625-.6V11.156h-.844q-1.7,0-1.8,1.172l-.008.133a.9.9,0,0,0,.3.7A1.153,1.153,0,0,0,41.949,13.43Zm5.2-2.719a5.094,5.094,0,0,1,.887-3.148,2.877,2.877,0,0,1,2.426-1.172,2.589,2.589,0,0,1,2.039.922V3h2.266V15H52.723l-.109-.9a2.657,2.657,0,0,1-2.172,1.055,2.869,2.869,0,0,1-2.395-1.176A5.258,5.258,0,0,1,47.145,10.711Zm2.258.161a3.355,3.355,0,0,0,.414,1.829,1.348,1.348,0,0,0,1.2.636,1.51,1.51,0,0,0,1.477-.887V9.1a1.489,1.489,0,0,0-1.461-.887Q49.4,8.211,49.4,10.872ZM56.16,10.7a5.013,5.013,0,0,1,.484-2.242A3.546,3.546,0,0,1,58.039,6.93a4.069,4.069,0,0,1,2.113-.539,3.849,3.849,0,0,1,2.793,1.047,4.2,4.2,0,0,1,1.207,2.844l.016.578a4.418,4.418,0,0,1-1.086,3.121,4.209,4.209,0,0,1-5.832,0A4.5,4.5,0,0,1,56.16,10.8Zm2.258.16a3.16,3.16,0,0,0,.453,1.843,1.628,1.628,0,0,0,2.578.008,3.457,3.457,0,0,0,.461-2.015,3.128,3.128,0,0,0-.461-1.831,1.5,1.5,0,0,0-1.3-.649,1.474,1.474,0,0,0-1.281.646A3.516,3.516,0,0,0,58.418,10.856ZM70.309,8.664A6.134,6.134,0,0,0,69.5,8.6a1.654,1.654,0,0,0-1.68.867V15H65.559V6.547h2.133l.063,1.008a2.092,2.092,0,0,1,1.883-1.164,2.366,2.366,0,0,1,.7.1Zm4.719,2.047a5.094,5.094,0,0,1,.887-3.148A2.877,2.877,0,0,1,78.34,6.391a2.589,2.589,0,0,1,2.039.922V3h2.266V15H80.605l-.109-.9a2.657,2.657,0,0,1-2.172,1.055A2.869,2.869,0,0,1,75.93,13.98,5.258,5.258,0,0,1,75.027,10.711Zm2.258.161A3.355,3.355,0,0,0,77.7,12.7a1.348,1.348,0,0,0,1.2.636,1.51,1.51,0,0,0,1.477-.887V9.1a1.489,1.489,0,0,0-1.461-.887Q77.285,8.211,77.285,10.872Zm11,4.285a4.15,4.15,0,0,1-3.027-1.141,4.054,4.054,0,0,1-1.168-3.039v-.219a5.106,5.106,0,0,1,.492-2.277,3.612,3.612,0,0,1,1.395-1.547,3.914,3.914,0,0,1,2.059-.543,3.508,3.508,0,0,1,2.73,1.094,4.444,4.444,0,0,1,1,3.1v.922H86.379a2.1,2.1,0,0,0,.66,1.328,2,2,0,0,0,1.395.5,2.437,2.437,0,0,0,2.039-.945l1.109,1.242a3.389,3.389,0,0,1-1.375,1.121A4.511,4.511,0,0,1,88.285,15.156Zm-.258-6.945a1.411,1.411,0,0,0-1.09.455,2.357,2.357,0,0,0-.535,1.3h3.141V9.788a1.681,1.681,0,0,0-.406-1.165A1.456,1.456,0,0,0,88.027,8.211ZM17.387,33.156a4.15,4.15,0,0,1-3.027-1.141,4.054,4.054,0,0,1-1.168-3.039v-.219a5.106,5.106,0,0,1,.492-2.277,3.612,3.612,0,0,1,1.395-1.547,3.914,3.914,0,0,1,2.059-.543,3.508,3.508,0,0,1,2.73,1.094,4.444,4.444,0,0,1,1,3.1v.922H15.48a2.1,2.1,0,0,0,.66,1.328,2,2,0,0,0,1.395.5,2.437,2.437,0,0,0,2.039-.945l1.109,1.242a3.389,3.389,0,0,1-1.375,1.121A4.511,4.511,0,0,1,17.387,33.156Zm-.258-6.945a1.411,1.411,0,0,0-1.09.455,2.357,2.357,0,0,0-.535,1.3h3.141v-.181a1.681,1.681,0,0,0-.406-1.165A1.456,1.456,0,0,0,17.129,26.211ZM22.691,33V26.2H21.434V24.547h1.258v-.391a3.17,3.17,0,0,1,.98-2.457,3.945,3.945,0,0,1,2.723-.863,9.031,9.031,0,0,1,2.563.461l-.328,1.867a10,10,0,0,0-1.187-.293,5.834,5.834,0,0,0-.906-.066q-1.578,0-1.578,1.4v.344h1.664V26.2H24.957V33Zm7.32,0H27.746V24.547h2.266Zm5.383-1.664a1.481,1.481,0,0,0,1.016-.344,1.2,1.2,0,0,0,.406-.914h2.117a2.9,2.9,0,0,1-.469,1.574A3.093,3.093,0,0,1,37.2,32.762a3.949,3.949,0,0,1-1.77.395A3.67,3.67,0,0,1,32.574,32a4.56,4.56,0,0,1-1.047-3.184v-.148a4.508,4.508,0,0,1,1.039-3.117,3.627,3.627,0,0,1,2.852-1.164,3.555,3.555,0,0,1,2.543.9,3.2,3.2,0,0,1,.973,2.4H36.816a1.551,1.551,0,0,0-.406-1.072,1.51,1.51,0,0,0-2.223.163,3.333,3.333,0,0,0-.4,1.866v.235a3.375,3.375,0,0,0,.4,1.878A1.377,1.377,0,0,0,35.395,31.336ZM42.605,33H40.34V24.547h2.266Zm-2.4-10.641a1.112,1.112,0,0,1,.34-.836,1.465,1.465,0,0,1,1.848,0,1.193,1.193,0,0,1,0,1.68,1.448,1.448,0,0,1-1.836,0A1.108,1.108,0,0,1,40.207,22.359Zm8.148,10.8a4.15,4.15,0,0,1-3.027-1.141,4.054,4.054,0,0,1-1.168-3.039v-.219a5.106,5.106,0,0,1,.492-2.277,3.612,3.612,0,0,1,1.395-1.547,3.914,3.914,0,0,1,2.059-.543,3.508,3.508,0,0,1,2.73,1.094,4.444,4.444,0,0,1,1,3.1v.922H46.449a2.1,2.1,0,0,0,.66,1.328,2,2,0,0,0,1.395.5,2.437,2.437,0,0,0,2.039-.945l1.109,1.242a3.389,3.389,0,0,1-1.375,1.121A4.511,4.511,0,0,1,48.355,33.156ZM48.1,26.211a1.411,1.411,0,0,0-1.09.455,2.357,2.357,0,0,0-.535,1.3h3.141v-.181a1.681,1.681,0,0,0-.406-1.165A1.456,1.456,0,0,0,48.1,26.211Zm7.094-1.664.07.977a2.951,2.951,0,0,1,2.43-1.133,2.453,2.453,0,0,1,2,.789,3.682,3.682,0,0,1,.672,2.359V33H58.105V27.581a1.47,1.47,0,0,0-.312-1.045,1.4,1.4,0,0,0-1.039-.325,1.553,1.553,0,0,0-1.43.814V33H53.066V24.547Zm10.4,6.789a1.481,1.481,0,0,0,1.016-.344,1.2,1.2,0,0,0,.406-.914h2.117a2.9,2.9,0,0,1-.469,1.574A3.093,3.093,0,0,1,67.4,32.762a3.949,3.949,0,0,1-1.77.395A3.67,3.67,0,0,1,62.77,32a4.56,4.56,0,0,1-1.047-3.184v-.148a4.508,4.508,0,0,1,1.039-3.117,3.627,3.627,0,0,1,2.852-1.164,3.555,3.555,0,0,1,2.543.9,3.2,3.2,0,0,1,.973,2.4H67.012a1.551,1.551,0,0,0-.406-1.072,1.51,1.51,0,0,0-2.223.163,3.333,3.333,0,0,0-.4,1.866v.235a3.375,3.375,0,0,0,.4,1.878A1.377,1.377,0,0,0,65.59,31.336ZM72.8,33H70.535V24.547H72.8ZM70.4,22.359a1.112,1.112,0,0,1,.34-.836,1.465,1.465,0,0,1,1.848,0,1.193,1.193,0,0,1,0,1.68,1.448,1.448,0,0,1-1.836,0A1.108,1.108,0,0,1,70.4,22.359ZM79.559,33a2.507,2.507,0,0,1-.227-.758,2.732,2.732,0,0,1-2.133.914,3,3,0,0,1-2.059-.719,2.312,2.312,0,0,1-.816-1.812,2.389,2.389,0,0,1,1-2.062,4.915,4.915,0,0,1,2.879-.727h1.039v-.484a1.393,1.393,0,0,0-.3-.937,1.183,1.183,0,0,0-.949-.352,1.345,1.345,0,0,0-.895.273.929.929,0,0,0-.324.75H74.512a2.268,2.268,0,0,1,.453-1.359,3,3,0,0,1,1.281-.98,4.669,4.669,0,0,1,1.859-.355,3.689,3.689,0,0,1,2.48.785,2.747,2.747,0,0,1,.918,2.207v3.664a4.041,4.041,0,0,0,.336,1.82V33Zm-1.867-1.57a1.945,1.945,0,0,0,.922-.223,1.462,1.462,0,0,0,.625-.6V29.156h-.844q-1.7,0-1.8,1.172l-.008.133a.9.9,0,0,0,.3.7A1.153,1.153,0,0,0,77.691,31.43Z" transform="translate(-3619.105 -12146.467)" fill="#12263f"/>
    <path id="Trazado_195673" data-name="Trazado 195673" d="M6.332,15H3.988V3.625H6.332Zm4.1-8.453.07.977a2.951,2.951,0,0,1,2.43-1.133,2.453,2.453,0,0,1,2,.789,3.682,3.682,0,0,1,.672,2.359V15H13.348V9.581a1.47,1.47,0,0,0-.312-1.045A1.4,1.4,0,0,0,12,8.211a1.553,1.553,0,0,0-1.43.814V15H8.309V6.547Zm6.531,4.164a5.094,5.094,0,0,1,.887-3.148,2.877,2.877,0,0,1,2.426-1.172,2.589,2.589,0,0,1,2.039.922V3h2.266V15H22.543l-.109-.9a2.657,2.657,0,0,1-2.172,1.055,2.869,2.869,0,0,1-2.395-1.176A5.258,5.258,0,0,1,16.965,10.711Zm2.258.161a3.355,3.355,0,0,0,.414,1.829,1.348,1.348,0,0,0,1.2.636,1.51,1.51,0,0,0,1.477-.887V9.1a1.489,1.489,0,0,0-1.461-.887Q19.223,8.211,19.223,10.872ZM28.715,15H26.449V6.547h2.266Zm-2.4-10.641a1.112,1.112,0,0,1,.34-.836,1.465,1.465,0,0,1,1.848,0,1.105,1.105,0,0,1,.344.836A1.108,1.108,0,0,1,28.5,5.2a1.448,1.448,0,0,1-1.836,0A1.108,1.108,0,0,1,26.316,4.359Zm7.773,8.977a1.481,1.481,0,0,0,1.016-.344,1.2,1.2,0,0,0,.406-.914h2.117a2.9,2.9,0,0,1-.469,1.574A3.093,3.093,0,0,1,35.9,14.762a3.949,3.949,0,0,1-1.77.395A3.67,3.67,0,0,1,31.27,14a4.56,4.56,0,0,1-1.047-3.184v-.148a4.508,4.508,0,0,1,1.039-3.117,3.627,3.627,0,0,1,2.852-1.164,3.555,3.555,0,0,1,2.543.9,3.2,3.2,0,0,1,.973,2.4H35.512a1.551,1.551,0,0,0-.406-1.072,1.51,1.51,0,0,0-2.223.163,3.333,3.333,0,0,0-.4,1.866v.235a3.375,3.375,0,0,0,.4,1.878A1.377,1.377,0,0,0,34.09,13.336ZM43.816,15a2.507,2.507,0,0,1-.227-.758,2.732,2.732,0,0,1-2.133.914,3,3,0,0,1-2.059-.719,2.312,2.312,0,0,1-.816-1.812,2.389,2.389,0,0,1,1-2.062,4.915,4.915,0,0,1,2.879-.727H43.5V9.352a1.393,1.393,0,0,0-.3-.937,1.183,1.183,0,0,0-.949-.352,1.345,1.345,0,0,0-.895.273.929.929,0,0,0-.324.75H38.77a2.268,2.268,0,0,1,.453-1.359,3,3,0,0,1,1.281-.98,4.669,4.669,0,0,1,1.859-.355,3.689,3.689,0,0,1,2.48.785,2.747,2.747,0,0,1,.918,2.207v3.664a4.041,4.041,0,0,0,.336,1.82V15Zm-1.867-1.57a1.945,1.945,0,0,0,.922-.223,1.462,1.462,0,0,0,.625-.6V11.156h-.844q-1.7,0-1.8,1.172l-.008.133a.9.9,0,0,0,.3.7A1.153,1.153,0,0,0,41.949,13.43Zm5.2-2.719a5.094,5.094,0,0,1,.887-3.148,2.877,2.877,0,0,1,2.426-1.172,2.589,2.589,0,0,1,2.039.922V3h2.266V15H52.723l-.109-.9a2.657,2.657,0,0,1-2.172,1.055,2.869,2.869,0,0,1-2.395-1.176A5.258,5.258,0,0,1,47.145,10.711Zm2.258.161a3.355,3.355,0,0,0,.414,1.829,1.348,1.348,0,0,0,1.2.636,1.51,1.51,0,0,0,1.477-.887V9.1a1.489,1.489,0,0,0-1.461-.887Q49.4,8.211,49.4,10.872ZM56.16,10.7a5.013,5.013,0,0,1,.484-2.242A3.546,3.546,0,0,1,58.039,6.93a4.069,4.069,0,0,1,2.113-.539,3.849,3.849,0,0,1,2.793,1.047,4.2,4.2,0,0,1,1.207,2.844l.016.578a4.418,4.418,0,0,1-1.086,3.121,4.209,4.209,0,0,1-5.832,0A4.5,4.5,0,0,1,56.16,10.8Zm2.258.16a3.16,3.16,0,0,0,.453,1.843,1.628,1.628,0,0,0,2.578.008,3.457,3.457,0,0,0,.461-2.015,3.128,3.128,0,0,0-.461-1.831,1.5,1.5,0,0,0-1.3-.649,1.474,1.474,0,0,0-1.281.646A3.516,3.516,0,0,0,58.418,10.856ZM70.309,8.664A6.134,6.134,0,0,0,69.5,8.6a1.654,1.654,0,0,0-1.68.867V15H65.559V6.547h2.133l.063,1.008a2.092,2.092,0,0,1,1.883-1.164,2.366,2.366,0,0,1,.7.1Zm4.719,2.047a5.094,5.094,0,0,1,.887-3.148A2.877,2.877,0,0,1,78.34,6.391a2.589,2.589,0,0,1,2.039.922V3h2.266V15H80.605l-.109-.9a2.657,2.657,0,0,1-2.172,1.055A2.869,2.869,0,0,1,75.93,13.98,5.258,5.258,0,0,1,75.027,10.711Zm2.258.161A3.355,3.355,0,0,0,77.7,12.7a1.348,1.348,0,0,0,1.2.636,1.51,1.51,0,0,0,1.477-.887V9.1a1.489,1.489,0,0,0-1.461-.887Q77.285,8.211,77.285,10.872Zm11,4.285a4.15,4.15,0,0,1-3.027-1.141,4.054,4.054,0,0,1-1.168-3.039v-.219a5.106,5.106,0,0,1,.492-2.277,3.612,3.612,0,0,1,1.395-1.547,3.914,3.914,0,0,1,2.059-.543,3.508,3.508,0,0,1,2.73,1.094,4.444,4.444,0,0,1,1,3.1v.922H86.379a2.1,2.1,0,0,0,.66,1.328,2,2,0,0,0,1.395.5,2.437,2.437,0,0,0,2.039-.945l1.109,1.242a3.389,3.389,0,0,1-1.375,1.121A4.511,4.511,0,0,1,88.285,15.156Zm-.258-6.945a1.411,1.411,0,0,0-1.09.455,2.357,2.357,0,0,0-.535,1.3h3.141V9.788a1.681,1.681,0,0,0-.406-1.165A1.456,1.456,0,0,0,88.027,8.211Zm-66.82,20.5a4.954,4.954,0,0,1,.926-3.133,3,3,0,0,1,2.5-1.187,2.631,2.631,0,0,1,2.164.953l.094-.8h2.047v8.172a3.613,3.613,0,0,1-.5,1.93,3.236,3.236,0,0,1-1.418,1.25,4.985,4.985,0,0,1-2.141.43,4.635,4.635,0,0,1-1.812-.371A3.217,3.217,0,0,1,21.723,35l1-1.375a2.645,2.645,0,0,0,2.047.945,1.936,1.936,0,0,0,1.4-.48,1.8,1.8,0,0,0,.5-1.363v-.453a2.612,2.612,0,0,1-2.055.883,2.992,2.992,0,0,1-2.465-1.191,4.953,4.953,0,0,1-.941-3.16Zm2.258.161a3.1,3.1,0,0,0,.461,1.809,1.465,1.465,0,0,0,1.266.655,1.567,1.567,0,0,0,1.477-.777V26.988a1.563,1.563,0,0,0-1.461-.777,1.474,1.474,0,0,0-1.277.667A3.5,3.5,0,0,0,23.465,28.872Zm11.094,4.285a4.15,4.15,0,0,1-3.027-1.141,4.054,4.054,0,0,1-1.168-3.039v-.219a5.106,5.106,0,0,1,.492-2.277,3.612,3.612,0,0,1,1.395-1.547,3.914,3.914,0,0,1,2.059-.543,3.508,3.508,0,0,1,2.73,1.094,4.444,4.444,0,0,1,1,3.1v.922H32.652a2.1,2.1,0,0,0,.66,1.328,2,2,0,0,0,1.395.5,2.437,2.437,0,0,0,2.039-.945l1.109,1.242a3.389,3.389,0,0,1-1.375,1.121A4.511,4.511,0,0,1,34.559,33.156ZM34.3,26.211a1.411,1.411,0,0,0-1.09.455,2.357,2.357,0,0,0-.535,1.3h3.141v-.181a1.681,1.681,0,0,0-.406-1.165A1.456,1.456,0,0,0,34.3,26.211Zm9.594,4.453a.727.727,0,0,0-.41-.652,4.659,4.659,0,0,0-1.316-.426q-3.016-.633-3.016-2.562a2.323,2.323,0,0,1,.934-1.879,3.766,3.766,0,0,1,2.441-.754,4.053,4.053,0,0,1,2.574.758,2.388,2.388,0,0,1,.965,1.969H43.809a1.092,1.092,0,0,0-.312-.8A1.322,1.322,0,0,0,42.52,26a1.351,1.351,0,0,0-.883.258.814.814,0,0,0-.312.656.7.7,0,0,0,.355.605,3.657,3.657,0,0,0,1.2.4A9.8,9.8,0,0,1,44.3,28.3,2.336,2.336,0,0,1,46.09,30.57a2.2,2.2,0,0,1-.992,1.871,4.28,4.28,0,0,1-2.562.715,4.47,4.47,0,0,1-1.887-.379,3.166,3.166,0,0,1-1.293-1.039,2.414,2.414,0,0,1-.469-1.426h2.141a1.179,1.179,0,0,0,.445.922,1.766,1.766,0,0,0,1.109.32,1.635,1.635,0,0,0,.98-.246A.766.766,0,0,0,43.895,30.664Zm6.352-8.2v2.078h1.445V26.2H50.246v4.219a1.007,1.007,0,0,0,.18.672.9.9,0,0,0,.688.2,3.6,3.6,0,0,0,.664-.055v1.711a4.648,4.648,0,0,1-1.367.2,2.156,2.156,0,0,1-2.422-2.4V26.2H46.754V24.547h1.234V22.469ZM55.332,33H53.066V24.547h2.266Zm-2.4-10.641a1.112,1.112,0,0,1,.34-.836,1.465,1.465,0,0,1,1.848,0,1.193,1.193,0,0,1,0,1.68,1.448,1.448,0,0,1-1.836,0A1.108,1.108,0,0,1,52.934,22.359ZM56.84,28.7a5.013,5.013,0,0,1,.484-2.242,3.546,3.546,0,0,1,1.395-1.523,4.069,4.069,0,0,1,2.113-.539,3.849,3.849,0,0,1,2.793,1.047,4.2,4.2,0,0,1,1.207,2.844l.016.578a4.418,4.418,0,0,1-1.086,3.121,4.209,4.209,0,0,1-5.832,0A4.5,4.5,0,0,1,56.84,28.8Zm2.258.16a3.16,3.16,0,0,0,.453,1.843,1.628,1.628,0,0,0,2.578.008,3.457,3.457,0,0,0,.461-2.015,3.128,3.128,0,0,0-.461-1.831,1.5,1.5,0,0,0-1.3-.649,1.474,1.474,0,0,0-1.281.646A3.516,3.516,0,0,0,59.1,28.856ZM61.277,21h2.461l-2.164,2.422H59.738Zm7.039,3.547.07.977a2.951,2.951,0,0,1,2.43-1.133,2.453,2.453,0,0,1,2,.789,3.682,3.682,0,0,1,.672,2.359V33H71.23V27.581a1.47,1.47,0,0,0-.312-1.045,1.4,1.4,0,0,0-1.039-.325,1.553,1.553,0,0,0-1.43.814V33H66.191V24.547Z" transform="translate(-3409 -12229.719)" fill="#12263f"/>
    <path id="Trazado_195674" data-name="Trazado 195674" d="M11.332,15H8.988V3.625h2.344Zm4.1-8.453.07.977a2.951,2.951,0,0,1,2.43-1.133,2.453,2.453,0,0,1,2,.789,3.682,3.682,0,0,1,.672,2.359V15H18.348V9.581a1.47,1.47,0,0,0-.312-1.045A1.4,1.4,0,0,0,17,8.211a1.553,1.553,0,0,0-1.43.814V15H13.309V6.547Zm6.531,4.164a5.094,5.094,0,0,1,.887-3.148,2.877,2.877,0,0,1,2.426-1.172,2.589,2.589,0,0,1,2.039.922V3h2.266V15H27.543l-.109-.9a2.657,2.657,0,0,1-2.172,1.055,2.869,2.869,0,0,1-2.395-1.176A5.258,5.258,0,0,1,21.965,10.711Zm2.258.161a3.355,3.355,0,0,0,.414,1.829,1.348,1.348,0,0,0,1.2.636,1.51,1.51,0,0,0,1.477-.887V9.1a1.489,1.489,0,0,0-1.461-.887Q24.223,8.211,24.223,10.872ZM33.715,15H31.449V6.547h2.266Zm-2.4-10.641a1.112,1.112,0,0,1,.34-.836,1.465,1.465,0,0,1,1.848,0,1.105,1.105,0,0,1,.344.836A1.108,1.108,0,0,1,33.5,5.2a1.448,1.448,0,0,1-1.836,0A1.108,1.108,0,0,1,31.316,4.359Zm7.773,8.977a1.481,1.481,0,0,0,1.016-.344,1.2,1.2,0,0,0,.406-.914h2.117a2.9,2.9,0,0,1-.469,1.574A3.093,3.093,0,0,1,40.9,14.762a3.949,3.949,0,0,1-1.77.395A3.67,3.67,0,0,1,36.27,14a4.56,4.56,0,0,1-1.047-3.184v-.148a4.508,4.508,0,0,1,1.039-3.117,3.627,3.627,0,0,1,2.852-1.164,3.555,3.555,0,0,1,2.543.9,3.2,3.2,0,0,1,.973,2.4H40.512a1.551,1.551,0,0,0-.406-1.072,1.51,1.51,0,0,0-2.223.163,3.333,3.333,0,0,0-.4,1.866v.235a3.375,3.375,0,0,0,.4,1.878A1.377,1.377,0,0,0,39.09,13.336ZM48.816,15a2.507,2.507,0,0,1-.227-.758,2.732,2.732,0,0,1-2.133.914,3,3,0,0,1-2.059-.719,2.312,2.312,0,0,1-.816-1.812,2.389,2.389,0,0,1,1-2.062,4.915,4.915,0,0,1,2.879-.727H48.5V9.352a1.393,1.393,0,0,0-.3-.937,1.183,1.183,0,0,0-.949-.352,1.345,1.345,0,0,0-.895.273.929.929,0,0,0-.324.75H43.77a2.268,2.268,0,0,1,.453-1.359,3,3,0,0,1,1.281-.98,4.669,4.669,0,0,1,1.859-.355,3.689,3.689,0,0,1,2.48.785,2.747,2.747,0,0,1,.918,2.207v3.664a4.041,4.041,0,0,0,.336,1.82V15Zm-1.867-1.57a1.945,1.945,0,0,0,.922-.223,1.462,1.462,0,0,0,.625-.6V11.156h-.844q-1.7,0-1.8,1.172l-.008.133a.9.9,0,0,0,.3.7A1.153,1.153,0,0,0,46.949,13.43Zm5.2-2.719a5.094,5.094,0,0,1,.887-3.148,2.877,2.877,0,0,1,2.426-1.172,2.589,2.589,0,0,1,2.039.922V3h2.266V15H57.723l-.109-.9a2.657,2.657,0,0,1-2.172,1.055,2.869,2.869,0,0,1-2.395-1.176A5.258,5.258,0,0,1,52.145,10.711Zm2.258.161a3.355,3.355,0,0,0,.414,1.829,1.348,1.348,0,0,0,1.2.636,1.51,1.51,0,0,0,1.477-.887V9.1a1.489,1.489,0,0,0-1.461-.887Q54.4,8.211,54.4,10.872ZM61.16,10.7a5.013,5.013,0,0,1,.484-2.242A3.546,3.546,0,0,1,63.039,6.93a4.069,4.069,0,0,1,2.113-.539,3.849,3.849,0,0,1,2.793,1.047,4.2,4.2,0,0,1,1.207,2.844l.016.578a4.418,4.418,0,0,1-1.086,3.121,4.209,4.209,0,0,1-5.832,0A4.5,4.5,0,0,1,61.16,10.8Zm2.258.16a3.16,3.16,0,0,0,.453,1.843,1.628,1.628,0,0,0,2.578.008,3.457,3.457,0,0,0,.461-2.015,3.128,3.128,0,0,0-.461-1.831,1.5,1.5,0,0,0-1.3-.649,1.474,1.474,0,0,0-1.281.646A3.516,3.516,0,0,0,63.418,10.856ZM75.309,8.664A6.134,6.134,0,0,0,74.5,8.6a1.654,1.654,0,0,0-1.68.867V15H70.559V6.547h2.133l.063,1.008a2.092,2.092,0,0,1,1.883-1.164,2.366,2.366,0,0,1,.7.1Zm4.719,2.047a5.094,5.094,0,0,1,.887-3.148A2.877,2.877,0,0,1,83.34,6.391a2.589,2.589,0,0,1,2.039.922V3h2.266V15H85.605l-.109-.9a2.657,2.657,0,0,1-2.172,1.055A2.869,2.869,0,0,1,80.93,13.98,5.258,5.258,0,0,1,80.027,10.711Zm2.258.161A3.355,3.355,0,0,0,82.7,12.7a1.348,1.348,0,0,0,1.2.636,1.51,1.51,0,0,0,1.477-.887V9.1a1.489,1.489,0,0,0-1.461-.887Q82.285,8.211,82.285,10.872Zm11,4.285a4.15,4.15,0,0,1-3.027-1.141,4.054,4.054,0,0,1-1.168-3.039v-.219a5.106,5.106,0,0,1,.492-2.277,3.612,3.612,0,0,1,1.395-1.547,3.914,3.914,0,0,1,2.059-.543,3.508,3.508,0,0,1,2.73,1.094,4.444,4.444,0,0,1,1,3.1v.922H91.379a2.1,2.1,0,0,0,.66,1.328,2,2,0,0,0,1.395.5,2.437,2.437,0,0,0,2.039-.945l1.109,1.242a3.389,3.389,0,0,1-1.375,1.121A4.511,4.511,0,0,1,93.285,15.156Zm-.258-6.945a1.411,1.411,0,0,0-1.09.455,2.357,2.357,0,0,0-.535,1.3h3.141V9.788a1.681,1.681,0,0,0-.406-1.165A1.456,1.456,0,0,0,93.027,8.211ZM7.6,31.336a1.481,1.481,0,0,0,1.016-.344,1.2,1.2,0,0,0,.406-.914h2.117a2.9,2.9,0,0,1-.469,1.574A3.093,3.093,0,0,1,9.41,32.762a3.949,3.949,0,0,1-1.77.395A3.67,3.67,0,0,1,4.781,32,4.56,4.56,0,0,1,3.734,28.82v-.148a4.508,4.508,0,0,1,1.039-3.117,3.627,3.627,0,0,1,2.852-1.164,3.555,3.555,0,0,1,2.543.9,3.2,3.2,0,0,1,.973,2.4H9.023a1.551,1.551,0,0,0-.406-1.072,1.354,1.354,0,0,0-1.031-.412,1.36,1.36,0,0,0-1.191.575,3.333,3.333,0,0,0-.4,1.866v.235a3.375,3.375,0,0,0,.4,1.878A1.377,1.377,0,0,0,7.6,31.336Zm9.891.8a2.831,2.831,0,0,1-2.312,1.016,2.67,2.67,0,0,1-2.074-.781,3.335,3.335,0,0,1-.73-2.289V24.547h2.258v5.467q0,1.322,1.2,1.322a1.63,1.63,0,0,0,1.578-.8V24.547H19.68V33H17.555ZM23.5,24.547l.07.945a2.971,2.971,0,0,1,2.43-1.1,2.255,2.255,0,0,1,2.242,1.289,2.9,2.9,0,0,1,2.539-1.289,2.521,2.521,0,0,1,2.047.8A3.681,3.681,0,0,1,33.5,27.6V33H31.234V27.6a1.616,1.616,0,0,0-.281-1.053,1.245,1.245,0,0,0-.992-.333,1.409,1.409,0,0,0-1.406.971L28.563,33H26.3V27.6a1.6,1.6,0,0,0-.289-1.065,1.257,1.257,0,0,0-.984-.329,1.463,1.463,0,0,0-1.391.8V33H21.383V24.547Zm19.344,4.3a5.07,5.07,0,0,1-.887,3.129,2.843,2.843,0,0,1-2.395,1.176,2.633,2.633,0,0,1-2.07-.891V36.25H35.234v-11.7h2.094l.078.828a2.654,2.654,0,0,1,2.141-.984,2.862,2.862,0,0,1,2.43,1.156,5.207,5.207,0,0,1,.867,3.188Zm-2.258-.172a3.345,3.345,0,0,0-.418-1.826,1.36,1.36,0,0,0-1.215-.643,1.478,1.478,0,0,0-1.461.815V30.5a1.5,1.5,0,0,0,1.477.839Q40.586,31.336,40.586,28.679ZM46.625,33H44.359V21h2.266Zm4.242,0H48.6V24.547h2.266Zm-2.4-10.641a1.112,1.112,0,0,1,.34-.836,1.465,1.465,0,0,1,1.848,0,1.193,1.193,0,0,1,0,1.68,1.448,1.448,0,0,1-1.836,0A1.108,1.108,0,0,1,48.469,22.359Zm6.375,2.188.07.945a2.971,2.971,0,0,1,2.43-1.1,2.255,2.255,0,0,1,2.242,1.289,2.9,2.9,0,0,1,2.539-1.289,2.521,2.521,0,0,1,2.047.8,3.681,3.681,0,0,1,.672,2.41V33H62.578V27.6a1.616,1.616,0,0,0-.281-1.053,1.245,1.245,0,0,0-.992-.333,1.409,1.409,0,0,0-1.406.971L59.906,33H57.648V27.6a1.6,1.6,0,0,0-.289-1.065,1.257,1.257,0,0,0-.984-.329,1.463,1.463,0,0,0-1.391.8V33H52.727V24.547ZM68.961,33H66.7V24.547h2.266Zm-2.4-10.641a1.112,1.112,0,0,1,.34-.836,1.465,1.465,0,0,1,1.848,0,1.193,1.193,0,0,1,0,1.68,1.448,1.448,0,0,1-1.836,0A1.108,1.108,0,0,1,66.563,22.359Zm8.148,10.8a4.15,4.15,0,0,1-3.027-1.141,4.054,4.054,0,0,1-1.168-3.039v-.219a5.106,5.106,0,0,1,.492-2.277A3.612,3.612,0,0,1,72.4,24.934a3.914,3.914,0,0,1,2.059-.543,3.508,3.508,0,0,1,2.73,1.094,4.444,4.444,0,0,1,1,3.1v.922H72.8a2.1,2.1,0,0,0,.66,1.328,2,2,0,0,0,1.395.5,2.437,2.437,0,0,0,2.039-.945l1.109,1.242a3.389,3.389,0,0,1-1.375,1.121A4.511,4.511,0,0,1,74.711,33.156Zm-.258-6.945a1.411,1.411,0,0,0-1.09.455,2.357,2.357,0,0,0-.535,1.3h3.141v-.181a1.681,1.681,0,0,0-.406-1.165A1.456,1.456,0,0,0,74.453,26.211Zm7.094-1.664.07.977a2.951,2.951,0,0,1,2.43-1.133,2.453,2.453,0,0,1,2,.789,3.682,3.682,0,0,1,.672,2.359V33H84.461V27.581a1.47,1.47,0,0,0-.312-1.045,1.4,1.4,0,0,0-1.039-.325,1.553,1.553,0,0,0-1.43.814V33H79.422V24.547Zm9.586-2.078v2.078h1.445V26.2H91.133v4.219a1.007,1.007,0,0,0,.18.672.9.9,0,0,0,.688.2,3.6,3.6,0,0,0,.664-.055v1.711a4.648,4.648,0,0,1-1.367.2,2.156,2.156,0,0,1-2.422-2.4V26.2H87.641V24.547h1.234V22.469ZM93.25,28.7a5.013,5.013,0,0,1,.484-2.242,3.546,3.546,0,0,1,1.395-1.523,4.069,4.069,0,0,1,2.113-.539,3.849,3.849,0,0,1,2.793,1.047,4.2,4.2,0,0,1,1.207,2.844l.016.578a4.418,4.418,0,0,1-1.086,3.121,4.209,4.209,0,0,1-5.832,0A4.5,4.5,0,0,1,93.25,28.8Zm2.258.16a3.16,3.16,0,0,0,.453,1.843,1.628,1.628,0,0,0,2.578.008A3.457,3.457,0,0,0,99,28.691a3.128,3.128,0,0,0-.461-1.831,1.5,1.5,0,0,0-1.3-.649,1.474,1.474,0,0,0-1.281.646A3.516,3.516,0,0,0,95.508,28.856Z" transform="translate(-3203.001 -12151.467)" fill="#12263f"/>
    <g id="Grupo_136860" data-name="Grupo 136860" transform="translate(-4806.943 -14182.207)">
      <g id="Grupo_135761" data-name="Grupo 135761" transform="translate(-16 762.24)">
        <circle id="Elipse_4800" data-name="Elipse 4800" cx="27" cy="27" r="27" transform="translate(736 1281)" fill="#7fc733" opacity="0.5"/>
        <circle id="Elipse_4801" data-name="Elipse 4801" cx="15" cy="15" r="15" transform="translate(748 1293)" fill="#7fc733"/>
      </g>
    </g>
    <g id="Grupo_135761-2" data-name="Grupo 135761" transform="translate(-4402.943 -13419.967)">
      <circle id="Elipse_4800-2" data-name="Elipse 4800" cx="27" cy="27" r="27" transform="translate(736 1281)" fill="#7fc733" opacity="0.5"/>
      <circle id="Elipse_4801-2" data-name="Elipse 4801" cx="15" cy="15" r="15" transform="translate(748 1293)" fill="#7fc733"/>
    </g>
    <g id="Grupo_135761-3" data-name="Grupo 135761" transform="translate(-3982.943 -13419.967)">
      <circle id="Elipse_4800-3" data-name="Elipse 4800" cx="27" cy="27" r="27" transform="translate(736 1281)" fill="#7fc733" opacity="0.5"/>
      <circle id="Elipse_4801-3" data-name="Elipse 4801" cx="15" cy="15" r="15" transform="translate(748 1293)" fill="#7fc733"/>
    </g>
    <g id="Grupo_135761-4" data-name="Grupo 135761" transform="translate(-4612.943 -13602.967)">
      <circle id="Elipse_4800-4" data-name="Elipse 4800" cx="27" cy="27" r="27" transform="translate(736 1281)" fill="#7fc733" opacity="0.5"/>
      <circle id="Elipse_4801-4" data-name="Elipse 4801" cx="15" cy="15" r="15" transform="translate(748 1293)" fill="#7fc733"/>
    </g>
    <g id="Grupo_135761-5" data-name="Grupo 135761" transform="translate(-4192.943 -13602.967)">
      <circle id="Elipse_4800-5" data-name="Elipse 4800" cx="27" cy="27" r="27" transform="translate(736 1281)" fill="#7fc733" opacity="0.5"/>
      <circle id="Elipse_4801-5" data-name="Elipse 4801" cx="15" cy="15" r="15" transform="translate(748 1293)" fill="#7fc733"/>
    </g>
  </g>
</svg>
